<svg id="Calque_1" data-name="Calque 1" xmlns="http://www.w3.org/2000/svg" viewBox="0 0 589.62 676.88"><defs><style>.cls-1{fill:#ffeed4;}.cls-2{fill:#fec567;}.cls-3{fill:#971e21;}.cls-4,.cls-8{fill:#655aa7;}.cls-4{opacity:0.78;}.cls-5{opacity:0.1;}.cls-6{fill:#010101;}.cls-7{fill:#fffce5;}.cls-9{fill:#fbba56;}.cls-10{font-size:20.65px;}.cls-10,.cls-12,.cls-14,.cls-15,.cls-16,.cls-19,.cls-27,.cls-29,.cls-32,.cls-37{fill:#4e5756;}.cls-10,.cls-12{font-family:ChunkFive-Roman, ChunkFive Roman;}.cls-11{letter-spacing:-0.08em;}.cls-12{font-size:36.14px;}.cls-13{letter-spacing:0em;}.cls-14{font-size:12.31px;font-family:MyriadPro-Regular, Myriad Pro;}.cls-15{font-size:29.86px;}.cls-15,.cls-37{font-family:MyriadPro-Semibold, Myriad Pro;}.cls-15,.cls-16,.cls-19,.cls-29,.cls-32,.cls-37{font-weight:700;}.cls-16{font-size:41.75px;letter-spacing:-0.03em;}.cls-16,.cls-19,.cls-29,.cls-32{font-family:MontserratAlternates-ExtraBold, Montserrat Alternates;}.cls-17{letter-spacing:-0.04em;}.cls-18{letter-spacing:-0.03em;}.cls-19{font-size:11.2px;letter-spacing:-0.03em;}.cls-20{letter-spacing:-0.02em;}.cls-21{letter-spacing:-0.04em;}.cls-22{letter-spacing:-0.03em;}.cls-23{letter-spacing:-0.03em;}.cls-24{letter-spacing:-0.04em;}.cls-25{fill:#6159a6;}.cls-25,.cls-26,.cls-27,.cls-28,.cls-29,.cls-32,.cls-37{stroke:#696e6a;stroke-miterlimit:10;stroke-width:0.75px;}.cls-26{fill:#ead6bf;}.cls-28{fill:#696e6a;}.cls-29{font-size:41.71px;letter-spacing:-0.03em;}.cls-30{letter-spacing:-0.04em;}.cls-31{letter-spacing:-0.03em;}.cls-32{font-size:11.19px;letter-spacing:-0.03em;}.cls-33{letter-spacing:-0.02em;}.cls-34{letter-spacing:-0.04em;}.cls-35{letter-spacing:-0.03em;}.cls-36{letter-spacing:-0.03em;}.cls-37{font-size:22.71px;}.cls-38{letter-spacing:0em;}.cls-39,.cls-41{font-size:30.21px;}.cls-40{letter-spacing:-0.08em;}.cls-41{letter-spacing:0em;}.cls-42{font-size:12.29px;letter-spacing:0em;}.cls-43{letter-spacing:0em;}.cls-44{letter-spacing:-0.01em;}.cls-45{letter-spacing:0.12em;}</style></defs><title>back3</title><path class="cls-1" d="M300.75,322.23A23,23,0,0,0,313.51,320a21.49,21.49,0,0,0,9.88-29.3,22.76,22.76,0,0,0-26.52-11,25.73,25.73,0,0,0-2.9-10.27c-6.81-13-23.22-18.22-36.64-11.62a26.05,26.05,0,0,0-12,35.53,26.56,26.56,0,0,0,8.59,9.63,25,25,0,0,0-3,27.62c6.6,12.62,22.5,17.65,35.51,11.26A25.62,25.62,0,0,0,300.75,322.23Z" transform="translate(-0.05 -170)"/><path class="cls-2" d="M286.49,341.86a25.62,25.62,0,0,0,14.26-19.63A23,23,0,0,0,313.51,320a21.83,21.83,0,0,0,12-15.9,30.11,30.11,0,0,1-9.55,7.35,31.14,31.14,0,0,1-25.35.93,29.53,29.53,0,0,1-15.75,19.28A31.1,31.1,0,0,1,253,333.78,26.93,26.93,0,0,0,286.49,341.86Z" transform="translate(-0.05 -170)"/><path class="cls-1" d="M224.6,300.77a26.09,26.09,0,0,0,6.34-.6c13.57-3,22.1-16,19-29.12-2.85-12.24-14.79-20.21-27.4-18.8a19.31,19.31,0,0,0-.42-6.23c-2.51-10.78-13.59-17.53-24.74-15.09S179.3,244,181.76,254.78A15.12,15.12,0,0,0,172,272.32a15.63,15.63,0,0,0,16.75,11.76A19.52,19.52,0,0,0,184,301.8c2.51,10.77,13.59,17.53,24.74,15.09A20.35,20.35,0,0,0,224.6,300.77Zm-24.34-23-.14,0,.13-.18Z" transform="translate(-0.05 -170)"/><path class="cls-2" d="M208.75,316.89a20.35,20.35,0,0,0,15.85-16.12,26.09,26.09,0,0,0,6.34-.6c13.57-3,22.1-16,19-29.12a23.79,23.79,0,0,0-3.42-7.86c.14.45.26.9.37,1.36,2.78,11.94-5,23.82-17.34,26.53a23.55,23.55,0,0,1-14.11-1.25c2.35,10.92-4.79,21.69-16.09,24.17a22,22,0,0,1-3.85.49c-.4.16-.81.32-1.22.47A21.22,21.22,0,0,0,208.75,316.89Z" transform="translate(-0.05 -170)"/><path class="cls-3" d="M423.49,384.85c0-11.21-9.34-20.31-20.9-20.33a20.78,20.78,0,0,0-20.51,16.13,20.73,20.73,0,0,0-20.69-17.47c-11.56,0-20.95,9.05-21,20.26,0,.21,0,.42,0,.63h0c0-.39,0-.6,0-.63,0-11-9.19-19.67-20.57-19.69s-20.62,8.91-20.64,19.94c0,.11,0,.21,0,.32h0c0-.21,0-.42,0-.63,0-11.21-9.34-20.31-20.9-20.33s-20.95,9.05-21,20.26c0,.21,0,.42,0,.63h0c0-.19,0-.3,0-.32,0-11-9.19-20-20.57-20s-20.62,8.91-20.64,19.94c0,.11,0,.21,0,.32h0c0-.21,0-.42,0-.63,0-11.21-9.34-20.31-20.9-20.33s-20.95,9.05-21,20.26c0,.21,0,.42,0,.63h0c0-.11,0-.21,0-.32,0-11-9.19-20-20.57-20s-20.62,8.91-20.64,19.94c0,0,0,.13,0,.32h0c0-.21,0-.42,0-.63,0-11.21-9.34-20.31-20.9-20.33s-20.95,9.05-21,20.26c0,.21,0,.42,0,.63h0c0-.1,0-.21,0-.32,0-11-9.19-20-20.57-20S50,372.29,50,383.33c0,1.48,22.56,346.46,27.46,421.44h0l.72,10.71.23,3.56,35.32.05V819L149,819c0,.08,0,.12,0,.12l34.67.05v-.12l35.32.05v.12l35.32.05v-.12l35.32.06v.12l35.32.06v-.12l35.32.05v.12l34.67.05v-.12h.12v-.2h.19l16.78-259.62v0C418.14,467.29,423.49,385.62,423.49,384.85Z" transform="translate(-0.05 -170)"/><polygon class="cls-4" points="396.56 649.21 369.71 673.27 397.89 238.91 423.44 217.39 396.56 649.21"/><path class="cls-1" d="M311.73,342.9a24.91,24.91,0,0,0-6.4-13.24,26.74,26.74,0,0,0-36.95-2,24.82,24.82,0,0,0-4.8,32.21,31.84,31.84,0,0,0-11,6.24,30.1,30.1,0,0,0-2.45,43.43,32.43,32.43,0,0,0,44.8,2.38,30.59,30.59,0,0,0,8.59-12.26,31.49,31.49,0,0,0,32.92-5.08,29.17,29.17,0,0,0,2.38-42.09A31.26,31.26,0,0,0,311.73,342.9Z" transform="translate(-0.05 -170)"/><path class="cls-2" d="M338.78,352.54a31.26,31.26,0,0,0-27-9.64,24.91,24.91,0,0,0-6.4-13.24,26.57,26.57,0,0,0-22-8.31,35.17,35.17,0,0,1,11.4,8.2,33.47,33.47,0,0,1,8.7,27.35,35.76,35.76,0,0,1,27.09,11.37,33.52,33.52,0,0,1,9,23.26A29.12,29.12,0,0,0,338.78,352.54Z" transform="translate(-0.05 -170)"/><path class="cls-1" d="M203,436.78a26.82,26.82,0,0,0,15.08-.21c13.78-4.23,21.41-18.48,17-31.84-3.89-11.9-16-19.06-28.31-17.49a29.76,29.76,0,0,0-1.33-12.32c-5.29-16.19-23.12-25.17-39.82-20s-26,22.41-20.67,38.61a30.47,30.47,0,0,0,8,12.63,29.22,29.22,0,0,0-8.77,31.18c5.13,15.69,22.4,24.39,38.59,19.42A30.23,30.23,0,0,0,203,436.78Z" transform="translate(-0.05 -170)"/><path class="cls-2" d="M182.79,456.71A30.23,30.23,0,0,0,203,436.78a26.82,26.82,0,0,0,15.08-.21,25.76,25.76,0,0,0,16.89-16.06,35.54,35.54,0,0,1-12.4,6.7,36.19,36.19,0,0,1-29.3-3.57,34.85,34.85,0,0,1-21.84,19.26,36.21,36.21,0,0,1-25.57-1.61C152.39,454.42,168,461.24,182.79,456.71Z" transform="translate(-0.05 -170)"/><path class="cls-1" d="M113.09,355.3a31.17,31.17,0,0,0,1.06-8c0-17.69-14.74-32-33-32.08-17,0-31.07,12.45-32.88,28.5a27.89,27.89,0,0,0-8.37-1.29c-15,0-27.17,11.74-27.19,26.28s12,26.27,27,26.36a20.7,20.7,0,0,0,40.82-.19,27.37,27.37,0,0,0,22.07,11.07c15,0,27.17-11.74,27.19-26.28A26.33,26.33,0,0,0,113.09,355.3ZM75.53,378.79V379l-.19-.21Z" transform="translate(-0.05 -170)"/><path class="cls-2" d="M129.8,379.64a26.33,26.33,0,0,0-16.71-24.34,31.17,31.17,0,0,0,1.06-8c0-17.69-14.74-32-33-32.08a33.87,33.87,0,0,0-11.4,2c.63,0,1.27-.06,1.92-.06,16.62,0,30.07,13.11,30,29.22A28.44,28.44,0,0,1,96,363.43c15.14.27,27.31,12.25,27.29,27a26.18,26.18,0,0,1-.48,4.92c.1.55.19,1.1.26,1.65A25.75,25.75,0,0,0,129.8,379.64Z" transform="translate(-0.05 -170)"/><path class="cls-1" d="M253.09,349.18a31.17,31.17,0,0,0,1.06-8c0-17.69-14.74-32-33-32.08-17,0-31.07,12.45-32.88,28.5a27.91,27.91,0,0,0-8.37-1.3c-15,0-27.17,11.74-27.19,26.28s12,26.27,27,26.36a20.7,20.7,0,0,0,40.82-.19,27.37,27.37,0,0,0,22.07,11.07c15,0,27.17-11.74,27.19-26.28A26.33,26.33,0,0,0,253.09,349.18Zm-37.56,23.48c0,.06,0,.12,0,.18l-.2-.21Z" transform="translate(-0.05 -170)"/><path class="cls-2" d="M269.79,373.52a26.33,26.33,0,0,0-16.71-24.34,31.17,31.17,0,0,0,1.06-8c0-17.69-14.74-32-33-32.08a33.87,33.87,0,0,0-11.4,2c.63,0,1.27-.06,1.92-.06,16.62,0,30.07,13.11,30,29.22a28.43,28.43,0,0,1-5.78,17.12c15.14.27,27.31,12.25,27.29,27a26.27,26.27,0,0,1-.48,4.92c.1.55.19,1.1.26,1.65A25.76,25.76,0,0,0,269.79,373.52Z" transform="translate(-0.05 -170)"/><path class="cls-1" d="M174.12,295.62a28.18,28.18,0,0,0,2.78-6.71C181,273.62,171.61,258,155.84,254c-14.72-3.74-29.76,4-35.06,17.46a24.64,24.64,0,0,0-6.94-2.95c-13-3.3-26.22,4.22-29.62,16.78s4.31,25.35,17.21,28.69a17.89,17.89,0,0,0,13.62,19.29,18.56,18.56,0,0,0,21.72-10.53,24,24,0,0,0,16.52,14.39c13,3.29,26.22-4.22,29.62-16.78A23.14,23.14,0,0,0,174.12,295.62Zm-37.94,12.1,0,.15-.12-.23Z" transform="translate(-0.05 -170)"/><path class="cls-2" d="M182.91,320.32a23.14,23.14,0,0,0-8.79-24.7,28.18,28.18,0,0,0,2.78-6.71C181,273.62,171.61,258,155.84,254a30.35,30.35,0,0,0-10.31-.81c.56.11,1.11.22,1.67.36,14.37,3.65,23,17.9,19.19,31.83a25.87,25.87,0,0,1-9,13.55c13,3.54,20.77,16.56,17.33,29.29a23.73,23.73,0,0,1-1.56,4.15c0,.5-.09,1-.16,1.49A23.46,23.46,0,0,0,182.91,320.32Z" transform="translate(-0.05 -170)"/><path class="cls-1" d="M391.22,355.91a21.91,21.91,0,0,0-10.59-13.25,23,23,0,0,0-30.79,8.16,21.28,21.28,0,0,0-.05,21.6,31.16,31.16,0,0,0-13,12.07c-8.69,14.75-3.39,33.54,11.83,42s34.59,3.29,43.28-11.47a30.1,30.1,0,0,0,3.64-9.62A27.51,27.51,0,0,0,426,392.93,25.89,25.89,0,0,0,415.85,357,27.86,27.86,0,0,0,391.22,355.91Z" transform="translate(-0.05 -170)"/><path class="cls-2" d="M391.22,355.91a21.91,21.91,0,0,0-10.59-13.25,23.16,23.16,0,0,0-24.19,1.12,24.1,24.1,0,0,1,17.26,2.35,22.63,22.63,0,0,1,11.7,22.61,24.18,24.18,0,0,1,24.25-.53,22.46,22.46,0,0,1,8.78,31.14,23,23,0,0,1-2.33,3.25,26.6,26.6,0,0,0,9.87-9.67A25.89,25.89,0,0,0,415.85,357,27.86,27.86,0,0,0,391.22,355.91Z" transform="translate(-0.05 -170)"/><path class="cls-1" d="M159.19,415.78a26.83,26.83,0,0,0,15.08-.21c13.78-4.23,21.41-18.48,17-31.84-3.89-11.9-16-19.06-28.31-17.49a29.77,29.77,0,0,0-1.33-12.32c-5.29-16.19-23.12-25.17-39.82-20s-26,22.41-20.67,38.61a30.47,30.47,0,0,0,8,12.63,29.22,29.22,0,0,0-8.77,31.18c5.13,15.69,22.4,24.39,38.59,19.42A30.23,30.23,0,0,0,159.19,415.78Z" transform="translate(-0.05 -170)"/><path class="cls-2" d="M139,435.72a30.23,30.23,0,0,0,20.19-19.93,26.83,26.83,0,0,0,15.08-.21,25.75,25.75,0,0,0,16.89-16.06,35.51,35.51,0,0,1-12.4,6.7,36.19,36.19,0,0,1-29.3-3.56,34.85,34.85,0,0,1-21.84,19.26,36.21,36.21,0,0,1-25.57-1.61C108.59,433.42,124.25,440.24,139,435.72Z" transform="translate(-0.05 -170)"/><g class="cls-5"><path class="cls-6" d="M402.47,401.91c0-11.21-9.34-20.31-20.9-20.32a20.78,20.78,0,0,0-20.51,16.13,20.73,20.73,0,0,0-20.69-17.47c-11.56,0-20.95,9.05-21,20.26,0,.21,0,.42,0,.64h0c0-.38,0-.61,0-.64,0-11-9.19-19.67-20.57-19.69s-20.62,8.91-20.64,19.94c0,.11,0,.21,0,.32h0c0-.21,0-.42,0-.63,0-11.21-9.34-20.31-20.9-20.33s-20.95,9.05-21,20.26c0,.21,0,.42,0,.64h0c0-.19,0-.3,0-.32,0-11-9.19-20-20.57-20s-20.62,8.91-20.64,19.94c0,.11,0,.21,0,.32h0c0-.21,0-.42,0-.63,0-11.21-9.34-20.31-20.9-20.33s-20.95,9.05-21,20.26c0,.21,0,.42,0,.63h0c0-.11,0-.21,0-.32,0-11-9.19-20-20.57-20s-20.62,8.91-20.64,19.94c0,0,0,.14,0,.32h0c0-.21,0-.42,0-.63,0-11.21-9.34-20.31-20.9-20.33s-20.95,9.05-21,20.26c0,.21,0,.42,0,.63h0c0-.11,0-.21,0-.32,0-11-9.19-20-20.57-20S29,389.35,29,400.38c0,1.48,22.56,346.47,27.46,421.44h0l.73,10.71.23,3.56,35.32.05V836l35.32.05v.12l34.67.05v-.12l35.32.05v.12l35.32.05v-.12l35.32.05v.12l35.32.05v-.12l35.32.05v.12l34.67.05v-.12h.12v-.2h.19l16.78-259.62v0C397.12,484.34,402.47,402.67,402.47,401.91Z" transform="translate(-0.05 -170)"/></g><path class="cls-7" d="M356.72,408.21c0-.21,0-.42,0-.63,0-11.21-9.34-20.31-20.9-20.33s-20.95,9.05-21,20.26c0,.21,0,.42,0,.63l-41.24-.06c0-.21,0-.42,0-.63,0-11.21-9.34-20.31-20.9-20.33s-20.95,9.05-21,20.26c0,.21,0,.42,0,.63L190.57,408c0-.21,0-.42,0-.63,0-11.21-9.34-20.31-20.9-20.32s-20.95,9.05-21,20.26c0,.21,0,.42,0,.63l-41.24-.06c0-.21,0-.42,0-.63,0-11.21-9.34-20.31-20.9-20.33s-20.95,9.05-21,20.26c0,.21,0,.42,0,.63L25,407.7,53.55,843l316,.49,27.9-435.19Z" transform="translate(-0.05 -170)"/><path class="cls-8" d="M65.63,408.08c0-.21,0-.42,0-.63,0-11-9.19-20-20.57-20s-20.62,8.91-20.64,19.94c0,1.66,28.39,435.71,28.39,435.71l35.32.05Z" transform="translate(-0.05 -170)"/><path class="cls-8" d="M148.71,408.21c0-.21,0-.42,0-.63,0-11-9.19-20-20.57-20s-20.62,8.91-20.64,19.94c0,1.44,16,435.69,16,435.69l34.67.05Z" transform="translate(-0.05 -170)"/><path class="cls-8" d="M211.23,387.7c-11.38,0-20.62,8.91-20.64,19.94,0,.21,0,.42,0,.63l2.87,435,35.32.05s3-434.43,3-435.66C231.82,396.67,222.6,387.71,211.23,387.7Z" transform="translate(-0.05 -170)"/><path class="cls-8" d="M294.3,387.82c-11.38,0-20.62,8.91-20.64,19.94,0,.21,0,.42,0,.63l-9.56,435,35.32.05s15.43-434.55,15.43-436C314.89,396.48,305.68,387.84,294.3,387.82Z" transform="translate(-0.05 -170)"/><path class="cls-8" d="M397.94,408.91c0-11.21-9.34-20.31-20.9-20.33s-20.76,8.88-21,19.94l-21.33,435,34.67.05S397.94,410.68,397.94,408.91Z" transform="translate(-0.05 -170)"/><g class="cls-5"><path class="cls-6" d="M342,621.59c-.08,50.26-58.58,90.91-130.66,90.8S80.92,671.44,81,621.18s58.58-90.91,130.66-90.8S342.11,571.33,342,621.59Z" transform="translate(-0.05 -170)"/></g><path class="cls-9" d="M341.25,615.88c-.08,50.26-58.58,90.91-130.66,90.8S80.15,665.73,80.23,615.48s58.58-90.91,130.66-90.8S341.34,565.62,341.25,615.88Z" transform="translate(-0.05 -170)"/><g class="cls-5"><path class="cls-6" d="M386.53,583.65S312.48,790.76,51.88,828.83l.94,14,316.93.49Z" transform="translate(-0.05 -170)"/></g><path class="cls-1" d="M343.82,346.8a21.59,21.59,0,0,0,6.29,11,23.06,23.06,0,0,0,31.9-.36,21.37,21.37,0,0,0,2.23-28,27.33,27.33,0,0,0,9.13-6,26,26,0,0,0-.45-37.5,28,28,0,0,0-38.68.43,26.22,26.22,0,0,0-6.67,11,27.1,27.1,0,0,0-28,6.19A25.15,25.15,0,0,0,320,340,27,27,0,0,0,343.82,346.8Z" transform="translate(-0.05 -170)"/><path class="cls-2" d="M320,340a27,27,0,0,0,23.84,6.8,21.59,21.59,0,0,0,6.29,11,23,23,0,0,0,19.45,5.93,30.47,30.47,0,0,1-10.29-6.42,29,29,0,0,1-9.1-23,31,31,0,0,1-24-8.29,29,29,0,0,1-9.12-19.51A25.12,25.12,0,0,0,320,340Z" transform="translate(-0.05 -170)"/><path class="cls-1" d="M306,247.17a19.07,19.07,0,0,0,6.24,9.27,20.24,20.24,0,0,0,27.91-2.31,18.76,18.76,0,0,0,.09-24.64,23.8,23.8,0,0,0,7.59-5.81,22.79,22.79,0,0,0-2.89-32.8,24.54,24.54,0,0,0-33.84,2.8A22.9,22.9,0,0,0,306,203.75a23.72,23.72,0,0,0-24.12,7.17,22.09,22.09,0,0,0,2.8,31.79A23.81,23.81,0,0,0,306,247.17Z" transform="translate(-0.05 -170)"/><path class="cls-2" d="M284.67,242.71A23.81,23.81,0,0,0,306,247.17a19.07,19.07,0,0,0,6.24,9.27,20.25,20.25,0,0,0,17.43,4,27,27,0,0,1-9.44-5,25.55,25.55,0,0,1-9.5-19.61,27.27,27.27,0,0,1-21.55-5.75,25.61,25.61,0,0,1-9.28-16.51A22.09,22.09,0,0,0,284.67,242.71Z" transform="translate(-0.05 -170)"/><path class="cls-1" d="M97.36,240.33a26,26,0,0,0,6.34-.6c13.57-3,22.1-16,19-29.12-2.85-12.24-14.79-20.21-27.4-18.8a19.31,19.31,0,0,0-.42-6.23c-2.51-10.77-13.59-17.53-24.74-15.09s-18.12,13.1-15.66,23.85a15.12,15.12,0,0,0-9.73,17.53,15.63,15.63,0,0,0,16.75,11.76,19.52,19.52,0,0,0-4.77,17.73c2.51,10.77,13.59,17.53,24.74,15.09A20.35,20.35,0,0,0,97.36,240.33ZM73,217.32l-.14,0,.13-.18C73,217.22,73,217.27,73,217.32Z" transform="translate(-0.05 -170)"/><path class="cls-2" d="M81.51,256.45a20.35,20.35,0,0,0,15.85-16.12,26,26,0,0,0,6.34-.6c13.57-3,22.1-16,19-29.12a23.81,23.81,0,0,0-3.42-7.86c.14.45.26.9.37,1.36,2.78,11.94-5,23.82-17.34,26.52a23.55,23.55,0,0,1-14.11-1.25c2.35,10.92-4.79,21.69-16.09,24.17a22,22,0,0,1-3.85.49c-.4.16-.81.32-1.22.47A21.23,21.23,0,0,0,81.51,256.45Z" transform="translate(-0.05 -170)"/><text x="-0.05" y="-170"></text><text class="cls-10" transform="matrix(0.6, -0.8, 0.79, 0.62, 409.18, 451.58)">SE<tspan class="cls-11" x="20.34" y="0">A</tspan><tspan x="31.39" y="0">T</tspan></text><text class="cls-12" transform="matrix(0.6, -0.8, 0.79, 0.62, 439.52, 476.74)">23</text><text class="cls-10" transform="matrix(0.6, -0.8, 0.79, 0.62, 356.81, 522.25)"><tspan class="cls-13">R</tspan><tspan x="11.17" y="0">OW</tspan></text><text class="cls-12" transform="matrix(0.6, -0.8, 0.79, 0.62, 387.52, 546.92)">05</text><text class="cls-14" transform="matrix(0.6, -0.8, 0.79, 0.62, 310.74, 550.85)">TH</text><text class="cls-15" transform="matrix(-0.79, -0.62, 0.6, -0.8, 503.48, 381.58)">21495041940</text><text class="cls-16" transform="matrix(0.6, -0.8, 0.79, 0.62, 160.59, 571.51)">Wa<tspan class="cls-17" x="77.36" y="0">t</tspan><tspan class="cls-18" x="93.18" y="0">c</tspan><tspan x="117.15" y="0">h</tspan></text><text class="cls-19" transform="matrix(0.6, -0.8, 0.79, 0.62, 205.25, 540.98)">outside <tspan class="cls-20" x="45.42" y="0">m</tspan><tspan class="cls-21" x="56.91" y="0">o</tspan><tspan class="cls-22" x="63.9" y="0">vie </tspan><tspan class="cls-23" x="83.59" y="0">f</tspan><tspan class="cls-22" x="87.52" y="0">esti</tspan><tspan class="cls-24" x="107.86" y="0">v</tspan><tspan x="114.34" y="0">al</tspan></text><text class="cls-16" transform="matrix(0.6, -0.8, 0.79, 0.62, 250.95, 451.29)">it</text><path class="cls-25" d="M38.92,813.85l309-416.9a31.13,31.13,0,0,0,42.29-3.48,7.07,7.07,0,0,0,2.55,6.89,6.68,6.68,0,0,0,9.52-1.3,7.1,7.1,0,0,0,1.32,9.77,6.68,6.68,0,0,0,9.52-1.3,7.1,7.1,0,0,0,1.32,9.77,6.68,6.68,0,0,0,9.52-1.3,7.1,7.1,0,0,0,1.32,9.77,6.68,6.68,0,0,0,9.52-1.3,7.1,7.1,0,0,0,1.32,9.77,6.68,6.68,0,0,0,9.52-1.3,7.1,7.1,0,0,0,1.32,9.77,6.68,6.68,0,0,0,9.52-1.3,7.1,7.1,0,0,0,1.32,9.77,6.68,6.68,0,0,0,9.52-1.3,7.1,7.1,0,0,0,1.32,9.77,6.68,6.68,0,0,0,9.52-1.3,7.1,7.1,0,0,0,1.32,9.77,6.68,6.68,0,0,0,9.52-1.3,7.1,7.1,0,0,0,1.32,9.77,6.68,6.68,0,0,0,9.52-1.3,7.1,7.1,0,0,0,1.32,9.77,6.68,6.68,0,0,0,9.52-1.3,7.1,7.1,0,0,0,1.32,9.77,6.68,6.68,0,0,0,9.52-1.3,7.1,7.1,0,0,0,1.32,9.77,6.68,6.68,0,0,0,9.52-1.3,7.1,7.1,0,0,0,1.32,9.77,6.65,6.65,0,0,0,7.66.41A33.12,33.12,0,0,0,549,554.06L337,840.13h18.65l233.47-315L364.36,349.55.79,840.13H51.49A32.93,32.93,0,0,0,38.92,813.85Z" transform="translate(-0.05 -170)"/><path class="cls-26" d="M541.31,510.85a6.65,6.65,0,0,1-7.66-.41,7.1,7.1,0,0,1-1.32-9.77,6.68,6.68,0,0,1-9.52,1.3,7.1,7.1,0,0,1-1.32-9.77,6.68,6.68,0,0,1-9.52,1.3,7.1,7.1,0,0,1-1.32-9.77,6.68,6.68,0,0,1-9.52,1.3,7.1,7.1,0,0,1-1.32-9.77,6.68,6.68,0,0,1-9.52,1.3A7.1,7.1,0,0,1,489,466.8a6.68,6.68,0,0,1-9.52,1.3,7.1,7.1,0,0,1-1.32-9.77,6.68,6.68,0,0,1-9.52,1.3,7.1,7.1,0,0,1-1.32-9.77,6.68,6.68,0,0,1-9.52,1.3,7.1,7.1,0,0,1-1.32-9.77,6.68,6.68,0,0,1-9.52,1.3,7.1,7.1,0,0,1-1.32-9.77,6.68,6.68,0,0,1-9.52,1.3,7.1,7.1,0,0,1-1.32-9.77,6.68,6.68,0,0,1-9.52,1.3,7.1,7.1,0,0,1-1.32-9.77,6.68,6.68,0,0,1-9.52,1.3,7.1,7.1,0,0,1-1.32-9.77,6.68,6.68,0,0,1-9.52,1.3,7.1,7.1,0,0,1-1.32-9.77,6.68,6.68,0,0,1-9.52,1.3,7.07,7.07,0,0,1-2.55-6.89A31.13,31.13,0,0,1,347.88,397l-309,416.9a32.93,32.93,0,0,1,12.57,26.28H63.34a31.32,31.32,0,0,0-10.67-33.28L345,412.44a29.45,29.45,0,0,0,40-3.29c9.78,7,116.25,90.16,143,111-7.07,14.73-5.19,31.12,7.31,40.88L391.08,755.66l1.13.88-1.13-.88-62.61,84.48H337L549,554.06A33.12,33.12,0,0,1,541.31,510.85Z" transform="translate(-0.05 -170)"/><polygon class="cls-26" points="269.28 670.14 328.42 670.14 391.03 585.66 353.57 556.4 269.28 670.14"/><polygon class="cls-26" points="312.51 524.34 204.46 670.14 269.28 670.14 353.57 556.4 312.51 524.34"/><path class="cls-26" d="M75.57,838.26l-3.29-2.57,4.13.1,1.35-4,1.2,4.05,4.13.1-3.38,2.4.52,1.77h28.12L58.7,801.37l2.26-3,53.54,41.81H182v-3h3v3H204.5l108.05-145.8-.08-.06.08.06,52.92-71.41h0l52.35-70.64-52.35,70.64L444,684.22l-78.49-61.3-52.92,71.41,41.06,32.07.08-.11-.08.11,37.46,29.26,144.2-194.58c-12.5-9.77-14.39-26.16-7.31-40.88-26.73-20.88-133.21-104-143-111a29.45,29.45,0,0,1-40,3.29L52.67,806.85a31.32,31.32,0,0,1,10.67,33.28H74.93ZM310.15,462.07,499.07,609.61l-2.83,3.81L307.33,465.88ZM285.37,664.92l-.21,11-6.13-9L268.79,670l6.46-8.72-6.13-9,10.12,3.65,6.46-8.72-.21,11,10.12,3.65Zm4.57-77.42a7.39,7.39,0,0,1-.61,10.52c-3.23,3.08-7.66,2.86-10.33-.08s-2.48-7.38.75-10.47S287.22,584.51,289.94,587.5ZM262.1,556.88l18.68,24.31-7.28,6.95-22.29-20.86Zm-16.8,127.5L255.42,688l6.46-8.72-.21,11,10.12,3.65-10.25,3.13-.21,11-6.13-9L245,702.14l6.46-8.72Zm-23.82,32.15,10.12,3.65,6.46-8.72-.21,11L248,726.08l-10.25,3.13-.21,11-6.13-9-10.25,3.13,6.46-8.72Z" transform="translate(-0.05 -170)"/><polygon class="cls-26" points="77.15 670.14 77.91 670.14 77.55 669.85 77.15 670.14"/><polygon class="cls-27" points="255.16 529.01 261.29 538.05 261.5 527.07 271.74 523.94 261.63 520.29 261.83 509.31 255.37 518.03 245.25 514.39 251.38 523.42 244.91 532.15 255.16 529.01"/><polygon class="cls-27" points="285.66 477.17 279.19 485.89 269.07 482.24 275.2 491.28 268.74 500 278.99 496.86 285.11 505.9 285.32 494.93 295.57 491.79 285.45 488.14 285.66 477.17"/><polygon class="cls-27" points="231.34 561.16 237.46 570.2 237.67 559.22 247.92 556.09 237.8 552.44 238.01 541.46 231.55 550.18 221.43 546.53 227.55 555.57 221.09 564.29 231.34 561.16"/><polygon class="cls-27" points="83.03 665.97 78.9 665.87 77.7 661.81 76.35 665.8 72.23 665.7 75.52 668.27 74.88 670.14 77.15 670.14 77.55 669.85 77.91 670.14 80.16 670.14 79.64 668.37 83.03 665.97"/><polygon class="cls-26" points="499.02 439.62 310.1 292.07 307.28 295.88 496.2 443.43 499.02 439.62"/><polygon class="cls-28" points="60.91 628.32 58.65 631.37 108.28 670.14 114.45 670.14 60.91 628.32"/><rect class="cls-26" x="181.99" y="667.12" width="3.02" height="3.02"/><text class="cls-29" transform="translate(158.93 568.17) rotate(-52.09)">Wa<tspan class="cls-30" x="77.28" y="0">t</tspan><tspan class="cls-31" x="93.09" y="0">c</tspan><tspan x="117.03" y="0">h</tspan></text><path class="cls-27" d="M280.6,597.66c-2.71-3-2.41-7.3.9-10.31s7.6-2.86,10.3.11a7.17,7.17,0,0,1-.76,10.37C287.73,600.84,283.26,600.59,280.6,597.66Zm-27.67-30.48L264.08,557l18.55,24.13-7.45,6.78Z" transform="translate(-0.05 -170)"/><text class="cls-32" transform="translate(204.49 538.46) rotate(-52.09)">outside <tspan class="cls-33" x="45.37" y="0">m</tspan><tspan class="cls-34" x="56.86" y="0">o</tspan><tspan x="63.84" y="0">vie </tspan><tspan class="cls-35" x="83.51" y="0">f</tspan><tspan x="87.44" y="0">esti</tspan><tspan class="cls-34" x="107.76" y="0">v</tspan><tspan class="cls-36" x="114.23" y="0">al</tspan></text><text class="cls-29" transform="translate(251.92 450.44) rotate(-52.09)">it</text><text class="cls-37" transform="matrix(0.79, 0.61, -0.61, 0.79, 357.13, 286.67)">3214847923452</text><text class="cls-37" transform="matrix(0.61, -0.8, 0.8, 0.61, 353.57, 531.99)">R<tspan class="cls-38" x="12.92" y="0">O</tspan><tspan x="28.84" y="0">W</tspan><tspan x="0" y="36.25" xml:space="preserve">    </tspan><tspan class="cls-39" x="18.8" y="36.25">9</tspan></text><text class="cls-37" transform="matrix(0.61, -0.8, 0.8, 0.61, 403.15, 461.82)">SE<tspan class="cls-40" x="23.48" y="0">A</tspan><tspan x="36.08" y="0">T</tspan><tspan x="0" y="36.25"> </tspan><tspan class="cls-41" x="4.7" y="36.25">17</tspan></text><text class="cls-37" transform="translate(244.91 665.97) rotate(-52.97)"><tspan xml:space="preserve"> 8</tspan><tspan class="cls-42" x="16.87" y="0">th</tspan><tspan class="cls-43" x="28.22" y="0">, </tspan><tspan class="cls-44" x="38.28" y="0">A</tspan><tspan x="52.4" y="0">ugust</tspan></text><text class="cls-37" transform="translate(305.82 672.64) rotate(-52.97)"><tspan class="cls-45">	</tspan><tspan x="7.5" y="0">18:30</tspan></text></svg>