<svg xmlns="http://www.w3.org/2000/svg" xmlns:xlink="http://www.w3.org/1999/xlink" viewBox="0 0 557.83 488.61"><defs><style>.cls-1,.cls-11,.cls-41,.cls-42,.cls-43,.cls-44,.cls-45,.cls-46,.cls-47,.cls-48,.cls-49,.cls-5,.cls-50,.cls-53,.cls-54,.cls-55,.cls-56,.cls-57,.cls-58,.cls-59,.cls-60,.cls-61,.cls-62,.cls-63,.cls-64{isolation:isolate;}.cls-2{fill:#ffefd5;}.cls-3{fill:#fec669;}.cls-4{fill:#982122;}.cls-5,.cls-9{fill:#665ba7;}.cls-5{opacity:0.78;}.cls-6{opacity:0.1;}.cls-7{fill:#020202;}.cls-8{fill:#fffce7;}.cls-10{fill:#faba57;}.cls-11{font-size:14.86px;font-family:ArialMT, Arial;}.cls-11,.cls-40,.cls-41,.cls-43,.cls-45,.cls-47,.cls-49,.cls-51,.cls-52,.cls-53,.cls-55,.cls-57,.cls-59,.cls-61,.cls-63,.cls-66{fill:#4f5857;}.cls-12{fill:#ebd7c0;}.cls-12,.cls-39,.cls-40,.cls-42,.cls-44,.cls-46,.cls-48,.cls-50,.cls-51,.cls-52,.cls-54,.cls-56,.cls-58,.cls-60,.cls-62,.cls-64,.cls-66{stroke:#6a6f6b;}.cls-12,.cls-26,.cls-38,.cls-39,.cls-40,.cls-42,.cls-44,.cls-46,.cls-48,.cls-50,.cls-51,.cls-52,.cls-54,.cls-56,.cls-58,.cls-60,.cls-62,.cls-64,.cls-65,.cls-66{stroke-miterlimit:10;}.cls-12,.cls-39,.cls-40,.cls-42,.cls-44,.cls-46,.cls-48,.cls-50,.cls-51,.cls-52,.cls-54,.cls-56,.cls-58,.cls-60,.cls-62,.cls-64{stroke-width:0.75px;}.cls-13{fill:#171717;}.cls-14,.cls-15,.cls-16,.cls-17,.cls-18,.cls-19,.cls-23,.cls-37,.cls-38{mix-blend-mode:soft-light;}.cls-14{fill:url(#linear-gradient);}.cls-15{fill:url(#linear-gradient-2);}.cls-16{fill:url(#linear-gradient-3);}.cls-17{fill:url(#linear-gradient-4);}.cls-18{fill:url(#linear-gradient-5);}.cls-19{opacity:0.5;}.cls-20{fill:#fff;}.cls-21{fill:#788b98;}.cls-22{fill:#8da2ae;}.cls-24{fill:url(#radial-gradient);}.cls-25{fill:url(#Новый_образец_градиента_2);}.cls-26,.cls-38,.cls-42,.cls-44,.cls-46,.cls-48,.cls-50,.cls-54,.cls-56,.cls-58,.cls-60,.cls-62,.cls-64,.cls-65{fill:none;}.cls-26,.cls-38{stroke-width:2px;}.cls-26{stroke:url(#Новый_образец_градиента_2-2);}.cls-27{fill:url(#Новый_образец_градиента_2-3);}.cls-28{fill:url(#Новый_образец_градиента_2-4);}.cls-29{fill:url(#linear-gradient-6);}.cls-30{fill:url(#linear-gradient-7);}.cls-31{fill:url(#linear-gradient-8);}.cls-32{fill:url(#linear-gradient-9);}.cls-33{fill:url(#linear-gradient-10);}.cls-34{fill:url(#Новый_образец_градиента_2-5);}.cls-35{fill:url(#Новый_образец_градиента_2-6);}.cls-36{fill:url(#Новый_образец_градиента_2-7);}.cls-37{fill:url(#radial-gradient-2);}.cls-38{stroke:url(#Новый_образец_градиента_2-8);}.cls-39{fill:#615aa7;}.cls-41,.cls-42,.cls-43,.cls-44,.cls-51{font-size:30.49px;}.cls-41,.cls-42,.cls-43,.cls-44,.cls-45,.cls-46,.cls-47,.cls-48,.cls-49,.cls-50,.cls-51{font-family:MontserratAlternates-ExtraBold, Montserrat Alternates;}.cls-41,.cls-42,.cls-43,.cls-44,.cls-45,.cls-46,.cls-47,.cls-48,.cls-49,.cls-50,.cls-51,.cls-52,.cls-53,.cls-54,.cls-55,.cls-56,.cls-57,.cls-58,.cls-59,.cls-60,.cls-61,.cls-62,.cls-63,.cls-64{font-weight:700;}.cls-41,.cls-42{letter-spacing:-0.03em;}.cls-43,.cls-44{letter-spacing:-0.04em;}.cls-45,.cls-46,.cls-47,.cls-48,.cls-49,.cls-50{font-size:8.18px;}.cls-45,.cls-46{letter-spacing:-0.03em;}.cls-47,.cls-48{letter-spacing:-0.02em;}.cls-49,.cls-50{letter-spacing:-0.04em;}.cls-51{letter-spacing:-0.03em;}.cls-52{font-size:16.59px;}.cls-52,.cls-53,.cls-54,.cls-55,.cls-56,.cls-57,.cls-58,.cls-59,.cls-60,.cls-61,.cls-62,.cls-63,.cls-64{font-family:MyriadPro-Bold, Myriad Pro;}.cls-53,.cls-54,.cls-57,.cls-58{font-size:16.7px;}.cls-55,.cls-56{font-size:22.22px;}.cls-57,.cls-58{letter-spacing:-0.08em;}.cls-59,.cls-60,.cls-63,.cls-64{font-size:16.6px;}.cls-61,.cls-62{font-size:8.98px;}.cls-63,.cls-64{letter-spacing:-0.01em;}.cls-65{stroke:#231f20;}.cls-66{stroke-width:7px;}</style><linearGradient id="linear-gradient" x1="347.49" y1="286.72" x2="426.95" y2="286.72" gradientUnits="userSpaceOnUse"><stop offset="0" stop-color="#fff"/><stop offset="1" stop-color="#21150b"/></linearGradient><linearGradient id="linear-gradient-2" x1="464.31" y1="203.67" x2="464.31" y2="269.06" xlink:href="#linear-gradient"/><linearGradient id="linear-gradient-3" x1="585.45" y1="296.13" x2="511.26" y2="296.13" xlink:href="#linear-gradient"/><linearGradient id="linear-gradient-4" x1="524.19" y1="430.21" x2="524.19" y2="349.59" xlink:href="#linear-gradient"/><linearGradient id="linear-gradient-5" x1="432.99" y1="384.61" x2="354.27" y2="384.61" xlink:href="#linear-gradient"/><radialGradient id="radial-gradient" cx="398.69" cy="282.02" r="273" gradientUnits="userSpaceOnUse"><stop offset="0" stop-color="#fff"/><stop offset="0.68" stop-color="#21150b"/><stop offset="1" stop-color="#fff"/></radialGradient><linearGradient id="Новый_образец_градиента_2" x1="464.93" y1="490.11" x2="464.93" y2="158.37" gradientUnits="userSpaceOnUse"><stop offset="0" stop-color="#cac8c8"/><stop offset="0.21" stop-color="#a4a3a3"/><stop offset="0.43" stop-color="#818181"/><stop offset="0.65" stop-color="#686868"/><stop offset="0.84" stop-color="#585959"/><stop offset="1" stop-color="#535454"/></linearGradient><linearGradient id="Новый_образец_градиента_2-2" x1="383.33" y1="139.61" x2="383.33" y2="488.61" xlink:href="#Новый_образец_градиента_2"/><linearGradient id="Новый_образец_градиента_2-3" x1="464.99" y1="165.81" x2="464.99" y2="219.35" xlink:href="#Новый_образец_градиента_2"/><linearGradient id="Новый_образец_градиента_2-4" x1="564.57" y1="238.3" x2="564.57" y2="291.84" xlink:href="#Новый_образец_градиента_2"/><linearGradient id="linear-gradient-6" x1="560.15" y1="348.58" x2="564.27" y2="294.2" gradientUnits="userSpaceOnUse"><stop offset="0" stop-color="#5b5651"/><stop offset="0.22" stop-color="#585552"/><stop offset="1" stop-color="#535454"/></linearGradient><linearGradient id="linear-gradient-7" x1="460.93" y1="276.46" x2="465.05" y2="222.08" xlink:href="#linear-gradient-6"/><linearGradient id="linear-gradient-8" x1="359.98" y1="349.05" x2="364.1" y2="294.66" xlink:href="#linear-gradient-6"/><linearGradient id="linear-gradient-9" x1="398.09" y1="466.41" x2="402.21" y2="412.02" xlink:href="#linear-gradient-6"/><linearGradient id="linear-gradient-10" x1="522.61" y1="465.89" x2="526.73" y2="411.51" xlink:href="#linear-gradient-6"/><linearGradient id="Новый_образец_градиента_2-5" x1="365.17" y1="239.44" x2="365.17" y2="292.98" xlink:href="#Новый_образец_градиента_2"/><linearGradient id="Новый_образец_градиента_2-6" x1="403.29" y1="356.4" x2="403.29" y2="409.94" xlink:href="#Новый_образец_градиента_2"/><linearGradient id="Новый_образец_градиента_2-7" x1="526.65" y1="356.4" x2="526.65" y2="409.94" xlink:href="#Новый_образец_градиента_2"/><radialGradient id="radial-gradient-2" cx="381.28" cy="316.27" r="17.67" gradientUnits="userSpaceOnUse"><stop offset="0" stop-color="#fff"/><stop offset="1" stop-color="#49433c"/></radialGradient><linearGradient id="Новый_образец_градиента_2-8" x1="373.51" y1="319.01" x2="396.94" y2="319.01" xlink:href="#Новый_образец_градиента_2"/></defs><title>back6</title><g class="cls-1"><g id="Calque_1" data-name="Calque 1"><path class="cls-2" d="M303.26,114.3a16.49,16.49,0,0,0,9.15-1.6,15.4,15.4,0,0,0,7.32-20.52l-.24-.49a16.31,16.31,0,0,0-19-7.88,18.44,18.44,0,0,0-2.08-7.36,19.85,19.85,0,0,0-26.26-8.33A18.67,18.67,0,0,0,263.23,93l.3.61a19,19,0,0,0,6.16,6.9,17.92,17.92,0,0,0-2.15,19.8A19.23,19.23,0,0,0,293,128.37,18.36,18.36,0,0,0,303.26,114.3Z" transform="translate(-80.97 -10.2)"/><path class="cls-3" d="M293,128.37a18.36,18.36,0,0,0,10.22-14.07,16.49,16.49,0,0,0,9.15-1.6,15.65,15.65,0,0,0,8.6-11.4,21.58,21.58,0,0,1-6.85,5.27,22.32,22.32,0,0,1-18.17.67,21.17,21.17,0,0,1-11.29,13.82A22.29,22.29,0,0,1,269,122.58,19.3,19.3,0,0,0,293,128.37Z" transform="translate(-80.97 -10.2)"/><path class="cls-2" d="M248.67,98.92a18.7,18.7,0,0,0,4.54-.43c9.73-2.15,15.84-11.47,13.62-20.87a18,18,0,0,0-19.64-13.48,13.84,13.84,0,0,0-.3-4.47,14.83,14.83,0,0,0-17.73-10.82A14.32,14.32,0,0,0,218,66a10.84,10.84,0,0,0-7,12.57A11.2,11.2,0,0,0,223,87a14,14,0,0,0-3.4,12.7,14.84,14.84,0,0,0,17.73,10.82A14.59,14.59,0,0,0,248.67,98.92ZM231.22,82.43h-.1l.09-.13Z" transform="translate(-80.97 -10.2)"/><path class="cls-3" d="M237.31,110.47a14.59,14.59,0,0,0,11.36-11.55,18.7,18.7,0,0,0,4.54-.43c9.73-2.15,15.84-11.47,13.62-20.87A17.05,17.05,0,0,0,264.38,72c.1.32.19.65.27,1a15.93,15.93,0,0,1-12.43,19,16.88,16.88,0,0,1-10.11-.9,14.71,14.71,0,0,1-11.53,17.32,15.77,15.77,0,0,1-2.76.35l-.87.34A15.21,15.21,0,0,0,237.31,110.47Z" transform="translate(-80.97 -10.2)"/><path class="cls-4" d="M391.23,159.19a15,15,0,0,0-29.68-3,15.05,15.05,0,0,0-29.88,2v.45h0v-.45c0-7.88-6.59-14.1-14.74-14.11a14.55,14.55,0,0,0-14.79,14.29v.23h0v-.45a15,15,0,0,0-30-.05v.45h0v-.23a14.78,14.78,0,0,0-29.54,0v.23h0V158a15,15,0,0,0-30-.05v.45h0v-.23a14.78,14.78,0,0,0-29.54,0v.23h0v-.45a15,15,0,0,0-30-.05v.45h0v-.23a14.72,14.72,0,0,0-29.43,0c0,1.06,16.17,248.34,19.68,302.08h0l.52,7.68.16,2.55,25.32,0v-.06h25.28v.09l24.85,0v-.09l25.32,0v.09l25.32,0v-.09l25.32,0v.09l25.32,0v-.09l25.32,0v.09l24.85,0v-.09h.09v-.14H371l12-186.09h0C387.4,218.28,391.23,159.74,391.23,159.19Z" transform="translate(-80.97 -10.2)"/><polygon class="cls-5" points="290.99 460.33 271.75 477.58 291.94 166.24 310.26 150.81 290.99 460.33"/><path class="cls-2" d="M311.13,129.12a17.86,17.86,0,0,0-4.59-9.49,19.17,19.17,0,0,0-26.49-1.43,17.79,17.79,0,0,0-3.44,23.09,22.82,22.82,0,0,0-7.88,4.47,21.58,21.58,0,0,0-2.39,30.42q.31.36.64.71a23.25,23.25,0,0,0,32.11,1.71,21.93,21.93,0,0,0,6.16-8.79,22.57,22.57,0,0,0,23.6-3.64,20.91,20.91,0,0,0,2.32-29.48q-.3-.35-.62-.69A22.41,22.41,0,0,0,311.13,129.12Z" transform="translate(-80.97 -10.2)"/><path class="cls-3" d="M330.51,136a22.41,22.41,0,0,0-19.35-6.91,17.86,17.86,0,0,0-4.59-9.49,19,19,0,0,0-15.77-6,25.21,25.21,0,0,1,8.17,5.88,24,24,0,0,1,6.24,19.6,25.63,25.63,0,0,1,19.42,8.15A24,24,0,0,1,331.08,164,20.87,20.87,0,0,0,330.51,136Z" transform="translate(-80.97 -10.2)"/><path class="cls-2" d="M233.19,196.41a19.22,19.22,0,0,0,10.81-.15,18,18,0,0,0,12.19-22.82,18.79,18.79,0,0,0-20.29-12.54,21.33,21.33,0,0,0-1-8.83c-3.79-11.6-16.57-18-28.54-14.34s-18.64,16.06-14.82,27.68a21.84,21.84,0,0,0,5.73,9.05A20.94,20.94,0,0,0,191,196.81c3.68,11.25,16.06,17.48,27.66,13.92A21.67,21.67,0,0,0,233.19,196.41Z" transform="translate(-80.97 -10.2)"/><path class="cls-3" d="M218.7,210.7a21.67,21.67,0,0,0,14.49-14.29,19.22,19.22,0,0,0,10.81-.15,18.46,18.46,0,0,0,12.11-11.51,25.47,25.47,0,0,1-8.89,4.8,25.94,25.94,0,0,1-21-2.56,25,25,0,0,1-15.65,13.81,26,26,0,0,1-18.33-1.15A22.26,22.26,0,0,0,218.7,210.7Z" transform="translate(-80.97 -10.2)"/><path class="cls-2" d="M168.74,138a22.34,22.34,0,0,0,.76-5.73c0-12.68-10.57-22.94-23.65-23-12.19,0-22.27,8.92-23.57,20.43a20,20,0,0,0-6-.92c-10.75,0-19.48,8.42-19.49,18.84s8.6,18.83,19.35,18.89a14.84,14.84,0,0,0,29.26-.14,19.62,19.62,0,0,0,15.82,7.93c10.75,0,19.48-8.42,19.49-18.84A18.87,18.87,0,0,0,168.74,138Zm-26.92,16.84V155l-.14-.15Z" transform="translate(-80.97 -10.2)"/><path class="cls-3" d="M180.72,155.45a18.87,18.87,0,0,0-12-17.45,22.34,22.34,0,0,0,.76-5.73c0-12.68-10.57-22.94-23.65-23a24.28,24.28,0,0,0-8.17,1.43c.45,0,.91,0,1.38,0,11.91,0,21.55,9.4,21.5,20.94a20.39,20.39,0,0,1-4.06,12.22c10.85.19,19.58,8.78,19.56,19.35a18.77,18.77,0,0,1-.34,3.53c.07.39.14.79.19,1.18A18.46,18.46,0,0,0,180.72,155.45Z" transform="translate(-80.97 -10.2)"/><path class="cls-2" d="M269.09,133.62a22.34,22.34,0,0,0,.76-5.73c0-12.68-10.57-22.94-23.65-23-12.19,0-22.27,8.92-23.57,20.43a20,20,0,0,0-6-.93c-10.75,0-19.48,8.42-19.49,18.84s8.6,18.83,19.35,18.89a14.84,14.84,0,0,0,29.26-.14,19.62,19.62,0,0,0,15.82,7.93c10.75,0,19.48-8.42,19.49-18.84A18.87,18.87,0,0,0,269.09,133.62Zm-26.92,16.83v.13l-.14-.15Z" transform="translate(-80.97 -10.2)"/><path class="cls-3" d="M281.06,151.07a18.87,18.87,0,0,0-12-17.45,22.34,22.34,0,0,0,.76-5.73c0-12.68-10.57-22.94-23.65-23a24.28,24.28,0,0,0-8.17,1.43c.45,0,.91,0,1.38,0,11.91,0,21.55,9.4,21.5,20.94a20.38,20.38,0,0,1-4.14,12.27c10.85.19,19.58,8.78,19.56,19.35a18.83,18.83,0,0,1-.34,3.53c.07.39.14.79.19,1.18A18.46,18.46,0,0,0,281.06,151.07Z" transform="translate(-80.97 -10.2)"/><path class="cls-2" d="M212.49,95.23a20.2,20.2,0,0,0,2-4.81,20.45,20.45,0,0,0-15.1-25,21.34,21.34,0,0,0-25.13,12.52,17.66,17.66,0,0,0-5-2.11,17.43,17.43,0,0,0-21.23,12,16.8,16.8,0,0,0,12.34,20.56,12.82,12.82,0,0,0,9.76,13.83,13.3,13.3,0,0,0,15.57-7.55A17.2,17.2,0,0,0,197.56,125a17.44,17.44,0,0,0,21.23-12A16.59,16.59,0,0,0,212.49,95.23Zm-27.19,8.67V104l-.09-.16Z" transform="translate(-80.97 -10.2)"/><path class="cls-3" d="M218.79,112.93a16.59,16.59,0,0,0-6.3-17.7,20.2,20.2,0,0,0,2-4.81,20.45,20.45,0,0,0-15.1-25,21.75,21.75,0,0,0-7.39-.58c.4.08.8.16,1.2.26a18.44,18.44,0,0,1,7.3,32.53,17.23,17.23,0,0,1,12.42,21,17,17,0,0,1-1.12,3,7.6,7.6,0,0,1-.11,1.07A16.82,16.82,0,0,0,218.79,112.93Z" transform="translate(-80.97 -10.2)"/><path class="cls-2" d="M368.1,138.44a15.7,15.7,0,0,0-7.59-9.5,16.49,16.49,0,0,0-22.07,5.85,15.25,15.25,0,0,0,0,15.48,22.34,22.34,0,0,0-9.32,8.65A21.72,21.72,0,0,0,337.57,189a23.1,23.1,0,0,0,31-8.22,21.58,21.58,0,0,0,2.61-6.9A19.72,19.72,0,0,0,393,165a18.56,18.56,0,0,0-6.63-25.39l-.65-.36A20,20,0,0,0,368.1,138.44Z" transform="translate(-80.97 -10.2)"/><path class="cls-3" d="M368.1,138.44a15.7,15.7,0,0,0-7.59-9.5,16.6,16.6,0,0,0-17.34.8,17.27,17.27,0,0,1,12.37,1.68,16.22,16.22,0,0,1,8.39,16.21,17.33,17.33,0,0,1,17.38-.38,16.1,16.1,0,0,1,6.59,21.79l-.3.53a16.49,16.49,0,0,1-1.67,2.33A19.07,19.07,0,0,0,393,165a18.56,18.56,0,0,0-6.62-25.4l-.64-.36A20,20,0,0,0,368.1,138.44Z" transform="translate(-80.97 -10.2)"/><path class="cls-2" d="M201.79,181.36a19.23,19.23,0,0,0,10.81-.15,18,18,0,0,0,12.19-22.82,18.79,18.79,0,0,0-20.29-12.54,21.34,21.34,0,0,0-1-8.83c-3.79-11.6-16.57-18-28.54-14.34s-18.64,16.06-14.82,27.68a21.84,21.84,0,0,0,5.73,9.05,20.94,20.94,0,0,0-6.29,22.35c3.68,11.25,16.06,17.48,27.66,13.92A21.67,21.67,0,0,0,201.79,181.36Z" transform="translate(-80.97 -10.2)"/><path class="cls-3" d="M187.31,195.65a21.67,21.67,0,0,0,14.47-14.29,19.23,19.23,0,0,0,10.81-.15A18.46,18.46,0,0,0,224.7,169.7a25.45,25.45,0,0,1-8.89,4.8,25.94,25.94,0,0,1-21-2.55,25,25,0,0,1-15.65,13.81,26,26,0,0,1-18.33-1.15A22.32,22.32,0,0,0,187.31,195.65Z" transform="translate(-80.97 -10.2)"/><g class="cls-6"><path class="cls-7" d="M376.17,171.42a15,15,0,0,0-29.68-3,15.05,15.05,0,0,0-29.88,2v.46h0v-.46c0-7.88-6.59-14.1-14.74-14.11a14.55,14.55,0,0,0-14.79,14.29v.23h0v-.45a15,15,0,0,0-30-.05v.46h0v-.23a14.78,14.78,0,0,0-29.54,0v.23h0v-.45a15,15,0,0,0-30-.05v.45h0v-.23a14.78,14.78,0,0,0-29.54,0v.23h0v-.45a15,15,0,0,0-30-.05v.45h0v-.23a14.71,14.71,0,0,0-29.42,0c0,1.06,16.17,248.35,19.68,302.08h0l.52,7.68.16,2.55,25.32,0v-.1l25.32,0v.09l24.85,0v-.09l25.32,0v.09l25.32,0v-.09l25.32,0v.09l25.32,0v-.09l25.32,0v.09l24.85,0v-.09h.09v-.14H356l12-186.09h0C372.33,230.5,376.17,172,376.17,171.42Z" transform="translate(-80.97 -10.2)"/></g><path class="cls-8" d="M343.37,175.93v-.45a15,15,0,0,0-30-.05v.45l-29.56,0v-.45a15,15,0,0,0-30-.05v.45H224.28v-.45a15,15,0,0,0-30,0v.45l-29.56,0v-.45a15,15,0,0,0-30-.05v.45l-29.05-.08,20.46,312,226.51.35,20-311.94Z" transform="translate(-80.97 -10.2)"/><path class="cls-9" d="M134.72,175.84v-.45a14.78,14.78,0,0,0-29.54,0c0,1.19,20.35,312.31,20.35,312.31l25.32,0Z" transform="translate(-80.97 -10.2)"/><path class="cls-9" d="M194.27,175.93v-.45a14.78,14.78,0,0,0-29.54,0c0,1,11.47,312.3,11.47,312.3l24.85,0Z" transform="translate(-80.97 -10.2)"/><path class="cls-9" d="M239.09,161.23a14.56,14.56,0,0,0-14.79,14.29V176l2.06,311.8,25.32,0s2.15-311.39,2.15-312.28A14.52,14.52,0,0,0,239.09,161.23Z" transform="translate(-80.97 -10.2)"/><path class="cls-9" d="M298.63,161.32a14.56,14.56,0,0,0-14.79,14.29v.45L277,487.86l25.32,0s11.06-311.48,11.06-312.52C313.39,167.52,306.79,161.33,298.63,161.32Z" transform="translate(-80.97 -10.2)"/><path class="cls-9" d="M372.92,176.43a15,15,0,0,0-30-.28L327.6,488l24.85,0S372.92,177.7,372.92,176.43Z" transform="translate(-80.97 -10.2)"/><g class="cls-6"><path class="cls-7" d="M332.82,328.88c-.06,36-42,65.16-93.66,65.08s-93.48-29.35-93.43-65.38,42-65.16,93.66-65.08S332.9,292.85,332.82,328.88Z" transform="translate(-80.97 -10.2)"/></g><path class="cls-10" d="M332.28,324.79c-.06,36-42,65.16-93.66,65.08s-93.5-29.35-93.44-65.37,42-65.16,93.66-65.08S332.35,288.76,332.28,324.79Z" transform="translate(-80.97 -10.2)"/><g class="cls-6"><path class="cls-7" d="M364.74,301.69S311.66,450.14,124.87,477.43l.67,10,227.17.35Z" transform="translate(-80.97 -10.2)"/></g><path class="cls-2" d="M334.13,131.91a15.48,15.48,0,0,0,4.51,7.88,16.53,16.53,0,0,0,22.87-.26,15.32,15.32,0,0,0,1.6-20.07,19.59,19.59,0,0,0,6.54-4.3,18.64,18.64,0,0,0,.21-26.36l-.54-.52a20.07,20.07,0,0,0-27.73.31,18.79,18.79,0,0,0-4.78,7.88,19.43,19.43,0,0,0-20.07,4.44,18,18,0,0,0-.33,25.49q.31.32.64.63A19.35,19.35,0,0,0,334.13,131.91Z" transform="translate(-80.97 -10.2)"/><path class="cls-3" d="M317.05,127a19.35,19.35,0,0,0,17.09,4.87,15.48,15.48,0,0,0,4.51,7.88A16.49,16.49,0,0,0,352.59,144a21.84,21.84,0,0,1-7.38-4.6A20.79,20.79,0,0,1,338.69,123a22.22,22.22,0,0,1-17.2-5.94A20.79,20.79,0,0,1,315,103,18,18,0,0,0,317.05,127Z" transform="translate(-80.97 -10.2)"/><path class="cls-2" d="M307,60.5a13.67,13.67,0,0,0,4.47,6.64,14.51,14.51,0,0,0,20-1.66,13.45,13.45,0,0,0,.06-17.66A17.06,17.06,0,0,0,337,43.66a16.34,16.34,0,0,0-1.52-23.05l-.55-.46a17.59,17.59,0,0,0-24.26,2A16.41,16.41,0,0,0,307,29.38a17,17,0,0,0-17.29,5.14,15.83,15.83,0,0,0,1.48,22.34l.53.44A17.07,17.07,0,0,0,307,60.5Z" transform="translate(-80.97 -10.2)"/><path class="cls-3" d="M291.73,57.3A17.07,17.07,0,0,0,307,60.5a13.67,13.67,0,0,0,4.47,6.64A14.51,14.51,0,0,0,324,70a19.35,19.35,0,0,1-6.77-3.58,18.31,18.31,0,0,1-6.81-14.06A19.55,19.55,0,0,1,295,48.25a18.36,18.36,0,0,1-6.65-11.83A15.83,15.83,0,0,0,291.73,57.3Z" transform="translate(-80.97 -10.2)"/><path class="cls-2" d="M157.47,60.61a18.64,18.64,0,0,0,4.54-.43c9.73-2.15,15.84-11.47,13.62-20.87A18,18,0,0,0,156,25.84a13.84,13.84,0,0,0-.3-4.47A14.84,14.84,0,0,0,138,10.55a14.34,14.34,0,0,0-11.22,17.1,10.84,10.84,0,0,0-7,12.57,11.2,11.2,0,0,0,12,8.43,14,14,0,0,0-3.42,12.71,14.84,14.84,0,0,0,17.73,10.82A14.59,14.59,0,0,0,157.47,60.61ZM140,44.12h-.1L140,44A.92.92,0,0,1,140,44.12Z" transform="translate(-80.97 -10.2)"/><path class="cls-3" d="M146.11,67.15A14.59,14.59,0,0,0,157.47,55.6a18.64,18.64,0,0,0,4.54-.43c9.73-2.15,15.84-11.47,13.62-20.87a17.07,17.07,0,0,0-2.45-5.63c.1.32.19.65.27,1a15.92,15.92,0,0,1-12.43,19,16.88,16.88,0,0,1-10.11-.9,14.71,14.71,0,0,1-11.53,17.32,15.77,15.77,0,0,1-2.76.35l-.87.34A15.22,15.22,0,0,0,146.11,67.15Z" transform="translate(-80.97 -10.2)"/><g class="cls-1"><text class="cls-11" transform="matrix(0.6, -0.8, 0.79, 0.62, 262.5, 369.33)">R</text><text class="cls-11" transform="matrix(0.6, -0.8, 0.79, 0.62, 267.3, 362.93)">OW</text></g><polygon class="cls-12" points="62.04 475.34 62.59 475.34 62.33 475.13 62.04 475.34"/><rect class="cls-12" x="137.19" y="473.17" width="2.16" height="2.16"/><path class="cls-13" d="M585.61,324.31A120.66,120.66,0,1,1,370,250,121.37,121.37,0,0,1,399.37,223q2.71-1.76,5.56-3.39h0a120.63,120.63,0,0,1,116.9-1.77c1.93,1,3.81,2.11,5.66,3.23A121.11,121.11,0,0,1,566,258.43a119.81,119.81,0,0,1,19.42,59.71C585.55,320.18,585.61,322.24,585.61,324.31Z" transform="translate(-80.97 -10.2)"/><path class="cls-14" d="M427,286.72a40.37,40.37,0,0,1-79.46,10A120.11,120.11,0,0,1,370,250a39.89,39.89,0,0,1,16.64-3.59A40.36,40.36,0,0,1,427,286.72Z" transform="translate(-80.97 -10.2)"/><path class="cls-15" d="M504.66,228.71A40.35,40.35,0,1,1,429,209.12a121.34,121.34,0,0,1,70.29-.48A40.06,40.06,0,0,1,504.66,228.71Z" transform="translate(-80.97 -10.2)"/><path class="cls-16" d="M585.45,318.14A40.37,40.37,0,1,1,566,258.43,119.81,119.81,0,0,1,585.45,318.14Z" transform="translate(-80.97 -10.2)"/><path class="cls-17" d="M564.51,389.92c0,.91,0,1.81-.1,2.69a121.14,121.14,0,0,1-41.64,37.6,40.32,40.32,0,1,1,41.74-40.29Z" transform="translate(-80.97 -10.2)"/><path class="cls-18" d="M433,384.8a40.33,40.33,0,0,1-34.81,40,121,121,0,0,1-43.91-52.46A40.35,40.35,0,0,1,433,384.8Z" transform="translate(-80.97 -10.2)"/><g class="cls-19"><path class="cls-20" d="M412.72,244.51l4.47-2.87,0,0h0l-.06,0a95.86,95.86,0,0,1,23.64-10.18,99.4,99.4,0,0,1,25.58-3.56A98,98,0,0,1,516,241.11a99,99,0,0,1,36.1,36.46,95.72,95.72,0,0,1,12.48,49.51,101.55,101.55,0,0,0-3.79-25.31,97.22,97.22,0,0,0-10-23.44,101.66,101.66,0,0,0-15.61-20.08,99.11,99.11,0,0,0-68.76-28.73,99.61,99.61,0,0,0-49.09,12.33l0,0h0l.06,0Z" transform="translate(-80.97 -10.2)"/></g><g class="cls-19"><path class="cls-20" d="M417.34,252.83c1.32-.89,2.63-1.8,4-2.67l0,0h.08l-.11,0A81.4,81.4,0,0,1,443,240.65a85,85,0,0,1,47,.64,81.08,81.08,0,0,1,21.32,10.13,100.72,100.72,0,0,0-21.74-8.67,94.3,94.3,0,0,0-23.05-3.11,93,93,0,0,0-23.1,2.64,95.94,95.94,0,0,0-21.85,8.25l-.06,0h-.06l.11,0C420.14,251.32,418.74,252.07,417.34,252.83Z" transform="translate(-80.97 -10.2)"/></g><path class="cls-21" d="M465,150.8A173.5,173.5,0,1,0,638.47,324.3,173.5,173.5,0,0,0,465,150.8ZM319.89,277.16a47.61,47.61,0,1,1,30.57,60A47.62,47.62,0,0,1,319.89,277.16Zm44.89,104.05a47.61,47.61,0,1,1,10.52,66.51A47.61,47.61,0,0,1,364.77,381.21Zm97.76-114.29c-.41,0-.81,0-1.22-.08s-.8-.06-1.2-.11-.8-.08-1.2-.14-.93-.11-1.38-.19-1-.17-1.55-.27c-.7-.13-1.38-.27-2.08-.45-1.2-.29-2.38-.62-3.54-1s-2.33-.81-3.46-1.27a49.36,49.36,0,0,1-5-2.39c-.54-.3-1.06-.61-1.59-.92l0,0q-.77-.46-1.51-1c-.51-.33-1-.69-1.52-1s-1-.7-1.43-1.06a42.5,42.5,0,0,1-3.7-3.19c-.29-.25-.56-.52-.82-.8-.55-.54-1.07-1.09-1.58-1.66s-.93-1-1.35-1.55a46.6,46.6,0,0,1-6.59-10.41c-.38-.81-.73-1.65-1.06-2.48l-.1-.26c-.33-.85-.64-1.7-.92-2.58-.19-.62-.39-1.22-.56-1.84l-.07-.27c-.15-.51-.29-1-.41-1.57-.16-.68-.31-1.38-.43-2.07-.09-.41-.16-.81-.23-1.22-.18-1.08-.32-2.18-.42-3.27-.07-.65-.11-1.3-.15-2v-.13c0-.39,0-.78,0-1.17,0,0,0,0,0,0,0-.8,0-1.61,0-2.41,0-.41,0-.82,0-1.22,0-.65.08-1.3.14-1.94,0-.3.06-.58.09-.88a4.87,4.87,0,0,1,.07-.55c0-.48.12-1,.2-1.43l0-.21c.07-.49.16-1,.25-1.45l.14-.69c.1-.5.21-1,.33-1.5.29-1.2.62-2.39,1-3.55.2-.58.39-1.15.6-1.73h0c.21-.58.43-1.15.66-1.72s.42-1,.64-1.5a1.41,1.41,0,0,0,.09-.19c.26-.56.52-1.11.8-1.66s.56-1.09.86-1.62.61-1.06.92-1.59c.2-.34.41-.67.62-1l.13-.19.43-.66.07-.1c.25-.38.51-.74.78-1.11s.62-.86.94-1.27.67-.87,1-1.29.48-.58.74-.87c.48-.57,1-1.14,1.53-1.69.25-.29.53-.56.8-.82a38.87,38.87,0,0,1,3.38-3.07,10.31,10.31,0,0,1,.89-.72c.59-.48,1.2-.94,1.83-1.37a43.45,43.45,0,0,1,3.86-2.48l.42-.23c.37-.22.73-.41,1.11-.61l.5-.26c.49-.25,1-.49,1.5-.73s1-.47,1.57-.7l.39-.16c1.14-.47,2.31-.9,3.51-1.29s2.44-.74,3.68-1l.29-.07,1.48-.32.17,0q.69-.14,1.37-.24c.55-.09,1.11-.17,1.66-.24,1.2-.16,2.4-.28,3.6-.33h0c.39,0,.79,0,1.19,0,0,0,0,0,0,0q1.22,0,2.43,0c.4,0,.8,0,1.19,0s.83,0,1.25.08.8.06,1.2.11.8.08,1.2.14l.2,0c.39,0,.79.1,1.18.17.55.08,1.11.18,1.66.29l.5.1,1.47.33c1.2.29,2.38.62,3.54,1s2.33.81,3.46,1.27a50.13,50.13,0,0,1,5,2.39c.54.3,1.06.61,1.59.93l0,0q.77.46,1.51,1c.51.33,1,.69,1.52,1s1,.7,1.43,1.06a42.29,42.29,0,0,1,3.7,3.19c.29.25.56.52.82.8.55.54,1.07,1.09,1.58,1.66s.93,1,1.35,1.55a46.64,46.64,0,0,1,6.59,10.41c.38.82.73,1.66,1.07,2.5,0,.07.06.15.09.23.33.85.64,1.71.93,2.59.19.62.39,1.22.56,1.84s.33,1.22.48,1.84.31,1.38.43,2.07c.09.41.16.81.23,1.22.18,1.08.32,2.18.42,3.27.07.65.11,1.3.15,2V217c0,.39,0,.78,0,1.16,0,0,0,0,0,0,0,.8,0,1.61,0,2.41,0,.41,0,.82,0,1.22,0,.65-.08,1.3-.14,1.94,0,.3-.06.58-.09.88-.08.73-.17,1.46-.3,2.18-.07.49-.16,1-.25,1.45l-.14.69c-.1.55-.23,1.08-.37,1.63-.27,1.15-.61,2.3-1,3.42-.19.58-.39,1.15-.59,1.73h0c-.21.58-.43,1.15-.66,1.71s-.42,1-.64,1.5a1.26,1.26,0,0,0-.09.19c-.26.56-.53,1.11-.8,1.66s-.56,1.09-.86,1.62-.61,1.06-.93,1.59c-.19.34-.41.67-.62,1l-.12.19-.43.66-.07.1c-.25.38-.51.74-.78,1.11s-.62.86-.94,1.27-.67.87-1,1.29-.48.58-.74.87c-.48.57-1,1.14-1.53,1.69-.25.29-.53.56-.8.82a39.08,39.08,0,0,1-3.38,3.07,10.11,10.11,0,0,1-.89.72c-.59.48-1.2.94-1.83,1.37s-1.24.88-1.9,1.28-1.3.81-2,1.2l-.42.23c-.45.25-.89.5-1.35.74l-.25.12c-.49.25-1,.49-1.51.73s-1.09.49-1.63.73a.56.56,0,0,0-.15.06c-1.2.5-2.42.95-3.68,1.36s-2.45.74-3.68,1c-.61.15-1.22.27-1.84.4s-1.07.21-1.6.29-1,.16-1.52.22-.8.1-1.2.14c-.78.09-1.55.15-2.33.18h-.14c-.38,0-.75,0-1.14,0a.1.1,0,0,1-.08,0c-.8,0-1.61,0-2.41,0C463.33,267,462.93,266.95,462.53,266.92ZM565.16,381.21a47.61,47.61,0,1,1-66.5-10.54A47.61,47.61,0,0,1,565.16,381.21Zm-45.67-74.63a47.61,47.61,0,1,1,60,30.57A47.61,47.61,0,0,1,519.49,306.59Z" transform="translate(-80.97 -10.2)"/><path class="cls-22" d="M465,158.8A165.5,165.5,0,1,0,630.47,324.3,165.5,165.5,0,0,0,465,158.8ZM319.89,277.16a47.61,47.61,0,1,1,30.57,60A47.62,47.62,0,0,1,319.89,277.16Zm121.91,160a47.61,47.61,0,1,1-10.52-66.51A47.6,47.6,0,0,1,441.8,437.18Zm32.36-171.09c-.54.1-1.07.21-1.6.29s-1,.16-1.52.22-.8.1-1.2.14c-.78.09-1.55.15-2.33.18h-.14c-.38,0-.75,0-1.14,0a.1.1,0,0,1-.08,0c-.8,0-1.61,0-2.41,0-.41,0-.81,0-1.21,0s-.81,0-1.22-.08-.8-.06-1.2-.11-.8-.08-1.2-.14-.93-.11-1.38-.19-1-.17-1.55-.27c-.7-.13-1.38-.27-2.08-.45-1.2-.29-2.38-.62-3.54-1s-2.33-.81-3.46-1.27a49.36,49.36,0,0,1-5-2.39c-.54-.3-1.06-.61-1.59-.92l0,0q-.77-.46-1.51-1c-.51-.33-1-.69-1.52-1s-1-.7-1.43-1.06a42.5,42.5,0,0,1-3.7-3.19c-.29-.25-.56-.52-.82-.8-.55-.54-1.07-1.09-1.58-1.66s-.93-1-1.35-1.55a46.6,46.6,0,0,1-6.59-10.41c-.38-.81-.73-1.65-1.06-2.48l-.1-.26c-.33-.85-.64-1.7-.92-2.58-.19-.62-.39-1.22-.56-1.84l-.07-.27c-.15-.51-.29-1-.41-1.57-.16-.68-.31-1.38-.43-2.07-.09-.41-.16-.81-.23-1.22-.18-1.08-.32-2.18-.42-3.27-.07-.65-.11-1.3-.15-2v-.13c0-.39,0-.78,0-1.17,0,0,0,0,0,0,0-.8,0-1.61,0-2.41,0-.41,0-.82,0-1.22,0-.65.08-1.3.14-1.94,0-.3.06-.58.09-.88a4.87,4.87,0,0,1,.07-.55c0-.48.12-1,.2-1.43l0-.21c.07-.49.16-1,.25-1.45l.14-.69c.1-.5.21-1,.33-1.5.29-1.2.62-2.39,1-3.55.2-.58.39-1.15.6-1.73h0c.21-.58.43-1.15.66-1.72s.42-1,.64-1.5a1.41,1.41,0,0,0,.09-.19c.26-.56.52-1.11.8-1.66s.56-1.09.86-1.62.61-1.06.92-1.59c.2-.34.41-.67.62-1l.13-.19.43-.66.07-.1c.25-.38.51-.74.78-1.11s.62-.86.94-1.27.67-.87,1-1.29.48-.58.74-.87c.48-.57,1-1.14,1.53-1.69.25-.29.53-.56.8-.82a38.87,38.87,0,0,1,3.38-3.07,10.31,10.31,0,0,1,.89-.72c.59-.48,1.2-.94,1.83-1.37a43.45,43.45,0,0,1,3.86-2.48l.42-.23c.37-.22.73-.41,1.11-.61l.5-.26c.49-.25,1-.49,1.5-.73s1-.47,1.57-.7l.39-.16c1.14-.47,2.31-.9,3.51-1.29s2.44-.74,3.68-1l.29-.07,1.48-.32.17,0q.69-.14,1.37-.24c.55-.09,1.11-.17,1.66-.24,1.2-.16,2.4-.28,3.6-.33h0c.39,0,.79,0,1.19,0,0,0,0,0,0,0q1.22,0,2.43,0c.4,0,.8,0,1.19,0s.83,0,1.25.08.8.06,1.2.11.8.08,1.2.14l.2,0c.39,0,.79.1,1.18.17.55.08,1.11.18,1.66.29l.5.1,1.47.33c1.2.29,2.38.62,3.54,1s2.33.81,3.46,1.27a50.13,50.13,0,0,1,5,2.39c.54.3,1.06.61,1.59.93l0,0q.77.46,1.51,1c.51.33,1,.69,1.52,1s1,.7,1.43,1.06a42.29,42.29,0,0,1,3.7,3.19c.29.25.56.52.82.8.55.54,1.07,1.09,1.58,1.66s.93,1,1.35,1.55a46.64,46.64,0,0,1,6.59,10.41c.38.82.73,1.66,1.07,2.5,0,.07.06.15.09.23.33.85.64,1.71.93,2.59.19.62.39,1.22.56,1.84s.33,1.22.48,1.84.31,1.38.43,2.07c.09.41.16.81.23,1.22.18,1.08.32,2.18.42,3.27.07.65.11,1.3.15,2V217c0,.39,0,.78,0,1.16,0,0,0,0,0,0,0,.8,0,1.61,0,2.41,0,.41,0,.82,0,1.22,0,.65-.08,1.3-.14,1.94,0,.3-.06.58-.09.88-.08.73-.17,1.46-.3,2.18-.07.49-.16,1-.25,1.45l-.14.69c-.1.55-.23,1.08-.37,1.63-.27,1.15-.61,2.3-1,3.42-.19.58-.39,1.15-.59,1.73h0c-.21.58-.43,1.15-.66,1.71s-.42,1-.64,1.5a1.26,1.26,0,0,0-.09.19c-.26.56-.53,1.11-.8,1.66s-.56,1.09-.86,1.62-.61,1.06-.93,1.59c-.19.34-.41.67-.62,1l-.12.19-.43.66-.07.1c-.25.38-.51.74-.78,1.11s-.62.86-.94,1.27-.67.87-1,1.29-.48.58-.74.87c-.48.57-1,1.14-1.53,1.69-.25.29-.53.56-.8.82a39.08,39.08,0,0,1-3.38,3.07,10.11,10.11,0,0,1-.89.72c-.59.48-1.2.94-1.83,1.37s-1.24.88-1.9,1.28-1.3.81-2,1.2l-.42.23c-.45.25-.89.5-1.35.74l-.25.12c-.49.25-1,.49-1.51.73s-1.09.49-1.63.73a.56.56,0,0,0-.15.06c-1.2.5-2.42.95-3.68,1.36s-2.45.74-3.68,1C475.4,265.84,474.78,266,474.16,266.09Zm80.48,181.63a47.62,47.62,0,1,1,10.52-66.51A47.6,47.6,0,0,1,554.64,447.72Zm24.84-110.57a47.61,47.61,0,1,1,30.57-60A47.6,47.6,0,0,1,579.48,337.15Z" transform="translate(-80.97 -10.2)"/><g class="cls-23"><path class="cls-24" d="M465,158.8A165.5,165.5,0,1,0,630.47,324.3,165.5,165.5,0,0,0,465,158.8ZM319.89,277.16a47.61,47.61,0,1,1,30.57,60A47.62,47.62,0,0,1,319.89,277.16Zm121.91,160a47.61,47.61,0,1,1-10.52-66.51A47.6,47.6,0,0,1,441.8,437.18Zm32.36-171.09c-.54.1-1.07.21-1.6.29s-1,.16-1.52.22-.8.1-1.2.14c-.78.09-1.55.15-2.33.18h-.14c-.38,0-.75,0-1.14,0a.1.1,0,0,1-.08,0c-.8,0-1.61,0-2.41,0-.41,0-.81,0-1.21,0s-.81,0-1.22-.08-.8-.06-1.2-.11-.8-.08-1.2-.14-.93-.11-1.38-.19-1-.17-1.55-.27c-.7-.13-1.38-.27-2.08-.45-1.2-.29-2.38-.62-3.54-1s-2.33-.81-3.46-1.27a49.36,49.36,0,0,1-5-2.39c-.54-.3-1.06-.61-1.59-.92l0,0q-.77-.46-1.51-1c-.51-.33-1-.69-1.52-1s-1-.7-1.43-1.06a42.5,42.5,0,0,1-3.7-3.19c-.29-.25-.56-.52-.82-.8-.55-.54-1.07-1.09-1.58-1.66s-.93-1-1.35-1.55a46.6,46.6,0,0,1-6.59-10.41c-.38-.81-.73-1.65-1.06-2.48l-.1-.26c-.33-.85-.64-1.7-.92-2.58-.19-.62-.39-1.22-.56-1.84l-.07-.27c-.15-.51-.29-1-.41-1.57-.16-.68-.31-1.38-.43-2.07-.09-.41-.16-.81-.23-1.22-.18-1.08-.32-2.18-.42-3.27-.07-.65-.11-1.3-.15-2v-.13c0-.39,0-.78,0-1.17,0,0,0,0,0,0,0-.8,0-1.61,0-2.41,0-.41,0-.82,0-1.22,0-.65.08-1.3.14-1.94,0-.3.06-.58.09-.88a4.87,4.87,0,0,1,.07-.55c0-.48.12-1,.2-1.43l0-.21c.07-.49.16-1,.25-1.45l.14-.69c.1-.5.21-1,.33-1.5.29-1.2.62-2.39,1-3.55.2-.58.39-1.15.6-1.73h0c.21-.58.43-1.15.66-1.72s.42-1,.64-1.5a1.41,1.41,0,0,0,.09-.19c.26-.56.52-1.11.8-1.66s.56-1.09.86-1.62.61-1.06.92-1.59c.2-.34.41-.67.62-1l.13-.19.43-.66.07-.1c.25-.38.51-.74.78-1.11s.62-.86.94-1.27.67-.87,1-1.29.48-.58.74-.87c.48-.57,1-1.14,1.53-1.69.25-.29.53-.56.8-.82a38.87,38.87,0,0,1,3.38-3.07,10.31,10.31,0,0,1,.89-.72c.59-.48,1.2-.94,1.83-1.37a43.45,43.45,0,0,1,3.86-2.48l.42-.23c.37-.22.73-.41,1.11-.61l.5-.26c.49-.25,1-.49,1.5-.73s1-.47,1.57-.7l.39-.16c1.14-.47,2.31-.9,3.51-1.29s2.44-.74,3.68-1l.29-.07,1.48-.32.17,0q.69-.14,1.37-.24c.55-.09,1.11-.17,1.66-.24,1.2-.16,2.4-.28,3.6-.33h0c.39,0,.79,0,1.19,0,0,0,0,0,0,0q1.22,0,2.43,0c.4,0,.8,0,1.19,0s.83,0,1.25.08.8.06,1.2.11.8.08,1.2.14l.2,0c.39,0,.79.1,1.18.17.55.08,1.11.18,1.66.29l.5.1,1.47.33c1.2.29,2.38.62,3.54,1s2.33.81,3.46,1.27a50.13,50.13,0,0,1,5,2.39c.54.3,1.06.61,1.59.93l0,0q.77.46,1.51,1c.51.33,1,.69,1.52,1s1,.7,1.43,1.06a42.29,42.29,0,0,1,3.7,3.19c.29.25.56.52.82.8.55.54,1.07,1.09,1.58,1.66s.93,1,1.35,1.55a46.64,46.64,0,0,1,6.59,10.41c.38.82.73,1.66,1.07,2.5,0,.07.06.15.09.23.33.85.64,1.71.93,2.59.19.62.39,1.22.56,1.84s.33,1.22.48,1.84.31,1.38.43,2.07c.09.41.16.81.23,1.22.18,1.08.32,2.18.42,3.27.07.65.11,1.3.15,2V217c0,.39,0,.78,0,1.16,0,0,0,0,0,0,0,.8,0,1.61,0,2.41,0,.41,0,.82,0,1.22,0,.65-.08,1.3-.14,1.94,0,.3-.06.58-.09.88-.08.73-.17,1.46-.3,2.18-.07.49-.16,1-.25,1.45l-.14.69c-.1.55-.23,1.08-.37,1.63-.27,1.15-.61,2.3-1,3.42-.19.58-.39,1.15-.59,1.73h0c-.21.58-.43,1.15-.66,1.71s-.42,1-.64,1.5a1.26,1.26,0,0,0-.09.19c-.26.56-.53,1.11-.8,1.66s-.56,1.09-.86,1.62-.61,1.06-.93,1.59c-.19.34-.41.67-.62,1l-.12.19-.43.66-.07.1c-.25.38-.51.74-.78,1.11s-.62.86-.94,1.27-.67.87-1,1.29-.48.58-.74.87c-.48.57-1,1.14-1.53,1.69-.25.29-.53.56-.8.82a39.08,39.08,0,0,1-3.38,3.07,10.11,10.11,0,0,1-.89.72c-.59.48-1.2.94-1.83,1.37s-1.24.88-1.9,1.28-1.3.81-2,1.2l-.42.23c-.45.25-.89.5-1.35.74l-.25.12c-.49.25-1,.49-1.51.73s-1.09.49-1.63.73a.56.56,0,0,0-.15.06c-1.2.5-2.42.95-3.68,1.36s-2.45.74-3.68,1C475.4,265.84,474.78,266,474.16,266.09Zm80.48,181.63a47.62,47.62,0,1,1,10.52-66.51A47.6,47.6,0,0,1,554.64,447.72Zm24.84-110.57a47.61,47.61,0,1,1,30.57-60A47.6,47.6,0,0,1,579.48,337.15Z" transform="translate(-80.97 -10.2)"/></g><path class="cls-21" d="M465,166.8a52.56,52.56,0,1,0,50.74,66.32,52,52,0,0,0,1.83-13.76A52.56,52.56,0,0,0,465,166.8ZM510.28,234c-.18.58-.38,1.15-.59,1.73h0c-.2.58-.42,1.15-.66,1.71s-.41,1-.64,1.5a1.26,1.26,0,0,0-.09.19c-.25.56-.51,1.11-.8,1.66s-.55,1.09-.86,1.62-.6,1.06-.93,1.59c-.19.34-.4.67-.62,1l-.12.19c-.14.23-.29.45-.43.66l-.07.1c-.25.38-.51.74-.78,1.11s-.62.86-.94,1.27-.67.87-1,1.29-.49.58-.74.87c-.48.57-1,1.14-1.53,1.69-.26.29-.53.55-.8.82-1.07,1.07-2.21,2.1-3.38,3.07l-.89.72c-.59.47-1.21.93-1.83,1.37s-1.24.88-1.9,1.28-1.3.81-2,1.2l-.42.23c-.45.25-.89.5-1.35.74l-.25.12c-.5.25-1,.5-1.51.73s-1.09.5-1.63.73a.56.56,0,0,0-.15.06,46.15,46.15,0,0,1-7.36,2.4c-.61.15-1.22.29-1.84.4s-1.06.21-1.6.29-1,.16-1.52.22-.8.1-1.2.14c-.76.08-1.54.15-2.33.18h-.14l-1.14,0a.1.1,0,0,1-.08,0c-.8,0-1.61,0-2.41,0l-1.21,0c-.41,0-.81,0-1.22-.08l-1.2-.11q-.6-.05-1.2-.14c-.46,0-.93-.11-1.38-.19s-1-.17-1.55-.27c-.7-.13-1.38-.27-2.08-.45-1.2-.29-2.39-.62-3.54-1s-2.33-.8-3.46-1.27a44.88,44.88,0,0,1-5-2.39c-.54-.29-1.06-.59-1.59-.92l0,0q-.77-.46-1.51-1c-.51-.33-1-.67-1.52-1s-1-.7-1.43-1.06a42.5,42.5,0,0,1-3.7-3.19c-.29-.26-.55-.52-.82-.8-.54-.54-1.06-1.09-1.58-1.66s-.93-1-1.35-1.55a46.6,46.6,0,0,1-6.59-10.41,45.11,45.11,0,0,1-2.65-7.16,2,2,0,0,1-.08-.27c-.15-.51-.29-1-.4-1.57-.16-.68-.31-1.38-.43-2.07-.09-.4-.16-.81-.23-1.22-.18-1.08-.32-2.18-.42-3.27-.06-.64-.1-1.29-.15-2v-.13c0-.39,0-.76,0-1.17,0,0,0,0,0,0,0-.8,0-1.61,0-2.41,0-.41,0-.82,0-1.22,0-.65.08-1.3.14-1.94,0-.3.06-.59.09-.88a4.87,4.87,0,0,1,.07-.55c.06-.48.13-1,.2-1.43l0-.21c.07-.49.16-1,.25-1.45,0-.24.09-.46.14-.69.1-.5.21-1,.33-1.5.29-1.2.62-2.39,1-3.55.18-.58.38-1.15.6-1.73h0c.19-.58.42-1.15.66-1.72s.41-1,.64-1.5a1.41,1.41,0,0,0,.09-.19c.25-.56.51-1.11.8-1.66s.55-1.09.86-1.62.59-1.06.92-1.59c.2-.34.4-.67.62-1l.13-.19c.14-.23.29-.45.43-.66l.07-.1c.25-.38.51-.74.78-1.11s.62-.86.94-1.27.67-.87,1-1.29.49-.58.74-.87c.48-.57,1-1.14,1.53-1.69.26-.29.53-.55.8-.82,1.07-1.07,2.2-2.1,3.38-3.07l.89-.72c.59-.48,1.2-.94,1.83-1.37,1.25-.88,2.54-1.71,3.86-2.48l.42-.23c.37-.21.73-.41,1.11-.61l.5-.26c.49-.25,1-.49,1.5-.73s1-.48,1.57-.7l.39-.16c1.14-.48,2.31-.91,3.51-1.29s2.43-.74,3.68-1l.29-.07,1.48-.32.17,0q.69-.14,1.37-.24c.55-.09,1.11-.17,1.66-.24,1.19-.16,2.39-.26,3.6-.33h0l1.19,0s0,0,0,0q1.22,0,2.43,0l1.19,0c.41,0,.83,0,1.25.08l1.2.11q.6.05,1.2.14l.2,0c.39,0,.79.1,1.18.17.55.08,1.11.18,1.66.29l.5.1c.49.1,1,.21,1.47.33,1.2.27,2.39.61,3.54,1a36.69,36.69,0,0,1,3.46,1.27,45.51,45.51,0,0,1,5,2.39c.54.29,1.07.6,1.59.93l0,0q.77.46,1.51,1c.51.33,1,.67,1.52,1s1,.7,1.43,1.06a42.29,42.29,0,0,1,3.7,3.19c.29.26.55.52.82.8.55.54,1.07,1.09,1.58,1.66s.91,1,1.35,1.55a46.64,46.64,0,0,1,6.59,10.41,45.27,45.27,0,0,1,2.65,7.17c.18.61.34,1.22.48,1.84s.31,1.38.43,2.07c.09.4.16.81.23,1.22.18,1.08.32,2.18.42,3.27.07.65.11,1.3.15,2V217c0,.39,0,.76,0,1.16,0,0,0,0,0,0,0,.8,0,1.61,0,2.41,0,.41,0,.82,0,1.22,0,.65-.08,1.3-.14,1.94,0,.3-.06.59-.09.88-.08.73-.17,1.46-.3,2.18-.07.49-.16,1-.25,1.45,0,.24-.09.46-.14.69-.1.55-.23,1.08-.37,1.63C511,231.74,510.65,232.88,510.28,234Z" transform="translate(-80.97 -10.2)"/><path class="cls-21" d="M381.41,241.89a52.57,52.57,0,1,0,33.74,66.23A52.56,52.56,0,0,0,381.41,241.89Zm29,64.7a47.61,47.61,0,1,1-30.57-60A47.6,47.6,0,0,1,410.45,306.59Z" transform="translate(-80.97 -10.2)"/><path class="cls-21" d="M434.18,366.68a52.56,52.56,0,1,0,11.63,73.42A52.56,52.56,0,0,0,434.18,366.68Zm7.62,70.5a47.61,47.61,0,1,1-10.52-66.51A47.6,47.6,0,0,1,441.8,437.18Z" transform="translate(-80.97 -10.2)"/><path class="cls-21" d="M569.18,378.3a52.57,52.57,0,1,0-11.63,73.43A52.55,52.55,0,0,0,569.18,378.3Zm-14.54,69.42a47.62,47.62,0,1,1,10.52-66.51A47.6,47.6,0,0,1,554.64,447.72Z" transform="translate(-80.97 -10.2)"/><path class="cls-21" d="M614.76,275.63A52.56,52.56,0,1,0,581,341.86,52.56,52.56,0,0,0,614.76,275.63Zm-35.28,61.52a47.61,47.61,0,1,1,30.57-60A47.6,47.6,0,0,1,579.48,337.15Z" transform="translate(-80.97 -10.2)"/><path class="cls-21" d="M417.37,220.55c0-.39,0-.79,0-1.19s0-.82,0-1.22C417.34,218.94,417.34,219.75,417.37,220.55Z" transform="translate(-80.97 -10.2)"/><path class="cls-21" d="M434.68,182.63c-1.18,1-2.31,2-3.38,3.07A38.87,38.87,0,0,1,434.68,182.63Z" transform="translate(-80.97 -10.2)"/><path class="cls-21" d="M441.26,178.06c-1.33.76-2.62,1.6-3.86,2.48A43.45,43.45,0,0,1,441.26,178.06Z" transform="translate(-80.97 -10.2)"/><path class="cls-21" d="M462.51,171.81c-1.21.07-2.41.17-3.6.33C460.11,172,461.31,171.86,462.51,171.81Z" transform="translate(-80.97 -10.2)"/><path class="cls-21" d="M466.21,171.76q-1.22,0-2.43,0h2.43Z" transform="translate(-80.97 -10.2)"/><path class="cls-21" d="M512.58,219.36c0,.41,0,.82,0,1.22,0-.8,0-1.61,0-2.41C512.58,218.57,512.58,219,512.58,219.36Z" transform="translate(-80.97 -10.2)"/><g class="cls-23"><path class="cls-25" d="M630.19,324.34a166.32,166.32,0,0,1-48,117.07,164.24,164.24,0,0,1-180.41,35.84,167.24,167.24,0,0,1-89.42-89.64,165.29,165.29,0,1,1,317.8-63.28Zm-.2,0a163.11,163.11,0,0,0-48.67-116.16,164.48,164.48,0,0,0-253,207.62,162.32,162.32,0,0,0,20.5,24.93,165.08,165.08,0,0,0,148.4,44.53,168.14,168.14,0,0,0,30.78-9.32,165.4,165.4,0,0,0,89.36-88.58A164,164,0,0,0,630,324.34Z" transform="translate(-80.97 -10.2)"/></g><circle class="cls-26" cx="383.33" cy="314.11" r="173.5"/><g class="cls-23"><path class="cls-27" d="M412.45,219.35A51.9,51.9,0,0,1,416,199.06a52.7,52.7,0,0,1,98,0,51.9,51.9,0,0,1,3.55,20.29,52.95,52.95,0,0,0-32.78-47.7,52.7,52.7,0,0,0-39.51,0,52.93,52.93,0,0,0-32.78,47.7Z" transform="translate(-80.97 -10.2)"/></g><g class="cls-23"><path class="cls-28" d="M512,291.84a51.9,51.9,0,0,1,3.55-20.29,52.7,52.7,0,0,1,98,0,51.9,51.9,0,0,1,3.55,20.29,52.94,52.94,0,0,0-32.78-47.7,52.71,52.71,0,0,0-39.51,0A52.93,52.93,0,0,0,512,291.84Z" transform="translate(-80.97 -10.2)"/></g><g class="cls-23"><path class="cls-29" d="M511.88,290.24a55.69,55.69,0,0,0,3.4,20,53.36,53.36,0,0,0,10.32,17.15,52.08,52.08,0,0,0,71.89,5.44,53.35,53.35,0,0,0,12.78-15.4,55.72,55.72,0,0,0,6.38-19.3A50.19,50.19,0,0,1,612,318.35a52.18,52.18,0,0,1-12.5,16.88,53,53,0,0,1-18.28,10.68,53.12,53.12,0,0,1-41.54-3.15,53,53,0,0,1-16.46-13.31,52.18,52.18,0,0,1-9.82-18.57A50.21,50.21,0,0,1,511.88,290.24Z" transform="translate(-80.97 -10.2)"/></g><g class="cls-23"><path class="cls-30" d="M412.66,218.11a55.69,55.69,0,0,0,3.4,20,53.35,53.35,0,0,0,10.32,17.15,52.09,52.09,0,0,0,71.89,5.44,53.35,53.35,0,0,0,12.78-15.4,55.72,55.72,0,0,0,6.38-19.3,50.19,50.19,0,0,1-4.63,20.19,52.18,52.18,0,0,1-12.5,16.88A53,53,0,0,1,482,273.79a53.12,53.12,0,0,1-41.54-3.15A53,53,0,0,1,424,257.33a52.17,52.17,0,0,1-9.82-18.57A50.21,50.21,0,0,1,412.66,218.11Z" transform="translate(-80.97 -10.2)"/></g><g class="cls-23"><path class="cls-31" d="M311.71,290.7a55.69,55.69,0,0,0,3.4,20,53.36,53.36,0,0,0,10.32,17.15,52.09,52.09,0,0,0,71.89,5.44,53.35,53.35,0,0,0,12.78-15.4,55.72,55.72,0,0,0,6.38-19.3,50.19,50.19,0,0,1-4.63,20.19,52.18,52.18,0,0,1-12.5,16.88,53,53,0,0,1-18.28,10.68,53.12,53.12,0,0,1-41.54-3.15,53,53,0,0,1-16.46-13.31,52.18,52.18,0,0,1-9.82-18.56A50.21,50.21,0,0,1,311.71,290.7Z" transform="translate(-80.97 -10.2)"/></g><g class="cls-23"><path class="cls-32" d="M349.82,408.06a55.69,55.69,0,0,0,3.4,20,53.36,53.36,0,0,0,10.32,17.15,52.09,52.09,0,0,0,71.89,5.44,53.35,53.35,0,0,0,12.78-15.4A55.71,55.71,0,0,0,454.6,416,50.18,50.18,0,0,1,450,436.18a52.17,52.17,0,0,1-12.5,16.88,53,53,0,0,1-18.28,10.68,53.12,53.12,0,0,1-41.54-3.15,53,53,0,0,1-16.46-13.31,52.17,52.17,0,0,1-9.82-18.57A50.21,50.21,0,0,1,349.82,408.06Z" transform="translate(-80.97 -10.2)"/></g><g class="cls-23"><path class="cls-33" d="M474.34,407.55a55.69,55.69,0,0,0,3.4,20,53.36,53.36,0,0,0,10.32,17.15A52.08,52.08,0,0,0,560,450.18a53.35,53.35,0,0,0,12.78-15.4,55.72,55.72,0,0,0,6.38-19.3,50.19,50.19,0,0,1-4.63,20.19A52.18,52.18,0,0,1,562,452.54a53,53,0,0,1-18.28,10.68,53.12,53.12,0,0,1-41.54-3.15,53,53,0,0,1-16.46-13.31,52.18,52.18,0,0,1-9.82-18.57A50.21,50.21,0,0,1,474.34,407.55Z" transform="translate(-80.97 -10.2)"/></g><g class="cls-23"><path class="cls-34" d="M312.62,293a51.9,51.9,0,0,1,3.55-20.29,52.7,52.7,0,0,1,98,0A51.9,51.9,0,0,1,417.71,293a52.94,52.94,0,0,0-32.78-47.7,52.71,52.71,0,0,0-39.51,0A52.93,52.93,0,0,0,312.62,293Z" transform="translate(-80.97 -10.2)"/></g><g class="cls-23"><path class="cls-35" d="M350.75,409.94a51.9,51.9,0,0,1,3.55-20.29,52.7,52.7,0,0,1,98,0,51.9,51.9,0,0,1,3.55,20.29A52.94,52.94,0,0,0,423,362.24a52.71,52.71,0,0,0-39.51,0,52.93,52.93,0,0,0-32.78,47.7Z" transform="translate(-80.97 -10.2)"/></g><g class="cls-23"><path class="cls-36" d="M474.11,409.94a51.9,51.9,0,0,1,3.55-20.29,52.7,52.7,0,0,1,98,0,51.9,51.9,0,0,1,3.55,20.29,52.94,52.94,0,0,0-32.78-47.7,52.71,52.71,0,0,0-39.51,0,52.93,52.93,0,0,0-32.78,47.7Z" transform="translate(-80.97 -10.2)"/></g><circle class="cls-37" cx="385.57" cy="319.01" r="10.71"/><circle class="cls-38" cx="385.23" cy="319.01" r="10.71"/><path class="cls-39" d="M109.55,478.51,335.11,173A22.66,22.66,0,0,0,366,170.47a5.19,5.19,0,0,0,1.86,5,4.86,4.86,0,0,0,6.85-.82l.1-.13a5.22,5.22,0,0,0,1,7.16,4.86,4.86,0,0,0,6.85-.82l.1-.13a5.22,5.22,0,0,0,1,7.16,4.86,4.86,0,0,0,6.85-.82l.1-.13a5.22,5.22,0,0,0,1,7.16,4.86,4.86,0,0,0,6.85-.82l.1-.13a5.22,5.22,0,0,0,1,7.16,4.86,4.86,0,0,0,6.85-.82l.1-.13a5.22,5.22,0,0,0,1,7.16,4.86,4.86,0,0,0,6.85-.82l.1-.13a5.22,5.22,0,0,0,1,7.16,4.86,4.86,0,0,0,6.85-.82l.1-.13a5.22,5.22,0,0,0,1,7.16,4.86,4.86,0,0,0,6.85-.82l.1-.13a5.22,5.22,0,0,0,1,7.16,4.86,4.86,0,0,0,6.85-.82l.1-.13a5.22,5.22,0,0,0,1,7.16,4.86,4.86,0,0,0,6.85-.82l.1-.13a5.22,5.22,0,0,0,1,7.16,4.86,4.86,0,0,0,6.85-.82l.1-.13a5.22,5.22,0,0,0,1,7.16,4.86,4.86,0,0,0,6.85-.82l.1-.13a5.22,5.22,0,0,0,1,7.16,4.86,4.86,0,0,0,6.85-.82l.1-.13a5.22,5.22,0,0,0,1,7.16,4.84,4.84,0,0,0,5.59.3,24.33,24.33,0,0,0,5.59,31.64L327.14,497.77h13.61L511.18,266.95,347.12,138.29,81.72,497.77h37A24.16,24.16,0,0,0,109.55,478.51Z" transform="translate(-80.97 -10.2)"/><path class="cls-12" d="M476.28,256.48a4.84,4.84,0,0,1-5.59-.3,5.22,5.22,0,0,1-1-7.16,4.86,4.86,0,0,1-6.82,1.05l-.13-.1a5.22,5.22,0,0,1-1-7.16,4.86,4.86,0,0,1-6.82,1.05l-.13-.1a5.22,5.22,0,0,1-1-7.16,4.86,4.86,0,0,1-6.82,1.05l-.13-.1a5.22,5.22,0,0,1-1-7.16,4.86,4.86,0,0,1-6.82,1.05l-.13-.1a5.22,5.22,0,0,1-.94-7.15,4.86,4.86,0,0,1-6.82,1.05l-.13-.1a5.22,5.22,0,0,1-1-7.16,4.86,4.86,0,0,1-6.82,1.05l-.13-.1a5.22,5.22,0,0,1-1-7.16,4.86,4.86,0,0,1-6.82,1.05l-.13-.1a5.22,5.22,0,0,1-1-7.16,4.86,4.86,0,0,1-6.82,1.05l-.13-.1a5.22,5.22,0,0,1-1-7.16,4.86,4.86,0,0,1-6.82,1.05l-.13-.1a5.22,5.22,0,0,1-1-7.16,4.86,4.86,0,0,1-6.82,1.05l-.13-.1a5.22,5.22,0,0,1-1-7.16,4.86,4.86,0,0,1-6.82,1.05l-.13-.1a5.22,5.22,0,0,1-1-7.16,4.86,4.86,0,0,1-6.82,1.05l-.13-.1a5.22,5.22,0,0,1-1-7.16,4.86,4.86,0,0,1-6.82,1.05l-.13-.1a5.19,5.19,0,0,1-1.86-5,22.66,22.66,0,0,1-30.9,2.6L109.52,478.55a24.16,24.16,0,0,1,9.18,19.26h8.68a23,23,0,0,0-7.79-24.39L333,184.37a21.44,21.44,0,0,0,29.2-2.41C369.32,187.09,447,248,466.57,263.3c-5.16,10.79-3.79,22.8,5.34,30L366.62,435.87l.82.64-.82-.64-45.7,61.9h6.23L481.9,288.14A24.33,24.33,0,0,1,476.28,256.48Z" transform="translate(-80.97 -10.2)"/><polygon class="cls-12" points="196.77 487.58 239.94 487.58 285.65 425.67 258.3 404.23 196.77 487.58"/><polygon class="cls-12" points="228.33 380.74 149.45 487.58 196.77 487.58 258.3 404.23 228.33 380.74"/><path class="cls-12" d="M136.31,496.4l-2.4-1.88,3,.07,1-2.93.88,3,3,.07-2.47,1.76.38,1.3h20.53L124,469.36l1.65-2.2,39.08,30.64H214v-2.2h2.19v2.2h14.23L309.3,391l-.06,0,.06,0,38.63-52.33h0l38.21-51.76-38.21,51.76,57.33,44.88L348,338.6l-38.63,52.33,30,23.5.06-.08-.06.08,27.34,21.44L471.9,293.29c-9.12-7.16-10.5-19.17-5.34-30C447.06,248,369.33,187.13,362.18,182a21.44,21.44,0,0,1-29.2,2.41l-213.39,289a23,23,0,0,1,7.79,24.39h8.46ZM307.54,220.74,445.45,328.85l-2.07,2.79L305.48,223.53ZM289.45,369.38l-.15,8.06-4.47-6.59-7.47,2.26,4.72-6.39-4.47-6.59,7.39,2.67,4.72-6.39-.15,8.06,7.39,2.67Zm3.34-56.73a5.43,5.43,0,0,1-.38,7.65l-.07.06a5.12,5.12,0,0,1-7.54-.06,5.4,5.4,0,0,1,.55-7.67C287.71,310.36,290.8,310.46,292.79,312.65Zm-20.32-22.44L286.1,308l-5.31,5.09-16.27-15.29ZM260.2,383.64l7.39,2.65,4.72-6.39-.15,8.06,7.39,2.67-7.48,2.29-.15,8.06-4.47-6.59L260,396.65l4.72-6.39ZM242.82,407.2l7.39,2.67,4.72-6.39-.15,8.06,7.41,2.65-7.48,2.29-.15,8.06L250.06,418l-7.48,2.29,4.72-6.39Z" transform="translate(-80.97 -10.2)"/><polygon class="cls-40" points="186.46 384.16 190.94 390.79 191.09 382.74 198.57 380.45 191.19 377.77 191.33 369.73 186.62 376.12 179.23 373.45 183.7 380.06 178.98 386.46 186.46 384.16"/><polygon class="cls-40" points="208.73 346.18 204 352.56 196.62 349.89 201.09 356.51 196.38 362.9 203.86 360.6 208.33 367.23 208.48 359.19 215.96 356.89 208.57 354.21 208.73 346.18"/><polygon class="cls-40" points="169.08 407.72 173.54 414.34 173.7 406.3 181.18 404 173.79 401.33 173.94 393.28 169.23 399.67 161.84 397 166.31 403.62 161.59 410.01 169.08 407.72"/><polygon class="cls-40" points="60.81 484.52 57.8 484.45 56.92 481.47 55.94 484.4 52.93 484.32 55.33 486.21 54.86 487.58 56.52 487.58 56.81 487.36 57.08 487.58 58.72 487.58 58.34 486.28 60.81 484.52"/><g class="cls-1"><text class="cls-41" transform="matrix(0.61, -0.79, 0.79, 0.62, 116.22, 412.86)">Wa</text><text class="cls-42" transform="matrix(0.61, -0.79, 0.79, 0.62, 116.22, 412.86)">Wa</text><text class="cls-43" transform="matrix(0.61, -0.79, 0.79, 0.62, 150.88, 368.18)">t</text><text class="cls-44" transform="matrix(0.61, -0.79, 0.79, 0.62, 150.88, 368.18)">t</text><text class="cls-41" transform="matrix(0.61, -0.79, 0.79, 0.62, 157.97, 359.04)">c</text><text class="cls-42" transform="matrix(0.61, -0.79, 0.79, 0.62, 157.97, 359.04)">c</text><text class="cls-41" transform="matrix(0.61, -0.79, 0.79, 0.62, 168.71, 345.2)">h</text><text class="cls-42" transform="matrix(0.61, -0.79, 0.79, 0.62, 168.71, 345.2)">h</text></g><g class="cls-1"><text class="cls-45" transform="matrix(0.61, -0.79, 0.79, 0.62, 149.48, 391.09)">outside </text><text class="cls-46" transform="matrix(0.61, -0.79, 0.79, 0.62, 149.48, 391.09)">outside </text><text class="cls-47" transform="matrix(0.61, -0.79, 0.79, 0.62, 169.83, 364.86)">m</text><text class="cls-48" transform="matrix(0.61, -0.79, 0.79, 0.62, 169.83, 364.86)">m</text><text class="cls-49" transform="matrix(0.61, -0.79, 0.79, 0.62, 174.98, 358.21)">o</text><text class="cls-50" transform="matrix(0.61, -0.79, 0.79, 0.62, 174.98, 358.21)">o</text><text class="cls-45" transform="matrix(0.61, -0.79, 0.79, 0.62, 178.11, 354.18)">vie </text><text class="cls-46" transform="matrix(0.61, -0.79, 0.79, 0.62, 178.11, 354.18)">vie </text><text class="cls-45" transform="matrix(0.61, -0.79, 0.79, 0.62, 186.93, 342.81)">f</text><text class="cls-46" transform="matrix(0.61, -0.79, 0.79, 0.62, 186.93, 342.81)">f</text><text class="cls-45" transform="matrix(0.61, -0.79, 0.79, 0.62, 188.69, 340.53)">esti</text><text class="cls-46" transform="matrix(0.61, -0.79, 0.79, 0.62, 188.69, 340.53)">esti</text><text class="cls-49" transform="matrix(0.61, -0.79, 0.79, 0.62, 197.81, 328.79)">v</text><text class="cls-50" transform="matrix(0.61, -0.79, 0.79, 0.62, 197.81, 328.79)">v</text><text class="cls-45" transform="matrix(0.61, -0.79, 0.79, 0.62, 200.71, 325.04)">al</text><text class="cls-46" transform="matrix(0.61, -0.79, 0.79, 0.62, 200.71, 325.04)">al</text></g><text class="cls-51" transform="matrix(0.61, -0.79, 0.79, 0.62, 183.1, 325.04)">it</text><text class="cls-52" transform="matrix(0.79, 0.61, -0.61, 0.79, 260.9, 206.58)">3214847923452</text><g class="cls-1"><text class="cls-53" transform="matrix(0.61, -0.8, 0.79, 0.61, 258.3, 386.35)">R</text><text class="cls-54" transform="matrix(0.61, -0.8, 0.79, 0.61, 258.3, 386.35)">R</text><text class="cls-53" transform="matrix(0.61, -0.8, 0.79, 0.61, 264.05, 378.77)">O</text><text class="cls-54" transform="matrix(0.61, -0.8, 0.79, 0.61, 264.05, 378.77)">O</text><text class="cls-53" transform="matrix(0.61, -0.8, 0.79, 0.61, 271.14, 369.44)">W</text><text class="cls-54" transform="matrix(0.61, -0.8, 0.79, 0.61, 271.14, 369.44)">W</text><text class="cls-53" transform="matrix(0.61, -0.8, 0.79, 0.61, 279.47, 402.55)"><tspan xml:space="preserve">    </tspan></text><text class="cls-54" transform="matrix(0.61, -0.8, 0.79, 0.61, 279.47, 402.55)"><tspan xml:space="preserve">    </tspan></text><text class="cls-55" transform="matrix(0.61, -0.8, 0.79, 0.61, 287.84, 391.53)">9</text><text class="cls-56" transform="matrix(0.61, -0.8, 0.79, 0.61, 287.84, 391.53)">9</text></g><g class="cls-1"><text class="cls-53" transform="matrix(0.61, -0.8, 0.79, 0.61, 294.49, 334.93)">SE</text><text class="cls-54" transform="matrix(0.61, -0.8, 0.79, 0.61, 294.49, 334.93)">SE</text><text class="cls-57" transform="matrix(0.61, -0.8, 0.79, 0.61, 304.95, 321.16)">A</text><text class="cls-58" transform="matrix(0.61, -0.8, 0.79, 0.61, 304.95, 321.16)">A</text><text class="cls-53" transform="matrix(0.61, -0.8, 0.79, 0.61, 310.56, 313.78)">T</text><text class="cls-54" transform="matrix(0.61, -0.8, 0.79, 0.61, 310.56, 313.78)">T</text><text class="cls-53" transform="matrix(0.61, -0.8, 0.79, 0.61, 315.66, 351.13)"> </text><text class="cls-54" transform="matrix(0.61, -0.8, 0.79, 0.61, 315.66, 351.13)"> </text><text class="cls-55" transform="matrix(0.61, -0.8, 0.79, 0.61, 317.76, 348.38)">17</text><text class="cls-56" transform="matrix(0.61, -0.8, 0.79, 0.61, 317.76, 348.38)">17</text></g><g class="cls-1"><text class="cls-59" transform="matrix(0.6, -0.8, 0.8, 0.6, 178.98, 484.52)"><tspan xml:space="preserve"> 8</tspan></text><text class="cls-60" transform="matrix(0.6, -0.8, 0.8, 0.6, 178.98, 484.52)"><tspan xml:space="preserve"> 8</tspan></text><text class="cls-61" transform="matrix(0.6, -0.8, 0.8, 0.6, 186.4, 474.65)">th</text><text class="cls-62" transform="matrix(0.6, -0.8, 0.8, 0.6, 186.4, 474.65)">th</text><text class="cls-59" transform="matrix(0.6, -0.8, 0.8, 0.6, 191.39, 468.01)">, </text><text class="cls-60" transform="matrix(0.6, -0.8, 0.8, 0.6, 191.39, 468.01)">, </text><text class="cls-63" transform="matrix(0.6, -0.8, 0.8, 0.6, 195.81, 462.13)">A</text><text class="cls-64" transform="matrix(0.6, -0.8, 0.8, 0.6, 195.81, 462.13)">A</text><text class="cls-59" transform="matrix(0.6, -0.8, 0.8, 0.6, 202.02, 453.87)">ugust</text><text class="cls-60" transform="matrix(0.6, -0.8, 0.8, 0.6, 202.02, 453.87)">ugust</text></g><g class="cls-1"><text class="cls-59" transform="matrix(0.6, -0.8, 0.8, 0.6, 226.74, 485.02)">18:30</text><text class="cls-60" transform="matrix(0.6, -0.8, 0.8, 0.6, 226.74, 485.02)">18:30</text></g><line class="cls-65" x1="230.32" y1="213.11" x2="230.32" y2="213.11"/><rect class="cls-66" x="372.76" y="186.63" width="7.31" height="175.73" transform="translate(-152.19 393.4) rotate(-52.19)"/></g></g></svg>