<svg xmlns="http://www.w3.org/2000/svg" xmlns:xlink="http://www.w3.org/1999/xlink" viewBox="0 0 111 135.81"><defs><style>.cls-1{isolation:isolate;}.cls-10,.cls-11,.cls-12,.cls-128,.cls-129,.cls-13,.cls-130,.cls-131,.cls-132,.cls-18,.cls-2,.cls-3,.cls-4,.cls-5,.cls-6,.cls-7,.cls-76,.cls-77,.cls-78,.cls-79,.cls-8,.cls-80,.cls-81,.cls-82,.cls-83,.cls-84,.cls-85,.cls-86,.cls-87,.cls-88,.cls-89,.cls-9,.cls-90,.cls-91,.cls-92,.cls-93,.cls-94,.cls-95,.cls-96{fill:#010101;}.cls-2{opacity:0.05;}.cls-3{opacity:0.06;}.cls-4{opacity:0.08;}.cls-5{opacity:0.09;}.cls-6{opacity:0.1;}.cls-7{opacity:0.12;}.cls-8{opacity:0.13;}.cls-9{opacity:0.15;}.cls-10{opacity:0.16;}.cls-11{opacity:0.17;}.cls-12{opacity:0.19;}.cls-13{opacity:0.2;}.cls-14{fill:url(#linear-gradient);}.cls-15{fill:url(#linear-gradient-2);}.cls-16{fill:url(#linear-gradient-3);}.cls-100,.cls-104,.cls-106,.cls-17,.cls-25,.cls-29,.cls-56{opacity:0.7;}.cls-100,.cls-17,.cls-197,.cls-198,.cls-199,.cls-200,.cls-201,.cls-202,.cls-203,.cls-204,.cls-205,.cls-206,.cls-207,.cls-208,.cls-209,.cls-210,.cls-212,.cls-215,.cls-218,.cls-25,.cls-29,.cls-56{mix-blend-mode:multiply;}.cls-17{fill:url(#Linear_Gradient_1);}.cls-19{fill:url(#New_Gradient_Swatch_copy_8);}.cls-20{fill:url(#linear-gradient-4);}.cls-21{fill:url(#New_Gradient_Swatch_copy_8-2);}.cls-22{fill:url(#linear-gradient-5);}.cls-23{fill:url(#New_Gradient_Swatch_copy_8-3);}.cls-24{fill:url(#linear-gradient-6);}.cls-25{fill:url(#Linear_Gradient_1-2);}.cls-26{fill:url(#linear-gradient-7);}.cls-27{fill:url(#linear-gradient-8);}.cls-28{fill:url(#linear-gradient-9);}.cls-29{fill:url(#Linear_Gradient_1-3);}.cls-30{fill:url(#linear-gradient-10);}.cls-31{fill:url(#linear-gradient-11);}.cls-32{fill:url(#linear-gradient-12);}.cls-33{fill:url(#linear-gradient-13);}.cls-34{fill:url(#linear-gradient-14);}.cls-35{fill:url(#linear-gradient-15);}.cls-36{fill:url(#linear-gradient-16);}.cls-37{fill:url(#linear-gradient-17);}.cls-38{fill:url(#linear-gradient-18);}.cls-39{fill:url(#linear-gradient-19);}.cls-40{fill:url(#linear-gradient-20);}.cls-41{fill:url(#linear-gradient-21);}.cls-42{fill:url(#linear-gradient-22);}.cls-43{fill:url(#linear-gradient-23);}.cls-44{fill:url(#linear-gradient-24);}.cls-45{fill:url(#linear-gradient-25);}.cls-46{fill:url(#linear-gradient-26);}.cls-47{fill:url(#linear-gradient-27);}.cls-48{fill:url(#linear-gradient-28);}.cls-49{fill:url(#New_Gradient_Swatch_copy_17);}.cls-50{fill:url(#New_Gradient_Swatch_copy_17-2);}.cls-51{fill:url(#linear-gradient-29);}.cls-52{fill:url(#New_Gradient_Swatch_copy_17-3);}.cls-102,.cls-115,.cls-117,.cls-193,.cls-194,.cls-195,.cls-196,.cls-214,.cls-53,.cls-66,.cls-70,.cls-71,.cls-72,.cls-73,.cls-74,.cls-75{mix-blend-mode:color-dodge;}.cls-53{fill:url(#White_Black_Radial);}.cls-54{fill:url(#New_Gradient_Swatch_copy_8-4);}.cls-55{fill:url(#linear-gradient-30);}.cls-56{fill:url(#Linear_Gradient_1-4);}.cls-57{fill:url(#New_Gradient_Swatch_copy_17-4);}.cls-58{fill:url(#New_Gradient_Swatch_copy_17-5);}.cls-59{fill:url(#linear-gradient-31);}.cls-60{fill:url(#New_Gradient_Swatch_copy_17-6);}.cls-61{fill:url(#New_Gradient_Swatch_copy_17-7);}.cls-62{fill:url(#linear-gradient-32);}.cls-63{fill:url(#linear-gradient-33);}.cls-102,.cls-110,.cls-112,.cls-115,.cls-117,.cls-64,.cls-68,.cls-69,.cls-70,.cls-71,.cls-72,.cls-73{opacity:0.5;}.cls-111,.cls-114,.cls-64,.cls-68,.cls-69{mix-blend-mode:screen;}.cls-64{fill:url(#radial-gradient);}.cls-65{fill:url(#linear-gradient-34);}.cls-66{fill:url(#White_Black_Radial-2);}.cls-67{fill:url(#radial-gradient-2);}.cls-68{fill:url(#radial-gradient-3);}.cls-69{fill:url(#radial-gradient-4);}.cls-70{fill:url(#radial-gradient-5);}.cls-71{fill:url(#radial-gradient-6);}.cls-72{fill:url(#radial-gradient-7);}.cls-73{fill:url(#radial-gradient-8);}.cls-74{fill:url(#radial-gradient-9);}.cls-75{fill:url(#radial-gradient-10);}.cls-76{opacity:0;}.cls-77{opacity:0.01;}.cls-78{opacity:0.02;}.cls-79{opacity:0.03;}.cls-80{opacity:0.04;}.cls-81{opacity:0.05;}.cls-82{opacity:0.06;}.cls-83{opacity:0.07;}.cls-84{opacity:0.08;}.cls-85{opacity:0.09;}.cls-86{opacity:0.1;}.cls-87{opacity:0.1;}.cls-88{opacity:0.11;}.cls-89{opacity:0.12;}.cls-90{opacity:0.13;}.cls-91{opacity:0.14;}.cls-92{opacity:0.15;}.cls-93{opacity:0.16;}.cls-94{opacity:0.17;}.cls-95{opacity:0.18;}.cls-96{opacity:0.19;}.cls-97{fill:url(#New_Gradient_Swatch_copy_16);}.cls-98{fill:url(#New_Gradient_Swatch_copy_18);}.cls-99{fill:url(#New_Gradient_Swatch_copy_23);}.cls-100{fill:url(#Linear_Gradient_1-5);}.cls-101{fill:url(#New_Gradient_Swatch_copy_16-2);}.cls-102{fill:url(#radial-gradient-11);}.cls-103{opacity:0.9;}.cls-104{fill:url(#New_Gradient_Swatch_copy_23-2);}.cls-105{fill:url(#New_Gradient_Swatch_copy_35);}.cls-106{fill:url(#New_Gradient_Swatch_copy_23-3);}.cls-107{fill:url(#New_Gradient_Swatch_copy_35-2);}.cls-108{fill:url(#New_Gradient_Swatch_copy_23-4);}.cls-109{fill:url(#New_Gradient_Swatch_copy_23-5);}.cls-110{fill:url(#New_Gradient_Swatch_copy_23-6);}.cls-111{fill:url(#White_Black_Radial-3);}.cls-112{fill:url(#New_Gradient_Swatch_copy_23-7);}.cls-113{fill:url(#New_Gradient_Swatch_copy_35-3);}.cls-114{fill:url(#White_Black_Radial-4);}.cls-115{fill:url(#radial-gradient-12);}.cls-116{fill:url(#New_Gradient_Swatch_copy_9);}.cls-117{fill:url(#radial-gradient-13);}.cls-118{fill:url(#linear-gradient-35);}.cls-119{fill:url(#linear-gradient-36);}.cls-120,.cls-122{opacity:0.75;}.cls-120{fill:url(#New_Gradient_Swatch_copy_7);}.cls-121,.cls-123{opacity:0.8;}.cls-121{fill:url(#New_Gradient_Swatch_copy_7-2);}.cls-122{fill:url(#New_Gradient_Swatch_copy_9-2);}.cls-123{fill:url(#New_Gradient_Swatch_copy_9-3);}.cls-124{fill:url(#linear-gradient-37);}.cls-125{fill:url(#linear-gradient-38);}.cls-126{fill:url(#linear-gradient-39);}.cls-127{fill:url(#linear-gradient-40);}.cls-128{opacity:0.08;}.cls-129{opacity:0.1;}.cls-130{opacity:0.13;}.cls-131{opacity:0.15;}.cls-132{opacity:0.17;}.cls-133{fill:url(#New_Gradient_Swatch_copy_9-4);}.cls-134{fill:url(#New_Gradient_Swatch_copy_9-5);}.cls-135{fill:url(#radial-gradient-14);}.cls-136{fill:url(#radial-gradient-15);}.cls-137{fill:url(#radial-gradient-16);}.cls-138{fill:url(#radial-gradient-17);}.cls-139{fill:url(#radial-gradient-18);}.cls-140{fill:url(#radial-gradient-19);}.cls-141{fill:url(#radial-gradient-20);}.cls-142{fill:url(#radial-gradient-21);}.cls-143{fill:url(#radial-gradient-22);}.cls-144{fill:url(#radial-gradient-23);}.cls-145{fill:url(#radial-gradient-24);}.cls-146{fill:url(#radial-gradient-25);}.cls-147{fill:url(#radial-gradient-26);}.cls-148{fill:url(#radial-gradient-27);}.cls-149{fill:url(#radial-gradient-28);}.cls-150{fill:url(#radial-gradient-29);}.cls-151{fill:url(#radial-gradient-30);}.cls-152{fill:url(#radial-gradient-31);}.cls-153{fill:url(#radial-gradient-32);}.cls-154{fill:url(#radial-gradient-33);}.cls-155{fill:url(#radial-gradient-34);}.cls-156{fill:url(#radial-gradient-35);}.cls-157{fill:url(#radial-gradient-36);}.cls-158{fill:url(#radial-gradient-37);}.cls-159{fill:url(#radial-gradient-38);}.cls-160{fill:url(#radial-gradient-39);}.cls-161{fill:url(#radial-gradient-40);}.cls-162{fill:url(#radial-gradient-41);}.cls-163{fill:url(#radial-gradient-42);}.cls-164{fill:url(#radial-gradient-43);}.cls-165{fill:url(#radial-gradient-44);}.cls-166{fill:url(#radial-gradient-45);}.cls-167{fill:url(#radial-gradient-46);}.cls-168{fill:url(#linear-gradient-41);}.cls-169{fill:url(#New_Gradient_Swatch_copy_9-6);}.cls-170{fill:url(#New_Gradient_Swatch_copy_9-7);}.cls-171{fill:url(#New_Gradient_Swatch_copy_9-8);}.cls-172{fill:url(#New_Gradient_Swatch_copy_9-9);}.cls-173{fill:url(#New_Gradient_Swatch_copy_9-10);}.cls-174{fill:url(#New_Gradient_Swatch_copy_9-11);}.cls-175{fill:url(#New_Gradient_Swatch_copy_9-12);}.cls-176{fill:url(#linear-gradient-42);}.cls-177{fill:url(#New_Gradient_Swatch_copy_9-13);}.cls-178{fill:url(#New_Gradient_Swatch_copy_9-14);}.cls-179{fill:url(#New_Gradient_Swatch_copy_9-15);}.cls-180{fill:url(#New_Gradient_Swatch_copy_9-16);}.cls-181{fill:url(#New_Gradient_Swatch_copy_9-17);}.cls-182{fill:url(#New_Gradient_Swatch_copy_9-18);}.cls-183{fill:url(#New_Gradient_Swatch_copy_9-19);}.cls-184{fill:url(#New_Gradient_Swatch_copy_9-20);}.cls-185{fill:url(#linear-gradient-43);}.cls-186{fill:url(#linear-gradient-44);}.cls-187{fill:url(#linear-gradient-45);}.cls-188{fill:url(#linear-gradient-46);}.cls-189{fill:url(#linear-gradient-47);}.cls-190{fill:url(#linear-gradient-48);}.cls-191{fill:url(#linear-gradient-49);}.cls-192{fill:url(#linear-gradient-50);}.cls-193{fill:url(#radial-gradient-47);}.cls-194{fill:url(#radial-gradient-48);}.cls-195{fill:url(#radial-gradient-49);}.cls-196{fill:url(#radial-gradient-50);}.cls-197{fill:url(#radial-gradient-51);}.cls-198{fill:url(#radial-gradient-52);}.cls-199{fill:url(#radial-gradient-53);}.cls-200{fill:url(#radial-gradient-54);}.cls-201{fill:url(#radial-gradient-55);}.cls-202{fill:url(#radial-gradient-56);}.cls-203{fill:url(#radial-gradient-57);}.cls-204{fill:url(#radial-gradient-58);}.cls-205{fill:url(#radial-gradient-59);}.cls-206{fill:url(#radial-gradient-60);}.cls-207{fill:url(#radial-gradient-61);}.cls-208{fill:url(#radial-gradient-62);}.cls-209{fill:url(#radial-gradient-63);}.cls-210{fill:url(#radial-gradient-64);}.cls-211{fill:url(#radial-gradient-65);}.cls-212{fill:url(#linear-gradient-51);}.cls-213{fill:url(#radial-gradient-66);}.cls-214{fill:url(#radial-gradient-67);}.cls-215{fill:url(#radial-gradient-68);}.cls-216{fill:url(#New_Gradient_Swatch_copy_35-4);}.cls-217{fill:url(#New_Gradient_Swatch_copy_9-21);}.cls-219{fill:#482d84;}.cls-220{fill:#eadeed;}.cls-221{fill:url(#New_Gradient_Swatch_copy_35-5);}.cls-222{fill:url(#New_Gradient_Swatch_copy_9-22);}</style><linearGradient id="linear-gradient" x1="4538" y1="49.47" x2="4545.02" y2="34.25" gradientTransform="matrix(-1, 0, 0, 1, 4655.73, 0)" gradientUnits="userSpaceOnUse"><stop offset="0.04" stop-color="#1a144c"/><stop offset="0.21" stop-color="#22215b"/><stop offset="0.35" stop-color="#2a2e6b"/><stop offset="0.7" stop-color="#211c57"/><stop offset="0.96" stop-color="#2c2a6b"/></linearGradient><linearGradient id="linear-gradient-2" x1="4546.08" y1="45.44" x2="4551.05" y2="47.92" gradientTransform="matrix(-1, 0, 0, 1, 4655.73, 0)" gradientUnits="userSpaceOnUse"><stop offset="0" stop-color="#1a144c"/><stop offset="1" stop-color="#353985"/></linearGradient><linearGradient id="linear-gradient-3" x1="-4282.67" y1="55.8" x2="-4287.8" y2="45.89" gradientTransform="translate(4387.32)" gradientUnits="userSpaceOnUse"><stop offset="0.04" stop-color="#353985"/><stop offset="0.11" stop-color="#2e2f76"/><stop offset="0.26" stop-color="#1b154d"/><stop offset="0.27" stop-color="#1a144c"/><stop offset="0.36" stop-color="#1d1852"/><stop offset="0.47" stop-color="#242463"/><stop offset="0.61" stop-color="#31377e"/><stop offset="0.75" stop-color="#4251a3"/><stop offset="1" stop-color="#353985"/></linearGradient><linearGradient id="Linear_Gradient_1" x1="103.4" y1="49.11" x2="111.84" y2="44.89" gradientUnits="userSpaceOnUse"><stop offset="0" stop-color="#fff"/><stop offset="1"/></linearGradient><linearGradient id="New_Gradient_Swatch_copy_8" x1="20.04" y1="53.78" x2="54.86" y2="88.89" gradientUnits="userSpaceOnUse"><stop offset="0.04" stop-color="#f8a88d"/><stop offset="0.32" stop-color="#f9b793"/><stop offset="0.86" stop-color="#fbe0a3"/><stop offset="1" stop-color="#fceba7"/></linearGradient><linearGradient id="linear-gradient-4" x1="19.82" y1="56.14" x2="53.88" y2="85.57" gradientTransform="matrix(1, 0, 0, 1, 0, 0)" xlink:href="#linear-gradient-2"/><linearGradient id="New_Gradient_Swatch_copy_8-2" x1="48.97" y1="60.02" x2="107.69" y2="76.55" xlink:href="#New_Gradient_Swatch_copy_8"/><linearGradient id="linear-gradient-5" x1="39.7" y1="67.22" x2="94.88" y2="59.91" gradientTransform="matrix(1, 0, 0, 1, 0, 0)" xlink:href="#linear-gradient-2"/><linearGradient id="New_Gradient_Swatch_copy_8-3" x1="4597.08" y1="24.11" x2="4577.54" y2="61.37" gradientTransform="matrix(-1, 0, 0, 1, 4636.45, -11.73)" xlink:href="#New_Gradient_Swatch_copy_8"/><linearGradient id="linear-gradient-6" x1="4595.02" y1="28.04" x2="4577.83" y2="60.81" gradientTransform="matrix(-1, 0, 0, 1, 4636.45, -11.73)" xlink:href="#linear-gradient-2"/><linearGradient id="Linear_Gradient_1-2" x1="73.18" y1="64.65" x2="69.17" y2="56.99" xlink:href="#Linear_Gradient_1"/><linearGradient id="linear-gradient-7" x1="50.95" y1="53.9" x2="64" y2="66.85" gradientTransform="matrix(1, 0, 0, 1, 0, 0)" xlink:href="#linear-gradient-2"/><linearGradient id="linear-gradient-8" x1="61.28" y1="60.84" x2="103.2" y2="44.14" gradientTransform="matrix(1, 0, 0, 1, 0, 0)" xlink:href="#linear-gradient-2"/><linearGradient id="linear-gradient-9" x1="4571.9" y1="49.72" x2="4564.94" y2="62.98" gradientTransform="matrix(-1, 0, 0, 1, 4636.45, -11.73)" xlink:href="#linear-gradient-2"/><linearGradient id="Linear_Gradient_1-3" x1="75.17" y1="40.95" x2="58.09" y2="39.97" xlink:href="#Linear_Gradient_1"/><linearGradient id="linear-gradient-10" x1="42.4" y1="47.08" x2="46.83" y2="68.65" gradientTransform="matrix(1, 0, 0, 1, 0, 0)" xlink:href="#linear-gradient-2"/><linearGradient id="linear-gradient-11" x1="59.42" y1="40.97" x2="79.51" y2="70.36" gradientTransform="matrix(1, 0, 0, 1, 0, 0)" xlink:href="#linear-gradient-2"/><linearGradient id="linear-gradient-12" x1="4594.9" y1="15.12" x2="4581.55" y2="40.56" gradientTransform="matrix(-1, 0, 0, 1, 4636.45, -11.73)" xlink:href="#linear-gradient-2"/><linearGradient id="linear-gradient-13" x1="4560.16" y1="27.98" x2="4585.95" y2="27.98" gradientTransform="matrix(-1, 0, 0, 1, 4655.73, 0)" gradientUnits="userSpaceOnUse"><stop offset="0" stop-color="#a8aaad"/><stop offset="0.21" stop-color="#d5d6d7"/><stop offset="0.29" stop-color="#e6e7e7"/><stop offset="0.61" stop-color="#b9bbbc"/><stop offset="0.86" stop-color="#939598"/></linearGradient><linearGradient id="linear-gradient-14" x1="4580.71" y1="46.63" x2="4558.28" y2="15.19" gradientTransform="matrix(-1, 0, 0, 1, 4655.73, 0)" gradientUnits="userSpaceOnUse"><stop offset="0.02" stop-color="#26225e"/><stop offset="0.1" stop-color="#2d2f76"/><stop offset="0.27" stop-color="#1a144c"/><stop offset="0.35" stop-color="#1d1852"/><stop offset="0.46" stop-color="#252263"/><stop offset="0.58" stop-color="#32327e"/><stop offset="0.69" stop-color="#41449c"/><stop offset="0.77" stop-color="#3d3e92"/><stop offset="0.91" stop-color="#313076"/><stop offset="0.97" stop-color="#2b2868"/></linearGradient><linearGradient id="linear-gradient-15" x1="4551.45" y1="33.25" x2="4577.25" y2="33.25" xlink:href="#linear-gradient-13"/><linearGradient id="linear-gradient-16" x1="4550.92" y1="33.53" x2="4576.72" y2="33.53" gradientTransform="matrix(-1, 0, 0, 1, 4655.73, 0)" gradientUnits="userSpaceOnUse"><stop offset="0" stop-color="#bdbec0"/><stop offset="1" stop-color="#e6e7e7"/></linearGradient><linearGradient id="linear-gradient-17" x1="4551.58" y1="33.6" x2="4576" y2="33.6" xlink:href="#linear-gradient-2"/><linearGradient id="linear-gradient-18" x1="4566.88" y1="37.97" x2="4560.99" y2="29.72" gradientTransform="matrix(-1, 0, 0, 1, 4655.73, 0)" gradientUnits="userSpaceOnUse"><stop offset="0.04" stop-color="#353985"/><stop offset="0.11" stop-color="#2e2f76"/><stop offset="0.26" stop-color="#1b154d"/><stop offset="0.27" stop-color="#1a144c"/><stop offset="0.34" stop-color="#1d1952"/><stop offset="0.44" stop-color="#262663"/><stop offset="0.54" stop-color="#353c7e"/><stop offset="0.66" stop-color="#4a5ba4"/><stop offset="0.69" stop-color="#4f62ad"/><stop offset="1" stop-color="#353985"/></linearGradient><linearGradient id="linear-gradient-19" x1="4559.41" y1="34.3" x2="4566.22" y2="34.3" xlink:href="#linear-gradient-2"/><linearGradient id="linear-gradient-20" x1="4561.92" y1="31.01" x2="4565.29" y2="42.92" xlink:href="#linear-gradient-16"/><linearGradient id="linear-gradient-21" x1="4586.48" y1="44.57" x2="4612.27" y2="44.57" xlink:href="#linear-gradient-13"/><linearGradient id="linear-gradient-22" x1="4607.03" y1="63.22" x2="4584.6" y2="31.79" xlink:href="#linear-gradient-14"/><linearGradient id="linear-gradient-23" x1="4577.77" y1="49.84" x2="4603.57" y2="49.84" xlink:href="#linear-gradient-13"/><linearGradient id="linear-gradient-24" x1="4577.24" y1="50.13" x2="4603.04" y2="50.13" xlink:href="#linear-gradient-16"/><linearGradient id="linear-gradient-25" x1="4577.9" y1="50.19" x2="4602.32" y2="50.19" xlink:href="#linear-gradient-2"/><linearGradient id="linear-gradient-26" x1="4593.2" y1="54.56" x2="4587.32" y2="46.31" xlink:href="#linear-gradient-18"/><linearGradient id="linear-gradient-27" x1="4585.73" y1="50.9" x2="4592.54" y2="50.9" xlink:href="#linear-gradient-2"/><linearGradient id="linear-gradient-28" x1="4588.24" y1="47.61" x2="4591.61" y2="59.51" xlink:href="#linear-gradient-16"/><linearGradient id="New_Gradient_Swatch_copy_17" x1="4571.6" y1="74.73" x2="4567.57" y2="69.08" gradientTransform="matrix(-1, 0, 0, 1, 4655.73, 0)" gradientUnits="userSpaceOnUse"><stop offset="0.04" stop-color="#f7aa90"/><stop offset="0.23" stop-color="#f9b996"/><stop offset="0.61" stop-color="#ffe2a7"/><stop offset="0.63" stop-color="#ffe4a8"/><stop offset="0.87" stop-color="#f7aa90"/></linearGradient><linearGradient id="New_Gradient_Swatch_copy_17-2" x1="4566.49" y1="72.22" x2="4571.15" y2="72.22" xlink:href="#New_Gradient_Swatch_copy_17"/><linearGradient id="linear-gradient-29" x1="4568.2" y1="69.96" x2="4570.52" y2="78.12" xlink:href="#linear-gradient-2"/><linearGradient id="New_Gradient_Swatch_copy_17-3" x1="59.54" y1="87.7" x2="51.51" y2="76.9" gradientTransform="matrix(1, 0, 0, 1, 0, 0)" xlink:href="#New_Gradient_Swatch_copy_17"/><radialGradient id="White_Black_Radial" cx="65.26" cy="44.05" r="5.36" gradientTransform="translate(-9.98 35.58) scale(0.99 1.07)" xlink:href="#Linear_Gradient_1"/><linearGradient id="New_Gradient_Swatch_copy_8-4" x1="46.41" y1="76.97" x2="63.53" y2="90.8" xlink:href="#New_Gradient_Swatch_copy_8"/><linearGradient id="linear-gradient-30" x1="-4334.21" y1="92.9" x2="-4340.96" y2="81.31" xlink:href="#linear-gradient-3"/><linearGradient id="Linear_Gradient_1-4" x1="53.46" y1="83.93" x2="40.65" y2="90.33" xlink:href="#Linear_Gradient_1"/><linearGradient id="New_Gradient_Swatch_copy_17-4" x1="4558.84" y1="66.63" x2="4554.81" y2="60.97" xlink:href="#New_Gradient_Swatch_copy_17"/><linearGradient id="New_Gradient_Swatch_copy_17-5" x1="4553.73" y1="64.12" x2="4558.39" y2="64.12" xlink:href="#New_Gradient_Swatch_copy_17"/><linearGradient id="linear-gradient-31" x1="4555.44" y1="61.86" x2="4557.76" y2="70.02" xlink:href="#linear-gradient-2"/><linearGradient id="New_Gradient_Swatch_copy_17-6" x1="4562.82" y1="70.23" x2="4560.33" y2="66.73" xlink:href="#New_Gradient_Swatch_copy_17"/><linearGradient id="New_Gradient_Swatch_copy_17-7" x1="4559.66" y1="68.67" x2="4562.54" y2="68.67" xlink:href="#New_Gradient_Swatch_copy_17"/><linearGradient id="linear-gradient-32" x1="4560.72" y1="67.28" x2="4562.15" y2="72.33" xlink:href="#linear-gradient-2"/><linearGradient id="linear-gradient-33" x1="4606.01" y1="107.15" x2="4622.74" y2="77.52" gradientTransform="matrix(-1, 0, 0, 1, 4655.73, 0)" gradientUnits="userSpaceOnUse"><stop offset="0.01" stop-color="#26225e"/><stop offset="0.24" stop-color="#303177"/><stop offset="0.35" stop-color="#353985"/><stop offset="0.66" stop-color="#25215e"/><stop offset="0.7" stop-color="#231e59"/><stop offset="1" stop-color="#353985"/></linearGradient><radialGradient id="radial-gradient" cx="50.42" cy="51.74" r="10.35" gradientTransform="translate(-9.98 35.58) scale(0.99 1.07)" gradientUnits="userSpaceOnUse"><stop offset="0" stop-color="#6578ba"/><stop offset="0.07" stop-color="#596aa4"/><stop offset="0.24" stop-color="#3e4a72"/><stop offset="0.4" stop-color="#28304a"/><stop offset="0.57" stop-color="#171b2a"/><stop offset="0.72" stop-color="#0b0d13"/><stop offset="0.87" stop-color="#040406"/><stop offset="1" stop-color="#010101"/></radialGradient><linearGradient id="linear-gradient-34" x1="4591.45" y1="76.15" x2="4640.24" y2="106.8" xlink:href="#linear-gradient-2"/><radialGradient id="White_Black_Radial-2" cx="44.99" cy="53.02" r="12.86" gradientTransform="translate(-9.98 35.58) scale(0.99 1.07)" xlink:href="#Linear_Gradient_1"/><radialGradient id="radial-gradient-2" cx="4607.15" cy="52.81" r="28.58" gradientTransform="matrix(-0.99, 0, 0, 1.07, 4576.4, 35.58)" gradientUnits="userSpaceOnUse"><stop offset="0.01" stop-color="#13112a"/><stop offset="0.19" stop-color="#1a144c"/><stop offset="0.33" stop-color="#221f5d"/><stop offset="0.58" stop-color="#353985"/><stop offset="0.77" stop-color="#3f4894"/><stop offset="1" stop-color="#4f62ad"/></radialGradient><radialGradient id="radial-gradient-3" cx="30.01" cy="66.55" r="14.01" xlink:href="#radial-gradient"/><radialGradient id="radial-gradient-4" cx="127.74" cy="4.58" r="4.27" xlink:href="#radial-gradient"/><radialGradient id="radial-gradient-5" cx="11868.44" cy="-11105.56" r="19.37" gradientTransform="matrix(0.07, -0.14, 0.26, 0.15, 2153.72, 3421.32)" gradientUnits="userSpaceOnUse"><stop offset="0" stop-color="#943895"/><stop offset="0.03" stop-color="#8a348b"/><stop offset="0.19" stop-color="#612561"/><stop offset="0.34" stop-color="#3e183e"/><stop offset="0.5" stop-color="#230e23"/><stop offset="0.66" stop-color="#100710"/><stop offset="0.83" stop-color="#050205"/><stop offset="1" stop-color="#010101"/></radialGradient><radialGradient id="radial-gradient-6" cx="12046.23" cy="-11049.89" r="19.37" xlink:href="#radial-gradient-5"/><radialGradient id="radial-gradient-7" cx="11998.47" cy="-11001.24" r="19.37" xlink:href="#radial-gradient-5"/><radialGradient id="radial-gradient-8" cx="11823.83" cy="-11053.56" r="19.37" xlink:href="#radial-gradient-5"/><radialGradient id="radial-gradient-9" cx="25576.34" cy="1045.47" r="19.36" gradientTransform="matrix(-0.07, -0.14, 0.26, -0.16, 1646.66, 3834.17)" gradientUnits="userSpaceOnUse"><stop offset="0" stop-color="#b83293"/><stop offset="0.13" stop-color="#8b266f"/><stop offset="0.26" stop-color="#611b4e"/><stop offset="0.41" stop-color="#3f1132"/><stop offset="0.55" stop-color="#240a1d"/><stop offset="0.7" stop-color="#10050d"/><stop offset="0.84" stop-color="#050204"/><stop offset="1" stop-color="#010101"/></radialGradient><radialGradient id="radial-gradient-10" cx="25568.09" cy="978.03" r="19.36" xlink:href="#radial-gradient-9"/><linearGradient id="New_Gradient_Swatch_copy_16" x1="125.34" y1="82.56" x2="100.85" y2="82.56" gradientUnits="userSpaceOnUse"><stop offset="0.04" stop-color="#1cb0d4"/><stop offset="0.18" stop-color="#2bb5d6"/><stop offset="0.45" stop-color="#54c3dc"/><stop offset="0.63" stop-color="#71cde1"/><stop offset="0.87" stop-color="#1cb0d4"/></linearGradient><linearGradient id="New_Gradient_Swatch_copy_18" x1="126.72" y1="82.56" x2="101.01" y2="82.56" gradientUnits="userSpaceOnUse"><stop offset="0.04" stop-color="#943895"/><stop offset="0.19" stop-color="#a34399"/><stop offset="0.49" stop-color="#cc5fa4"/><stop offset="0.63" stop-color="#e06eaa"/><stop offset="0.87" stop-color="#c355a0"/></linearGradient><linearGradient id="New_Gradient_Swatch_copy_23" x1="104" y1="102.53" x2="122.73" y2="102.53" gradientUnits="userSpaceOnUse"><stop offset="0.01" stop-color="#c1a2cc"/><stop offset="0.05" stop-color="#c8acd2"/><stop offset="0.12" stop-color="#dac7e0"/><stop offset="0.2" stop-color="#f7f3f9"/><stop offset="0.22" stop-color="#fff"/><stop offset="0.25" stop-color="#f9f5fa"/><stop offset="0.3" stop-color="#e9dbec"/><stop offset="0.36" stop-color="#d0b4d6"/><stop offset="0.42" stop-color="#b296c6"/><stop offset="0.49" stop-color="#9a7eb9"/><stop offset="0.56" stop-color="#8b6fb1"/><stop offset="0.61" stop-color="#866aae"/><stop offset="0.75" stop-color="#9172b2"/><stop offset="1" stop-color="#ae86bd"/><stop offset="1" stop-color="#ae86bd"/></linearGradient><linearGradient id="Linear_Gradient_1-5" x1="115.27" y1="73.4" x2="110.62" y2="45.37" xlink:href="#Linear_Gradient_1"/><linearGradient id="New_Gradient_Swatch_copy_16-2" x1="119.44" y1="20.88" x2="92.67" y2="47.82" xlink:href="#New_Gradient_Swatch_copy_16"/><radialGradient id="radial-gradient-11" cx="-1960.08" cy="-395.15" r="17.52" gradientTransform="matrix(0.41, -0.09, 0.2, 1.05, 988.31, 312.33)" xlink:href="#radial-gradient-5"/><linearGradient id="New_Gradient_Swatch_copy_23-2" x1="98.94" y1="63.33" x2="127.73" y2="63.33" xlink:href="#New_Gradient_Swatch_copy_23"/><linearGradient id="New_Gradient_Swatch_copy_35" x1="121.82" y1="18.2" x2="92.53" y2="47.68" gradientUnits="userSpaceOnUse"><stop offset="0" stop-color="#9e7ab6"/><stop offset="0.14" stop-color="#a481ba"/><stop offset="0.33" stop-color="#b393c4"/><stop offset="0.56" stop-color="#cdb1d4"/><stop offset="0.58" stop-color="#d0b4d6"/><stop offset="0.76" stop-color="#dac4df"/><stop offset="1" stop-color="#eadeed"/></linearGradient><linearGradient id="New_Gradient_Swatch_copy_23-3" x1="99.85" y1="61.25" x2="126.83" y2="61.25" xlink:href="#New_Gradient_Swatch_copy_23"/><linearGradient id="New_Gradient_Swatch_copy_35-2" x1="120.08" y1="18.22" x2="92.63" y2="45.85" xlink:href="#New_Gradient_Swatch_copy_35"/><linearGradient id="New_Gradient_Swatch_copy_23-4" x1="4739.39" y1="7443.27" x2="4739.39" y2="7443.27" gradientTransform="translate(4864.08 7502) rotate(180)" xlink:href="#New_Gradient_Swatch_copy_23"/><linearGradient id="New_Gradient_Swatch_copy_23-5" x1="4761.91" y1="7443.27" x2="4761.92" y2="7443.27" gradientTransform="translate(4864.08 7502) rotate(180)" xlink:href="#New_Gradient_Swatch_copy_23"/><linearGradient id="New_Gradient_Swatch_copy_23-6" x1="4739.49" y1="7448.28" x2="4761.67" y2="7448.28" gradientTransform="translate(4864.08 7502) rotate(180)" xlink:href="#New_Gradient_Swatch_copy_23"/><radialGradient id="White_Black_Radial-3" cx="119.29" cy="25" r="17.49" gradientTransform="translate(-9.98 35.58) scale(0.99 1.07)" xlink:href="#Linear_Gradient_1"/><linearGradient id="New_Gradient_Swatch_copy_23-7" x1="106.25" y1="58.04" x2="120.51" y2="58.04" xlink:href="#New_Gradient_Swatch_copy_23"/><linearGradient id="New_Gradient_Swatch_copy_35-3" x1="107.85" y1="29.5" x2="93.35" y2="44.09" xlink:href="#New_Gradient_Swatch_copy_35"/><radialGradient id="White_Black_Radial-4" cx="122.11" cy="21.23" r="9.24" gradientTransform="translate(-9.98 35.58) scale(0.99 1.07)" xlink:href="#Linear_Gradient_1"/><radialGradient id="radial-gradient-12" cx="15688.94" cy="-9538.46" r="19.36" gradientTransform="matrix(0.05, -0.15, 0.28, 0.1, 2066.08, 3445.66)" xlink:href="#radial-gradient-5"/><linearGradient id="New_Gradient_Swatch_copy_9" x1="123.03" y1="48.26" x2="112.93" y2="38.57" gradientUnits="userSpaceOnUse"><stop offset="0.04" stop-color="#943895"/><stop offset="0.29" stop-color="#a34399"/><stop offset="0.78" stop-color="#cc5fa4"/><stop offset="1" stop-color="#e06eaa"/></linearGradient><radialGradient id="radial-gradient-13" cx="123.52" cy="3.46" r="17.47" gradientTransform="translate(-9.98 35.58) scale(0.99 1.07)" gradientUnits="userSpaceOnUse"><stop offset="0" stop-color="#fff"/><stop offset="0.01" stop-color="#f8f8f8"/><stop offset="0.13" stop-color="#bfbfbf"/><stop offset="0.25" stop-color="#8c8c8c"/><stop offset="0.37" stop-color="#616161"/><stop offset="0.49" stop-color="#3f3f3f"/><stop offset="0.62" stop-color="#242424"/><stop offset="0.74" stop-color="#101010"/><stop offset="0.87" stop-color="#050505"/><stop offset="1" stop-color="#010101"/></radialGradient><linearGradient id="linear-gradient-35" x1="74.65" y1="104.66" x2="72.89" y2="93.52" gradientUnits="userSpaceOnUse"><stop offset="0" stop-color="#dacee6"/><stop offset="1" stop-color="#a09fc4"/></linearGradient><linearGradient id="linear-gradient-36" x1="91.74" y1="95.6" x2="63.43" y2="113.32" xlink:href="#linear-gradient-35"/><linearGradient id="New_Gradient_Swatch_copy_7" x1="75.74" y1="126.14" x2="65.52" y2="114.14" gradientUnits="userSpaceOnUse"><stop offset="0.04" stop-color="#148cbd"/><stop offset="0.25" stop-color="#2397c3"/><stop offset="0.66" stop-color="#4cb3d3"/><stop offset="1" stop-color="#71cde1"/></linearGradient><linearGradient id="New_Gradient_Swatch_copy_7-2" x1="74.45" y1="127.24" x2="64.23" y2="115.25" xlink:href="#New_Gradient_Swatch_copy_7"/><linearGradient id="New_Gradient_Swatch_copy_9-2" x1="91.56" y1="136.93" x2="80.9" y2="122.12" xlink:href="#New_Gradient_Swatch_copy_9"/><linearGradient id="New_Gradient_Swatch_copy_9-3" x1="90.36" y1="137.79" x2="79.7" y2="122.99" xlink:href="#New_Gradient_Swatch_copy_9"/><linearGradient id="linear-gradient-37" x1="81.12" y1="119.4" x2="89.79" y2="104.77" xlink:href="#linear-gradient-35"/><linearGradient id="linear-gradient-38" x1="89.35" y1="122.21" x2="52.77" y2="128.72" xlink:href="#linear-gradient-35"/><linearGradient id="linear-gradient-39" x1="105.49" y1="123.82" x2="105.06" y2="114.43" xlink:href="#linear-gradient-35"/><linearGradient id="linear-gradient-40" x1="122.04" y1="110.19" x2="93.6" y2="135.92" xlink:href="#linear-gradient-35"/><linearGradient id="New_Gradient_Swatch_copy_9-4" x1="66.64" y1="95.92" x2="91.7" y2="54.96" xlink:href="#New_Gradient_Swatch_copy_9"/><linearGradient id="New_Gradient_Swatch_copy_9-5" x1="51.36" y1="72.21" x2="119.83" y2="94.24" xlink:href="#New_Gradient_Swatch_copy_9"/><radialGradient id="radial-gradient-14" cx="100.39" cy="31.89" r="5.6" gradientTransform="translate(-9.98 35.58) scale(0.99 1.07)" gradientUnits="userSpaceOnUse"><stop offset="0.15" stop-color="#fff9ea"/><stop offset="0.39" stop-color="#ffeaba"/><stop offset="0.47" stop-color="#ffe4a8"/><stop offset="0.56" stop-color="#fce0a3"/><stop offset="0.66" stop-color="#f3d495"/><stop offset="0.77" stop-color="#e4c07d"/><stop offset="0.88" stop-color="#cfa45b"/><stop offset="0.91" stop-color="#ca9d53"/></radialGradient><radialGradient id="radial-gradient-15" cx="105.53" cy="32.92" r="5.23" gradientTransform="translate(-9.98 35.58) scale(0.99 1.07)" gradientUnits="userSpaceOnUse"><stop offset="0.23" stop-color="#fff9ea"/><stop offset="0.38" stop-color="#ffeaba"/><stop offset="0.44" stop-color="#ffe4a8"/><stop offset="0.48" stop-color="#fce0a3"/><stop offset="0.54" stop-color="#f3d495"/><stop offset="0.6" stop-color="#e4c07d"/><stop offset="0.66" stop-color="#cfa45b"/><stop offset="0.68" stop-color="#ca9d53"/><stop offset="0.95" stop-color="#795f33"/></radialGradient><radialGradient id="radial-gradient-16" cx="99.77" cy="34.88" r="5.23" xlink:href="#radial-gradient-14"/><radialGradient id="radial-gradient-17" cx="104.18" cy="37.54" r="5.6" xlink:href="#radial-gradient-14"/><radialGradient id="radial-gradient-18" cx="94.43" cy="33.59" r="5.6" xlink:href="#radial-gradient-15"/><radialGradient id="radial-gradient-19" cx="100.43" cy="35.48" r="5.23" xlink:href="#radial-gradient-14"/><radialGradient id="radial-gradient-20" cx="91.06" cy="37.19" r="5.23" xlink:href="#radial-gradient-15"/><radialGradient id="radial-gradient-21" cx="94.78" cy="35.97" r="5.6" gradientTransform="translate(-9.98 35.58) scale(0.99 1.07)" gradientUnits="userSpaceOnUse"><stop offset="0.23" stop-color="#fff9ea"/><stop offset="0.5" stop-color="#ffeaba"/><stop offset="0.6" stop-color="#ffe4a8"/><stop offset="0.68" stop-color="#fce0a3"/><stop offset="0.77" stop-color="#f3d495"/><stop offset="0.87" stop-color="#e4c07d"/><stop offset="0.98" stop-color="#cfa45b"/><stop offset="1" stop-color="#ca9d53"/></radialGradient><radialGradient id="radial-gradient-22" cx="97.13" cy="39.85" r="5.6" gradientTransform="translate(-9.98 35.58) scale(0.99 1.07)" gradientUnits="userSpaceOnUse"><stop offset="0" stop-color="#fff9ea"/><stop offset="0.17" stop-color="#ffeaba"/><stop offset="0.23" stop-color="#ffe4a8"/><stop offset="0.28" stop-color="#fce0a3"/><stop offset="0.33" stop-color="#f3d495"/><stop offset="0.39" stop-color="#e4c07d"/><stop offset="0.45" stop-color="#cfa45b"/><stop offset="0.46" stop-color="#ca9d53"/><stop offset="0.95" stop-color="#795f33"/></radialGradient><radialGradient id="radial-gradient-23" cx="87.29" cy="39.46" r="5.6" xlink:href="#radial-gradient-14"/><radialGradient id="radial-gradient-24" cx="92.43" cy="40.5" r="5.23" xlink:href="#radial-gradient-14"/><radialGradient id="radial-gradient-25" cx="86.66" cy="42.45" r="5.23" xlink:href="#radial-gradient-15"/><radialGradient id="radial-gradient-26" cx="91.08" cy="45.11" r="5.6" xlink:href="#radial-gradient-14"/><radialGradient id="radial-gradient-27" cx="108.36" cy="36.2" r="5.6" xlink:href="#radial-gradient-14"/><radialGradient id="radial-gradient-28" cx="113.5" cy="37.23" r="5.23" xlink:href="#radial-gradient-15"/><radialGradient id="radial-gradient-29" cx="107.73" cy="39.19" r="5.23" xlink:href="#radial-gradient-14"/><radialGradient id="radial-gradient-30" cx="112.15" cy="41.85" r="5.6" xlink:href="#radial-gradient-15"/><radialGradient id="radial-gradient-31" cx="103.14" cy="39.42" r="5.6" xlink:href="#radial-gradient-15"/><radialGradient id="radial-gradient-32" cx="108.31" cy="41.45" r="5.23" xlink:href="#radial-gradient-21"/><radialGradient id="radial-gradient-33" cx="100.11" cy="42.06" r="5.23" xlink:href="#radial-gradient-14"/><radialGradient id="radial-gradient-34" cx="105.1" cy="44.16" r="5.6" xlink:href="#radial-gradient-14"/><radialGradient id="radial-gradient-35" cx="103.82" cy="41.6" r="5.6" xlink:href="#radial-gradient-14"/><radialGradient id="radial-gradient-36" cx="121.59" cy="66.96" r="4.47" xlink:href="#radial-gradient-14"/><radialGradient id="radial-gradient-37" cx="95.25" cy="43.78" r="5.6" xlink:href="#radial-gradient-15"/><radialGradient id="radial-gradient-38" cx="100.4" cy="44.81" r="5.23" xlink:href="#radial-gradient-21"/><radialGradient id="radial-gradient-39" cx="100.51" cy="38.54" r="5.23" xlink:href="#radial-gradient-21"/><radialGradient id="radial-gradient-40" cx="116.59" cy="40.41" r="5.23" xlink:href="#radial-gradient-14"/><radialGradient id="radial-gradient-41" cx="109.84" cy="45.06" r="5.23" xlink:href="#radial-gradient-14"/><radialGradient id="radial-gradient-42" cx="103.49" cy="47.99" r="5.23" xlink:href="#radial-gradient-15"/><radialGradient id="radial-gradient-43" cx="94.63" cy="46.76" r="5.23" xlink:href="#radial-gradient-14"/><radialGradient id="radial-gradient-44" cx="99.04" cy="49.42" r="5.6" xlink:href="#radial-gradient-14"/><radialGradient id="radial-gradient-45" cx="100.3" cy="54.46" r="5.6" xlink:href="#radial-gradient-14"/><radialGradient id="radial-gradient-46" cx="100.47" cy="60.11" r="5.6" xlink:href="#radial-gradient-14"/><linearGradient id="linear-gradient-41" x1="161.16" y1="87.4" x2="76.52" y2="87.4" gradientUnits="userSpaceOnUse"><stop offset="0" stop-color="#e6e7e7"/><stop offset="1" stop-color="#a8aaad"/></linearGradient><linearGradient id="New_Gradient_Swatch_copy_9-6" x1="72.47" y1="88.21" x2="115.56" y2="75.5" xlink:href="#New_Gradient_Swatch_copy_9"/><linearGradient id="New_Gradient_Swatch_copy_9-7" x1="73.85" y1="88.62" x2="119.48" y2="75.16" xlink:href="#New_Gradient_Swatch_copy_9"/><linearGradient id="New_Gradient_Swatch_copy_9-8" x1="74.8" y1="89.15" x2="122.03" y2="75.22" xlink:href="#New_Gradient_Swatch_copy_9"/><linearGradient id="New_Gradient_Swatch_copy_9-9" x1="75.32" y1="89.82" x2="123.23" y2="75.69" xlink:href="#New_Gradient_Swatch_copy_9"/><linearGradient id="New_Gradient_Swatch_copy_9-10" x1="75.42" y1="90.6" x2="123.05" y2="76.56" xlink:href="#New_Gradient_Swatch_copy_9"/><linearGradient id="New_Gradient_Swatch_copy_9-11" x1="75.09" y1="91.52" x2="121.51" y2="77.83" xlink:href="#New_Gradient_Swatch_copy_9"/><linearGradient id="New_Gradient_Swatch_copy_9-12" x1="74.34" y1="92.55" x2="118.61" y2="79.5" xlink:href="#New_Gradient_Swatch_copy_9"/><linearGradient id="linear-gradient-42" x1="68.98" y1="87.4" x2="-1.63" y2="87.4" xlink:href="#linear-gradient-41"/><linearGradient id="New_Gradient_Swatch_copy_9-13" x1="43.17" y1="80.72" x2="74.97" y2="88.43" xlink:href="#New_Gradient_Swatch_copy_9"/><linearGradient id="New_Gradient_Swatch_copy_9-14" x1="39.6" y1="80.81" x2="73.76" y2="89.08" xlink:href="#New_Gradient_Swatch_copy_9"/><linearGradient id="New_Gradient_Swatch_copy_9-15" x1="37.27" y1="81.19" x2="72.91" y2="89.83" xlink:href="#New_Gradient_Swatch_copy_9"/><linearGradient id="New_Gradient_Swatch_copy_9-16" x1="36.2" y1="81.88" x2="72.44" y2="90.66" xlink:href="#New_Gradient_Swatch_copy_9"/><linearGradient id="New_Gradient_Swatch_copy_9-17" x1="36.37" y1="82.87" x2="72.34" y2="91.59" xlink:href="#New_Gradient_Swatch_copy_9"/><linearGradient id="New_Gradient_Swatch_copy_9-18" x1="37.8" y1="84.17" x2="72.62" y2="92.6" xlink:href="#New_Gradient_Swatch_copy_9"/><linearGradient id="New_Gradient_Swatch_copy_9-19" x1="40.47" y1="85.76" x2="73.26" y2="93.71" xlink:href="#New_Gradient_Swatch_copy_9"/><linearGradient id="New_Gradient_Swatch_copy_9-20" x1="93.39" y1="106.95" x2="114.69" y2="83.78" xlink:href="#New_Gradient_Swatch_copy_9"/><linearGradient id="linear-gradient-43" x1="108.88" y1="95.28" x2="77.99" y2="113.09" gradientUnits="userSpaceOnUse"><stop offset="0.12" stop-color="#f2f2f2"/><stop offset="1" stop-color="#a8aaad"/></linearGradient><linearGradient id="linear-gradient-44" x1="-502.34" y1="782.96" x2="-479.47" y2="763.61" gradientTransform="matrix(0.92, -0.93, 0.4, 0.69, 295.06, -1028.27)" gradientUnits="userSpaceOnUse"><stop offset="0.04" stop-color="#2d286f"/><stop offset="0.53" stop-color="#3c2b7e"/><stop offset="1" stop-color="#4f2e91"/></linearGradient><linearGradient id="linear-gradient-45" x1="-501.03" y1="784.34" x2="-478.14" y2="764.97" xlink:href="#linear-gradient-44"/><linearGradient id="linear-gradient-46" x1="-500.31" y1="785.32" x2="-477.44" y2="765.97" xlink:href="#linear-gradient-44"/><linearGradient id="linear-gradient-47" x1="-500.9" y1="785.23" x2="-478.02" y2="765.88" xlink:href="#linear-gradient-44"/><linearGradient id="linear-gradient-48" x1="-500.14" y1="786.02" x2="-477.25" y2="766.66" xlink:href="#linear-gradient-44"/><linearGradient id="linear-gradient-49" x1="-499.33" y1="787.11" x2="-476.45" y2="767.76" xlink:href="#linear-gradient-44"/><linearGradient id="linear-gradient-50" x1="-498.48" y1="788" x2="-475.59" y2="768.64" xlink:href="#linear-gradient-44"/><radialGradient id="radial-gradient-47" cx="100.82" cy="38.43" r="1.67" gradientTransform="translate(-9.98 35.58) scale(0.99 1.07)" gradientUnits="userSpaceOnUse"><stop offset="0" stop-color="#fff"/><stop offset="0.09" stop-color="#f4f4f4"/><stop offset="0.24" stop-color="#d6d6d6"/><stop offset="0.44" stop-color="#a5a5a5"/><stop offset="0.69" stop-color="#616161"/><stop offset="0.96" stop-color="#0c0c0c"/><stop offset="1" stop-color="#010101"/></radialGradient><radialGradient id="radial-gradient-48" cx="113.65" cy="37.17" r="1.67" xlink:href="#radial-gradient-47"/><radialGradient id="radial-gradient-49" cx="94.31" cy="36.72" r="1.67" xlink:href="#radial-gradient-47"/><radialGradient id="radial-gradient-50" cx="100.55" cy="34.86" r="1.67" xlink:href="#radial-gradient-47"/><radialGradient id="radial-gradient-51" cx="102.26" cy="39.51" r="3.49" gradientTransform="translate(-9.98 35.58) scale(0.99 1.07)" gradientUnits="userSpaceOnUse"><stop offset="0.46" stop-color="#fff"/><stop offset="0.55" stop-color="#fcfcfa"/><stop offset="0.65" stop-color="#f5f2ed"/><stop offset="0.76" stop-color="#e9e3d6"/><stop offset="0.87" stop-color="#d8cdb7"/><stop offset="0.99" stop-color="#c2b28f"/><stop offset="1" stop-color="#bfae89"/></radialGradient><radialGradient id="radial-gradient-52" cx="109.99" cy="42.33" r="3.49" xlink:href="#radial-gradient-51"/><radialGradient id="radial-gradient-53" cx="106.21" cy="46.41" r="3.49" xlink:href="#radial-gradient-51"/><radialGradient id="radial-gradient-54" cx="101.1" cy="48.29" r="5.15" xlink:href="#radial-gradient-51"/><radialGradient id="radial-gradient-55" cx="108.18" cy="37.44" r="5.15" xlink:href="#radial-gradient-51"/><radialGradient id="radial-gradient-56" cx="104.53" cy="34.95" r="3.49" xlink:href="#radial-gradient-51"/><radialGradient id="radial-gradient-57" cx="92.4" cy="42.47" r="4.4" xlink:href="#radial-gradient-51"/><radialGradient id="radial-gradient-58" cx="102.98" cy="45.12" r="1.99" xlink:href="#radial-gradient-51"/><radialGradient id="radial-gradient-59" cx="106.37" cy="41.69" r="1.99" xlink:href="#radial-gradient-51"/><radialGradient id="radial-gradient-60" cx="113.53" cy="40.72" r="1.99" xlink:href="#radial-gradient-51"/><radialGradient id="radial-gradient-61" cx="103.24" cy="36.54" r="1.99" xlink:href="#radial-gradient-51"/><radialGradient id="radial-gradient-62" cx="96.2" cy="36.8" r="4.5" xlink:href="#radial-gradient-51"/><radialGradient id="radial-gradient-63" cx="97.16" cy="46.41" r="3.49" xlink:href="#radial-gradient-51"/><radialGradient id="radial-gradient-64" cx="88.52" cy="40.23" r="3.49" xlink:href="#radial-gradient-51"/><radialGradient id="radial-gradient-65" cx="86.5" cy="42.72" r="34.01" gradientTransform="translate(-29.26 23.85) scale(0.99 1.07)" xlink:href="#radial-gradient-51"/><linearGradient id="linear-gradient-51" x1="91.51" y1="85.67" x2="57.14" y2="92.01" gradientUnits="userSpaceOnUse"><stop offset="0" stop-color="#fff"/><stop offset="1" stop-color="#a8aaad"/></linearGradient><radialGradient id="radial-gradient-66" cx="115.76" cy="69.4" r="5.23" xlink:href="#radial-gradient-21"/><radialGradient id="radial-gradient-67" cx="116.06" cy="69.29" r="1.67" xlink:href="#radial-gradient-47"/><radialGradient id="radial-gradient-68" cx="117.5" cy="70.37" r="3.49" xlink:href="#radial-gradient-51"/><linearGradient id="New_Gradient_Swatch_copy_35-4" x1="57.72" y1="137.93" x2="54.99" y2="145.8" xlink:href="#New_Gradient_Swatch_copy_35"/><linearGradient id="New_Gradient_Swatch_copy_9-21" x1="54.95" y1="132.35" x2="44.76" y2="139.99" xlink:href="#New_Gradient_Swatch_copy_9"/><linearGradient id="New_Gradient_Swatch_copy_35-5" x1="61.14" y1="129.43" x2="66.76" y2="145.55" xlink:href="#New_Gradient_Swatch_copy_35"/><linearGradient id="New_Gradient_Swatch_copy_9-22" x1="70.16" y1="129.68" x2="53.4" y2="137.92" xlink:href="#New_Gradient_Swatch_copy_9"/></defs><title>camera</title><g class="cls-1"><g id="Calque_1" data-name="Calque 1"><path class="cls-2" d="M20.29,105.25l14.26,8.83a6.32,6.32,0,0,0,8.33-1.51L50,103.74l7.32-4.1,6.56,3.76,45.94-26.73L90.77,66.54,47.28,94.68Z" transform="translate(-19.28 -11.73)"/><path class="cls-3" d="M109.45,76.68,64.38,102.83,58,99.67l-5.4,2.44s-.81.4-.83.4-1.08.58-1.11.6l-5.5,6.42-.32.39-1.55,1.91c-1.7,2.1-4.9,3.4-7.24,2.42a5.77,5.77,0,0,1-.91-.36c-.07.06-2.31-1.25-2.4-1.25h0c-.07,0-1.94-1.13-2-1.17l-10-6.17L47.34,94.87l.32-.2L90.53,66.92l3.18,1.39Z" transform="translate(-19.28 -11.73)"/><path class="cls-4" d="M109,76.68,64.85,102.24l-6.3-2.55-5.43,1.88c-.05,0-.79.33-.84.33s-1,.53-1.1.57l-5.68,6.3s-.31.36-.33.39l-1.56,1.92c-1.53,1.89-5,3.74-7.07,2.86a5.15,5.15,0,0,1-.9-.24,26.24,26.24,0,0,1-2.43-1h0a22.77,22.77,0,0,1-2-1.12l-10-6.21L47.4,95.05l.32-.2L90.28,67.31l3.14,1.07Z" transform="translate(-19.28 -11.73)"/><path class="cls-5" d="M108.64,76.69l-43.32,25-6.17-1.95L53.7,101a6.52,6.52,0,0,0-.85.27,8.09,8.09,0,0,0-1.1.55L45.88,108s-.31.35-.34.39L44,110.32c-1.36,1.68-5,4.08-6.9,3.3a4.64,4.64,0,0,1-.89-.13c-.22.17-2.2-.81-2.47-.81h0a15.16,15.16,0,0,1-2.07-1.07l-10.08-6.24L47.46,95.24l.32-.2L90,67.7l3.11.75Z" transform="translate(-19.28 -11.73)"/><path class="cls-6" d="M108.24,76.69,65.79,101.08l-6-1.35-5.48.74c-.11-.06-.75.2-.86.2a5.91,5.91,0,0,0-1.1.52l-6,6a4.93,4.93,0,0,0-.35.38l-1.57,1.94c-1.19,1.47-5.09,4.42-6.73,3.74a4.25,4.25,0,0,1-.88,0c-.29.22-2.14-.59-2.5-.59h0a11.38,11.38,0,0,1-2.1-1L22,105.41l25.51-10,.32-.19L89.79,68.09l3.07.43Z" transform="translate(-19.28 -11.73)"/><path class="cls-7" d="M107.84,76.7,66.26,100.5l-5.92-.74-5.5.17c-.13-.08-.73.14-.87.14a4.62,4.62,0,0,0-1.09.5l-6.23,5.92a4,4,0,0,0-.36.38l-1.58,1.95c-1,1.26-5.16,4.77-6.56,4.18a4,4,0,0,1-.87.1c-.36.28-2.09-.37-2.53-.37h0a9.13,9.13,0,0,1-2.14-1l-10.19-6.31,25.15-9.85c.05,0,.28-.16.33-.19L89.54,68.47l3,.11Z" transform="translate(-19.28 -11.73)"/><path class="cls-8" d="M107.44,76.7,66.73,99.92l-5.79-.14-5.53-.4c-.16-.09-.71.08-.88.08a3.76,3.76,0,0,0-1.09.47L47,105.73a3.4,3.4,0,0,0-.36.38l-1.59,2c-.85,1-5.22,5.11-6.39,4.62a3.89,3.89,0,0,1-.86.21c-.43.33-2-.15-2.57-.15h0a7.65,7.65,0,0,1-2.17-.92L22.86,105.5l24.78-9.7A3.43,3.43,0,0,0,48,95.6L89.29,68.86l3-.21Z" transform="translate(-19.28 -11.73)"/><path class="cls-9" d="M107,76.7,67.2,99.34l-5.67.47-5.55-1c-.18-.11-.69,0-.89,0A3.15,3.15,0,0,0,54,99.3L47.42,105a3,3,0,0,0-.37.38l-1.6,2c-.68.84-5.28,5.45-6.22,5.06a3.9,3.9,0,0,1-.85.33c-.5.39-2,.07-2.6.07h0a6.61,6.61,0,0,1-2.2-.87l-10.3-6.38L47.7,96a3,3,0,0,0,.33-.18L89,69.25l3-.53Z" transform="translate(-19.28 -11.73)"/><path class="cls-10" d="M106.63,76.71l-39,22.05-5.54,1.07-5.57-1.53a2.23,2.23,0,0,0-.89-.05,2.7,2.7,0,0,0-1.09.42l-6.77,5.55a2.64,2.64,0,0,0-.38.38l-1.61,2c-.51.63-5.35,5.79-6,5.5-.26.18-.56.29-.84.44a6.49,6.49,0,0,1-2.64.29h0a5.84,5.84,0,0,1-2.23-.82l-10.35-6.41,24-9.41a2.59,2.59,0,0,0,.33-.18L88.8,69.64l2.92-.85Z" transform="translate(-19.28 -11.73)"/><path class="cls-11" d="M106.23,76.71,68.14,98.18l-5.41,1.67-5.6-2.1a2,2,0,0,0-.9-.12,2.35,2.35,0,0,0-1.08.4l-7,5.43a2.39,2.39,0,0,0-.39.38l-1.62,2c-.34.42-5.41,6.13-5.88,5.94a6.82,6.82,0,0,1-.83.56,5.51,5.51,0,0,1-2.67.51h0a5.25,5.25,0,0,1-2.27-.77l-10.4-6.44,23.67-9.27a2.32,2.32,0,0,0,.34-.18L88.55,70l2.88-1.17Z" transform="translate(-19.28 -11.73)"/><path class="cls-12" d="M105.83,76.72,68.61,97.6l-5.28,2.28L57.71,97.2a1.92,1.92,0,0,0-.91-.18,2.08,2.08,0,0,0-1.08.37l-7.13,5.3a2.19,2.19,0,0,0-.4.38l-1.62,2c-.17.21-5.48,6.48-5.71,6.38a5.51,5.51,0,0,1-.82.67,4.88,4.88,0,0,1-2.7.73h0a4.79,4.79,0,0,1-2.3-.72l-10.46-6.48,23.3-9.13a2.1,2.1,0,0,0,.34-.18L88.31,70.41l2.84-1.49Z" transform="translate(-19.28 -11.73)"/><path class="cls-13" d="M37.85,112.88a4.43,4.43,0,0,1-2.33-.67L25,105.7l22.94-9a1.91,1.91,0,0,0,.34-.17L90.86,69l14.56,7.74L63.93,99.9l-5.65-3.24a1.84,1.84,0,0,0-2,.1L49,101.93a2,2,0,0,0-.4.38l-7.17,8.83a4.57,4.57,0,0,1-3.54,1.74Z" transform="translate(-19.28 -11.73)"/><path class="cls-14" d="M106.26,42l7-8a1.83,1.83,0,0,1,1.29.17l5.6,3.64a1.8,1.8,0,0,1,.79,1.52V46a3.7,3.7,0,0,1-.81,1.91l-9.43,2Z" transform="translate(-19.28 -11.73)"/><path class="cls-15" d="M110.85,45.13v4.15a1,1,0,0,1-1.43.9l-3.29-2.07a1.06,1.06,0,0,1-.48-.9V43a1,1,0,0,1,1.44-.89l3.29,2.14A1.06,1.06,0,0,1,110.85,45.13Z" transform="translate(-19.28 -11.73)"/><path class="cls-16" d="M110.75,48a1.82,1.82,0,0,1-.68,1.6L97.13,57.43c-.53.32-.84,0-1.71-.56a6.63,6.63,0,0,1-2.89-5c0-.86-.22-1.13.29-1.38l13.09-7.85a2.27,2.27,0,0,1,2,.4A6.63,6.63,0,0,1,110.75,48Z" transform="translate(-19.28 -11.73)"/><path class="cls-17" d="M110.75,48a1.82,1.82,0,0,1-.68,1.6L97.13,57.43c-.53.32-.84,0-1.71-.56a6.63,6.63,0,0,1-2.89-5c0-.86-.22-1.13.29-1.38l13.09-7.85a2.27,2.27,0,0,1,2,.4A6.63,6.63,0,0,1,110.75,48Z" transform="translate(-19.28 -11.73)"/><path class="cls-18" d="M97.84,55.81c0,1.74-1.29,2.34-2.89,1.33a6.63,6.63,0,0,1-2.89-5c0-1.74,1.29-2.34,2.89-1.33A6.63,6.63,0,0,1,97.84,55.81Z" transform="translate(-19.28 -11.73)"/><polygon class="cls-19" points="44.67 61.39 44.67 90.6 30.8 81.86 30.8 52.36 44.67 61.39"/><polygon class="cls-20" points="43.71 61.99 31.77 54.23 31.77 81.25 43.71 88.77 43.71 61.99"/><polygon class="cls-21" points="44.64 61.39 44.64 90.6 82.12 67.05 82.12 37.55 44.64 61.39"/><polygon class="cls-22" points="81.15 66.44 81.15 39.4 45.61 62 45.61 88.77 81.15 66.44"/><polygon class="cls-23" points="82.12 37.55 44.64 61.39 30.8 52.36 68.36 28.63 82.12 37.55"/><polygon class="cls-24" points="80.21 37.55 68.35 29.86 32.71 52.38 44.64 60.16 80.21 37.55"/><polygon class="cls-25" points="57.56 65.16 60.92 71.63 82.24 58.15 81.45 50.05 57.56 65.16"/><polygon class="cls-26" points="61.42 59.33 61.42 67.78 57.4 65.25 57.4 56.72 61.42 59.33"/><polygon class="cls-27" points="61.41 59.33 61.41 67.78 84.91 52.97 84.91 44.44 61.41 59.33"/><polygon class="cls-28" points="84.91 44.44 61.41 59.33 57.4 56.72 80.93 41.86 84.91 44.44"/><polygon class="cls-29" points="79.05 35.94 55.83 50.74 46.18 44.45 69.46 29.72 79.05 35.94"/><polygon class="cls-30" points="46.46 36.18 46.46 56.54 36.79 50.45 36.79 29.89 46.46 36.18"/><polygon class="cls-31" points="46.43 36.18 46.43 56.54 69.66 41.94 69.66 21.38 46.43 36.18"/><polygon class="cls-32" points="69.66 21.38 46.43 36.18 36.79 29.89 60.06 15.16 69.66 21.38"/><path class="cls-33" d="M69.78,36.1c0,7.77,5.77,10.43,12.9,5.95s12.9-14.42,12.9-22.19S89.8,9.42,82.68,13.91,69.78,28.33,69.78,36.1Z" transform="translate(-19.28 -11.73)"/><path class="cls-34" d="M70.6,36.41c0,3.45,1.14,5.89,3,7.15l8.6,5.33c2.36,1.44,3.76-.06,7.62-2.49C97,41.92,102.72,32,102.72,24.21c0-3.81,1-5.05-1.3-6.16-.17-.08-9-5.55-9.21-5.62-2.3-.85-5.36-.33-8.72,1.79C76.37,18.71,70.6,28.64,70.6,36.41Z" transform="translate(-19.28 -11.73)"/><path class="cls-35" d="M78.48,41.37c0,7.77,5.77,10.43,12.9,5.95s12.9-14.42,12.9-22.19-5.77-10.43-12.9-5.95S78.48,33.6,78.48,41.37Z" transform="translate(-19.28 -11.73)"/><path class="cls-36" d="M79,41.66c0,7.77,5.77,10.43,12.9,5.95s12.9-14.42,12.9-22.19S99,15,91.91,19.47,79,33.89,79,41.66Z" transform="translate(-19.28 -11.73)"/><path class="cls-37" d="M79.73,41.29c0,7.36,5.47,9.88,12.21,5.63s12.21-13.65,12.21-21S98.68,16,91.94,20.28,79.73,33.93,79.73,41.29Z" transform="translate(-19.28 -11.73)"/><path class="cls-38" d="M88,35.53a2.15,2.15,0,0,0,.8,1.89l1.52.94c.62.38,1,0,2-.66a7.81,7.81,0,0,0,3.4-5.86c0-1,.25-1.33-.34-1.63,0,0-1.63-1-1.68-1a2.67,2.67,0,0,0-2.3.47A7.81,7.81,0,0,0,88,35.53Z" transform="translate(-19.28 -11.73)"/><path class="cls-39" d="M89.51,36.45c0,2.05,1.52,2.75,3.4,1.57a7.81,7.81,0,0,0,3.4-5.86c0-2.05-1.52-2.75-3.4-1.57A7.81,7.81,0,0,0,89.51,36.45Z" transform="translate(-19.28 -11.73)"/><path class="cls-40" d="M90.2,36c0,1.62,1.2,2.18,2.69,1.24a6.17,6.17,0,0,0,2.69-4.63c0-1.62-1.2-2.18-2.69-1.24A6.17,6.17,0,0,0,90.2,36Z" transform="translate(-19.28 -11.73)"/><path class="cls-41" d="M43.46,52.7c0,7.77,5.77,10.43,12.9,5.95s12.9-14.42,12.9-22.19S63.48,26,56.36,30.5,43.46,44.93,43.46,52.7Z" transform="translate(-19.28 -11.73)"/><path class="cls-42" d="M44.28,53c0,3.45,1.14,5.89,3,7.15l8.6,5.33c2.36,1.44,3.76-.06,7.62-2.49,7.12-4.49,12.9-14.42,12.9-22.19,0-3.81,1-5.05-1.3-6.16-.17-.08-9-5.55-9.21-5.62-2.3-.85-5.36-.33-8.72,1.79C50,35.3,44.28,45.24,44.28,53Z" transform="translate(-19.28 -11.73)"/><path class="cls-43" d="M52.16,58c0,7.77,5.77,10.43,12.9,5.95S78,49.49,78,41.72s-5.77-10.43-12.9-5.95S52.16,50.19,52.16,58Z" transform="translate(-19.28 -11.73)"/><path class="cls-44" d="M52.69,58.25c0,7.77,5.77,10.43,12.9,5.95S78.49,49.78,78.49,42s-5.77-10.43-12.9-5.95S52.69,50.48,52.69,58.25Z" transform="translate(-19.28 -11.73)"/><path class="cls-45" d="M53.41,57.88c0,7.36,5.47,9.88,12.21,5.63s12.21-13.65,12.21-21-5.47-9.88-12.21-5.63S53.41,50.53,53.41,57.88Z" transform="translate(-19.28 -11.73)"/><path class="cls-46" d="M61.72,52.13a2.15,2.15,0,0,0,.8,1.89L64,55c.62.38,1,0,2-.66a7.81,7.81,0,0,0,3.4-5.86c0-1,.25-1.33-.34-1.63,0,0-1.63-1-1.68-1a2.67,2.67,0,0,0-2.3.47A7.81,7.81,0,0,0,61.72,52.13Z" transform="translate(-19.28 -11.73)"/><path class="cls-47" d="M63.19,53c0,2.05,1.52,2.75,3.4,1.57A7.81,7.81,0,0,0,70,48.75c0-2.05-1.52-2.75-3.4-1.57A7.81,7.81,0,0,0,63.19,53Z" transform="translate(-19.28 -11.73)"/><path class="cls-48" d="M63.88,52.56c0,1.62,1.2,2.18,2.69,1.24a6.17,6.17,0,0,0,2.69-4.63c0-1.62-1.2-2.18-2.69-1.24A6.17,6.17,0,0,0,63.88,52.56Z" transform="translate(-19.28 -11.73)"/><path class="cls-49" d="M83.57,73.06a1.47,1.47,0,0,0,.55,1.29l1,.64c.43.26.68,0,1.38-.45a5.35,5.35,0,0,0,2.33-4c0-.69.17-.91-.23-1.11l-1.15-.7A1.83,1.83,0,0,0,85.9,69,5.35,5.35,0,0,0,83.57,73.06Z" transform="translate(-19.28 -11.73)"/><path class="cls-50" d="M84.58,73.69c0,1.4,1,1.89,2.33,1.08a5.35,5.35,0,0,0,2.33-4c0-1.4-1-1.89-2.33-1.08A5.35,5.35,0,0,0,84.58,73.69Z" transform="translate(-19.28 -11.73)"/><path class="cls-51" d="M85,73.36c0,1.11.82,1.49,1.84.85A4.23,4.23,0,0,0,88.74,71c0-1.11-.82-1.49-1.84-.85A4.23,4.23,0,0,0,85,73.36Z" transform="translate(-19.28 -11.73)"/><path class="cls-52" d="M61,84.9a3.08,3.08,0,0,1-1.15,2.71L57.72,89c-.9.55-1.42,0-2.89-.94a11.21,11.21,0,0,1-4.89-8.41c0-1.45-.36-1.92.49-2.34.06,0,2.34-1.43,2.41-1.46a3.84,3.84,0,0,1,3.31.68A11.21,11.21,0,0,1,61,84.9Z" transform="translate(-19.28 -11.73)"/><path class="cls-53" d="M59.2,86c0,2.95-2.19,4-4.89,2.25a11.21,11.21,0,0,1-4.89-8.41c0-2.95,2.19-4,4.89-2.25A11.21,11.21,0,0,1,59.2,86Z" transform="translate(-19.28 -11.73)"/><path class="cls-54" d="M58.93,86.22c0,2.95-2.19,4-4.89,2.25a11.21,11.21,0,0,1-4.89-8.41c0-2.95,2.19-4,4.89-2.25A11.21,11.21,0,0,1,58.93,86.22Z" transform="translate(-19.28 -11.73)"/><path class="cls-55" d="M57.33,86.13a2.59,2.59,0,0,1-1,2.28l-8.9,5.45c-.75.46-1.2,0-2.43-.79A9.43,9.43,0,0,1,40.93,86c0-1.22-.31-1.61.41-2,.05,0,9-5.52,9.09-5.54a3.23,3.23,0,0,1,2.78.57A9.43,9.43,0,0,1,57.33,86.13Z" transform="translate(-19.28 -11.73)"/><path class="cls-56" d="M57.33,86.13a2.59,2.59,0,0,1-1,2.28l-8.9,5.45c-.75.46-1.2,0-2.43-.79A9.43,9.43,0,0,1,40.93,86c0-1.22-.31-1.61.41-2,.05,0,9-5.52,9.09-5.54a3.23,3.23,0,0,1,2.78.57A9.43,9.43,0,0,1,57.33,86.13Z" transform="translate(-19.28 -11.73)"/><path class="cls-18" d="M48.49,91.55c0,2.48-1.84,3.33-4.11,1.9a9.43,9.43,0,0,1-4.11-7.08c0-2.48,1.84-3.33,4.11-1.9A9.43,9.43,0,0,1,48.49,91.55Z" transform="translate(-19.28 -11.73)"/><path class="cls-57" d="M96.33,65a1.47,1.47,0,0,0,.55,1.29l1,.64c.43.26.68,0,1.38-.45a5.35,5.35,0,0,0,2.33-4c0-.69.17-.91-.23-1.11l-1.15-.7a1.83,1.83,0,0,0-1.58.32A5.35,5.35,0,0,0,96.33,65Z" transform="translate(-19.28 -11.73)"/><path class="cls-58" d="M97.34,65.58c0,1.4,1,1.89,2.33,1.08a5.35,5.35,0,0,0,2.33-4c0-1.4-1-1.89-2.33-1.08A5.35,5.35,0,0,0,97.34,65.58Z" transform="translate(-19.28 -11.73)"/><path class="cls-59" d="M97.81,65.26c0,1.11.82,1.49,1.84.85a4.23,4.23,0,0,0,1.84-3.17c0-1.11-.82-1.49-1.84-.85A4.23,4.23,0,0,0,97.81,65.26Z" transform="translate(-19.28 -11.73)"/><path class="cls-60" d="M92.56,69.19a.91.91,0,0,0,.34.8l.64.4c.26.16.42,0,.85-.28a3.31,3.31,0,0,0,1.44-2.48c0-.43.11-.57-.15-.69L95,66.51a1.13,1.13,0,0,0-1,.2A3.31,3.31,0,0,0,92.56,69.19Z" transform="translate(-19.28 -11.73)"/><path class="cls-61" d="M93.19,69.58c0,.87.65,1.17,1.44.67a3.31,3.31,0,0,0,1.44-2.48c0-.87-.65-1.17-1.44-.67A3.31,3.31,0,0,0,93.19,69.58Z" transform="translate(-19.28 -11.73)"/><path class="cls-62" d="M93.48,69.38c0,.69.51.92,1.14.53a2.61,2.61,0,0,0,1.14-2c0-.69-.51-.92-1.14-.53A2.61,2.61,0,0,0,93.48,69.38Z" transform="translate(-19.28 -11.73)"/><path class="cls-63" d="M21.7,81.36,45,81.23a1.41,1.41,0,0,1,1,.13l4.31,2.8a1.39,1.39,0,0,1,.61,1.17v5.13a2.85,2.85,0,0,1-.62,1.47l-11,21.17Z" transform="translate(-19.28 -11.73)"/><path class="cls-64" d="M40.09,93.86a4.25,4.25,0,0,0-1.86-3.57l-2.4-1.56,13.1-5.46,1.38.9a1.39,1.39,0,0,1,.61,1.17v1.39L40.09,96.24Z" transform="translate(-19.28 -11.73)"/><path class="cls-65" d="M40.09,93.86v16.62c0,3.2-3.18,5.2-5.72,3.6l-13.18-8.3a4.24,4.24,0,0,1-1.91-3.6V85.28c0-3.23,3.23-5.23,5.77-3.57l13.18,8.58A4.25,4.25,0,0,1,40.09,93.86Z" transform="translate(-19.28 -11.73)"/><path class="cls-66" d="M38.23,90.29,25,81.71a3.52,3.52,0,0,0-4.16.19,3.5,3.5,0,0,1,3.77.08l13.18,8.58a4.25,4.25,0,0,1,1.86,3.57v16.62a4.23,4.23,0,0,1-1.6,3.38,4.18,4.18,0,0,0,2-3.65V93.86A4.25,4.25,0,0,0,38.23,90.29Z" transform="translate(-19.28 -11.73)"/><path class="cls-67" d="M39,94.54v15.3c0,2.95-2.93,4.79-5.27,3.32l-12.14-7.64a3.91,3.91,0,0,1-1.76-3.32V86.64c0-3,3-4.81,5.31-3.29l12.14,7.9A3.91,3.91,0,0,1,39,94.54Z" transform="translate(-19.28 -11.73)"/><path class="cls-68" d="M39,94.54a4.15,4.15,0,0,0-.12-1l-19,4.94v3.72a4.14,4.14,0,0,0,.06.68,5.62,5.62,0,0,0,.67,1.65,3.62,3.62,0,0,0,1,1l1.31.82.06,0L39,95.3Z" transform="translate(-19.28 -11.73)"/><path class="cls-69" d="M110.81,44,118.9,37l1.21.78a1.8,1.8,0,0,1,.79,1.52v3.14Z" transform="translate(-19.28 -11.73)"/><path class="cls-70" d="M56.12,31.51c2.82,1.64,4.5,4.2,3.75,5.72s-3.63,1.43-6.44-.21-4.5-4.2-3.75-5.72S53.31,29.87,56.12,31.51Z" transform="translate(-19.28 -11.73)"/><path class="cls-71" d="M83.12,14.75c2.82,1.64,4.5,4.2,3.75,5.72s-3.63,1.43-6.44-.21-4.5-4.2-3.75-5.72S80.31,13.11,83.12,14.75Z" transform="translate(-19.28 -11.73)"/><path class="cls-72" d="M92.61,29c2.82,1.64,4.5,4.2,3.75,5.72s-3.63,1.43-6.44-.21-4.5-4.2-3.75-5.72S89.8,27.35,92.61,29Z" transform="translate(-19.28 -11.73)"/><path class="cls-73" d="M66.71,45.81c2.82,1.64,4.5,4.2,3.75,5.72S66.84,53,64,51.32s-4.5-4.2-3.75-5.72S63.9,44.17,66.71,45.81Z" transform="translate(-19.28 -11.73)"/><path class="cls-74" d="M54.69,76.77c2.78-1.71,5.66-1.89,6.44-.39s-.84,4.11-3.62,5.82-5.66,1.89-6.44.39S51.91,78.49,54.69,76.77Z" transform="translate(-19.28 -11.73)"/><path class="cls-75" d="M37.78,88.74c2.78-1.71,5.66-1.89,6.44-.39s-.84,4.11-3.62,5.82-5.66,1.89-6.44.39S35,90.46,37.78,88.74Z" transform="translate(-19.28 -11.73)"/><ellipse class="cls-76" cx="97.03" cy="88.02" rx="13.97" ry="7.47"/><ellipse class="cls-77" cx="96.98" cy="88.01" rx="13.54" ry="7.24"/><ellipse class="cls-78" cx="96.92" cy="88.01" rx="13.11" ry="7.01"/><ellipse class="cls-79" cx="96.86" cy="88" rx="12.68" ry="6.78"/><ellipse class="cls-80" cx="96.8" cy="87.99" rx="12.25" ry="6.56"/><ellipse class="cls-81" cx="96.74" cy="87.98" rx="11.83" ry="6.33"/><ellipse class="cls-82" cx="96.69" cy="87.98" rx="11.4" ry="6.1"/><ellipse class="cls-83" cx="96.63" cy="87.97" rx="10.97" ry="5.87"/><ellipse class="cls-84" cx="96.57" cy="87.96" rx="10.54" ry="5.64"/><ellipse class="cls-85" cx="96.51" cy="87.95" rx="10.11" ry="5.41"/><ellipse class="cls-86" cx="96.45" cy="87.95" rx="9.68" ry="5.18"/><ellipse class="cls-87" cx="96.39" cy="87.94" rx="9.25" ry="4.95"/><ellipse class="cls-88" cx="96.34" cy="87.93" rx="8.82" ry="4.72"/><ellipse class="cls-89" cx="96.28" cy="87.92" rx="8.39" ry="4.49"/><ellipse class="cls-90" cx="96.22" cy="87.92" rx="7.97" ry="4.26"/><ellipse class="cls-91" cx="96.16" cy="87.91" rx="7.54" ry="4.03"/><ellipse class="cls-92" cx="96.1" cy="87.9" rx="7.11" ry="3.8"/><ellipse class="cls-93" cx="96.05" cy="87.89" rx="6.68" ry="3.57"/><ellipse class="cls-94" cx="95.99" cy="87.88" rx="6.25" ry="3.34"/><ellipse class="cls-95" cx="95.93" cy="87.88" rx="5.82" ry="3.11"/><ellipse class="cls-96" cx="95.87" cy="87.87" rx="5.39" ry="2.88"/><ellipse class="cls-13" cx="95.81" cy="87.86" rx="4.96" ry="2.65"/><path class="cls-97" d="M100.26,59.2l3.65,40.66c0,3.34,4.26,6,9.51,6s9.51-2.71,9.51-6l3.52-40.66Z" transform="translate(-19.28 -11.73)"/><path class="cls-98" d="M120.06,59.2H109c.26,3.74-.07,7.08,5.5,16.39,7.25,12.12,3.13,17.69-3.69,30.08a14.67,14.67,0,0,0,2.62.23,14.52,14.52,0,0,0,3.08-.33c7.28-20.61-.86-31,1.05-38.69A35.36,35.36,0,0,1,120.06,59.2Z" transform="translate(-19.28 -11.73)"/><path class="cls-99" d="M122.94,98.93c0,3.34-4.26,6-9.51,6s-9.51-2.71-9.51-6v1.15c0,3.34,4.26,6,9.51,6s9.51-2.71,9.51-6Z" transform="translate(-19.28 -11.73)"/><path class="cls-100" d="M113.43,65.49c-5.51,0-10.3-1.93-12.8-4.79h-.23l.47,5.28c2.11,3.42,7.35,5.84,13.48,5.84a18.47,18.47,0,0,0,11.32-3.46l.66-7.66h-.11C123.73,63.56,118.93,65.49,113.43,65.49Z" transform="translate(-19.28 -11.73)"/><ellipse class="cls-101" cx="94.15" cy="46.33" rx="13.37" ry="8.49"/><path class="cls-102" d="M100.39,60.15s.25,1.33.27,1.38c4,16.16,6.09,42.82,7.94,42.4s4.28-29.77,2.16-44.73c0-.05-.27-1.38-.27-1.38Z" transform="translate(-19.28 -11.73)"/><g class="cls-103"><path class="cls-104" d="M128.05,57.71H98.8v1.81h0s0,.09,0,.13c0,5.13,6.55,9.29,14.63,9.29s14.63-4.16,14.63-9.29c0,0,0-.09,0-.13h0Z" transform="translate(-19.28 -11.73)"/><ellipse class="cls-105" cx="94.15" cy="46.05" rx="14.63" ry="9.29"/><path class="cls-106" d="M127.13,56H99.72v1.7h0s0,.08,0,.12c0,4.81,6.14,8.71,13.71,8.71s13.71-3.9,13.71-8.71c0,0,0-.08,0-.12h0Z" transform="translate(-19.28 -11.73)"/><ellipse class="cls-107" cx="94.15" cy="44.32" rx="13.71" ry="8.71"/><path class="cls-108" d="M124.69,58.75v0s0,0,0,0Z" transform="translate(-19.28 -11.73)"/><path class="cls-109" d="M102.16,58.75s0,0,0,0v0Z" transform="translate(-19.28 -11.73)"/><path class="cls-110" d="M113.43,50.87c6.22,0,11.27,3.2,11.27,7.16V56.68h0s0-.07,0-.1c0-4-5-7.16-11.27-7.16s-11.27,3.2-11.27,7.16c0,0,0,.07,0,.1h0V58C102.16,54.07,107.2,50.87,113.43,50.87Z" transform="translate(-19.28 -11.73)"/><path class="cls-111" d="M113.43,64.52c-7.41,0-13.43-3.74-13.68-8.41,0,.1,0,.2,0,.3,0,4.81,6.14,8.71,13.71,8.71s13.71-3.9,13.71-8.71c0-.1,0-.2,0-.3C126.86,60.79,120.84,64.52,113.43,64.52Z" transform="translate(-19.28 -11.73)"/><path class="cls-112" d="M120.67,55H106.18v1.45h0s0,0,0,.06c0,2.54,3.24,4.6,7.24,4.6s7.24-2.06,7.24-4.6c0,0,0,0,0-.06h0Z" transform="translate(-19.28 -11.73)"/><ellipse class="cls-113" cx="94.15" cy="43.29" rx="7.24" ry="4.6"/><path class="cls-114" d="M113.43,59.49c-3.91,0-7.1-2-7.23-4.44,0,.05,0,.11,0,.16,0,2.54,3.24,4.6,7.24,4.6s7.24-2.06,7.24-4.6c0-.05,0-.11,0-.16C120.52,57.52,117.34,59.49,113.43,59.49Z" transform="translate(-19.28 -11.73)"/><polygon class="cls-13" points="95.23 43.01 97.69 45.16 94.27 43.62 90.86 45.15 93.3 43.01 90.84 40.85 94.26 42.4 97.67 40.87 95.23 43.01"/></g><path class="cls-115" d="M120.48,48c3,1.12,5.05,3.35,4.55,5s-3.37,2-6.39.92-5.05-3.35-4.55-5S117.46,46.83,120.48,48Z" transform="translate(-19.28 -11.73)"/><path class="cls-116" d="M126.64,35.14c-.29-.64-.88-1-1.3-.75l0,0-8.57,3.94a6.33,6.33,0,0,0-3.55,5.38l-.74,10.58a.75.75,0,0,0,0,.19s0,0,0,.06h0a1.12,1.12,0,0,0,1.2.87,1.2,1.2,0,0,0,1.15-.67h0v0a.75.75,0,0,0,0-.22.72.72,0,0,0,0-.11l.73-10.47a3.75,3.75,0,0,1,2.11-3.19l8.66-4h0l.09,0A1.24,1.24,0,0,0,126.64,35.14Z" transform="translate(-19.28 -11.73)"/><path class="cls-117" d="M113.28,54.42a.62.62,0,0,1-.4-.13s0-.06,0-.08l.74-10.58A5.47,5.47,0,0,1,116.7,39L125.27,35l0,0a.7.7,0,0,1,.28.34.79.79,0,0,1,.08.44l-8.65,4a4.61,4.61,0,0,0-2.59,3.92l-.73,10.47a.93.93,0,0,0,0,.13A.62.62,0,0,1,113.28,54.42Z" transform="translate(-19.28 -11.73)"/><path class="cls-13" d="M65.12,122.94l25,15.55a4,4,0,0,0,4.52-.18l21.88-15.94a1.27,1.27,0,0,0,.25-1.75h0l-24.43,15L67,119.4l-1.93,1.3A1.37,1.37,0,0,0,65.12,122.94Z" transform="translate(-19.28 -11.73)"/><path class="cls-118" d="M86.24,102.18h0c-.4.25-.77.2-.94-.15l-.41-.81c-.38-.75-1.17-.87-2-.32L76,105.18a8.92,8.92,0,0,0-2.93,3.39h0a10.85,10.85,0,0,1-3.56,4.12L63,116.78v-7.19L83,97c2.34-1.47,4.24-.29,4.24,2.64v.58A2.57,2.57,0,0,1,86.24,102.18Z" transform="translate(-19.28 -11.73)"/><path class="cls-119" d="M86.44,102.46h0c-.4.25-.77.2-.94-.15l-.41-.81c-.38-.75-1.17-.87-2-.32l-6.81,4.29a8.92,8.92,0,0,0-2.93,3.39h0A10.85,10.85,0,0,1,69.74,113l-6.5,4.09v-7.19l20-12.6c2.34-1.47,4.24-.29,4.24,2.64v.58A2.57,2.57,0,0,1,86.44,102.46Z" transform="translate(-19.28 -11.73)"/><path class="cls-120" d="M64.71,117.22v-2c0-1.37.76-2,1.71-1.41l7.68,4.84a4.59,4.59,0,0,1,1.71,3.56v2c0,1.37-.76,2-1.71,1.41l-7.68-4.84A4.59,4.59,0,0,1,64.71,117.22Z" transform="translate(-19.28 -11.73)"/><path class="cls-121" d="M74.38,125.31l-7.68-4.84A4.59,4.59,0,0,1,65,116.92v-2a2.24,2.24,0,0,1,.27-1.17,1.76,1.76,0,0,0-.55,1.48v2a4.59,4.59,0,0,0,1.71,3.56l7.68,4.84a.94.94,0,0,0,1.43-.24A1,1,0,0,1,74.38,125.31Z" transform="translate(-19.28 -11.73)"/><path class="cls-122" d="M81,127.49v-2c0-1.37.76-2,1.71-1.41l7.68,4.84a4.59,4.59,0,0,1,1.71,3.56v2c0,1.37-.76,2-1.71,1.41L82.72,131A4.59,4.59,0,0,1,81,127.49Z" transform="translate(-19.28 -11.73)"/><path class="cls-123" d="M90.68,135.58,83,130.74a4.59,4.59,0,0,1-1.71-3.56v-2a2.24,2.24,0,0,1,.27-1.17,1.76,1.76,0,0,0-.55,1.48v2A4.59,4.59,0,0,0,82.72,131l7.68,4.84a.94.94,0,0,0,1.43-.24A1,1,0,0,1,90.68,135.58Z" transform="translate(-19.28 -11.73)"/><path class="cls-124" d="M63.2,109.44v8.23a5.93,5.93,0,0,0,2.42,4.55L74.74,128c1.26.79,2.37.46,2.73-.81.14-.48.56-.61,1-.31l.19.12a2.65,2.65,0,0,1,1,1.61,7,7,0,0,0,2.73,4.25l9.12,5.75c1.34.84,2.42.17,2.42-1.5v-8.23ZM76,124.14c0,1.37-.76,2-1.71,1.41l-7.68-4.84a4.59,4.59,0,0,1-1.71-3.56v-2c0-1.37.76-2,1.71-1.41l7.68,4.84A4.59,4.59,0,0,1,76,122.12Zm16.3,10.27c0,1.37-.76,2-1.71,1.41L82.92,131a4.59,4.59,0,0,1-1.71-3.56v-2c0-1.37.76-2,1.71-1.41l7.68,4.84a4.59,4.59,0,0,1,1.71,3.56Z" transform="translate(-19.28 -11.73)"/><path class="cls-125" d="M63,109.51v8.23a5.93,5.93,0,0,0,2.42,4.55L74.54,128c1.26.79,2.37.46,2.73-.81.14-.48.56-.61,1-.31l.19.12a2.65,2.65,0,0,1,1,1.61,7,7,0,0,0,2.73,4.25l9.12,5.75c1.34.84,2.42.17,2.42-1.5v-8.23Zm12.8,14.7c0,1.37-.76,2-1.71,1.41l-7.68-4.84a4.59,4.59,0,0,1-1.71-3.56v-2c0-1.37.76-2,1.71-1.41l7.68,4.84a4.59,4.59,0,0,1,1.71,3.56Zm16.3,10.27c0,1.37-.76,2-1.71,1.41L82.72,131A4.59,4.59,0,0,1,81,127.49v-2c0-1.37.76-2,1.71-1.41l7.68,4.84a4.59,4.59,0,0,1,1.71,3.56Z" transform="translate(-19.28 -11.73)"/><path class="cls-126" d="M116.73,121.39h0c-.4.25-.77.2-.94-.15l-.41-.81c-.38-.75-1.17-.87-2-.32l-6.81,4.29a8.92,8.92,0,0,0-2.93,3.39h0A10.85,10.85,0,0,1,100,131.9L93.54,136V128.8l20-12.6c2.34-1.47,4.24-.29,4.24,2.64v.58A2.57,2.57,0,0,1,116.73,121.39Z" transform="translate(-19.28 -11.73)"/><path class="cls-127" d="M117,121.53h0c-.4.25-.77.2-.94-.15l-.41-.81c-.38-.75-1.17-.87-2-.32l-6.81,4.29a8.92,8.92,0,0,0-2.93,3.39h0a10.85,10.85,0,0,1-3.56,4.12l-6.5,4.09v-7.19l20-12.6c2.34-1.47,4.24-.29,4.24,2.64v.58A2.57,2.57,0,0,1,117,121.53Z" transform="translate(-19.28 -11.73)"/><polygon class="cls-2" points="71.73 108.13 82.62 101.19 93.5 94.24 89.73 92.74 91.05 80.47 92.37 68.2 79.51 83.34 67.96 90.95 56.41 98.55 71.73 108.13"/><polygon class="cls-128" points="71.75 107.98 82.28 101.27 92.46 94.78 89.66 93.3 89.64 82.38 89.63 71.47 79.11 83.12 77.24 85.2 66.44 92.32 57.76 99.24 71.75 107.98"/><polygon class="cls-129" points="71.76 107.83 81.94 101.35 91.41 95.31 89.6 93.86 88.24 84.3 86.88 74.73 76.77 85.2 74.96 87.07 64.93 93.69 59.11 99.93 71.76 107.83"/><polygon class="cls-130" points="71.78 107.68 81.6 101.43 90.37 95.84 89.53 94.42 86.83 86.21 84.14 78 74.42 87.27 72.69 88.93 63.41 95.07 60.46 100.62 71.78 107.68"/><polygon class="cls-131" points="71.8 107.53 81.26 101.51 89.32 96.38 89.46 94.99 85.43 88.13 81.4 81.27 72.08 89.35 70.41 90.79 61.89 96.44 61.8 101.31 71.8 107.53"/><polygon class="cls-132" points="71.81 107.38 80.92 101.59 88.28 96.91 89.39 95.55 84.02 90.04 78.66 84.53 69.73 91.42 68.13 92.65 60.37 97.81 63.15 102 71.81 107.38"/><polygon class="cls-13" points="71.83 107.23 80.58 101.67 89.32 96.11 75.91 87.8 67.38 93.49 58.85 99.19 71.83 107.23"/><polygon class="cls-133" points="92.37 67.64 84.7 99.24 71.76 90.91 71.84 54.59 92.37 67.64"/><polygon class="cls-134" points="51.29 67.64 58.96 98.85 71.9 90.52 71.82 54.59 51.29 67.64"/><path class="cls-135" d="M93.06,70.1a1.89,1.89,0,0,0-1.8-2,1.82,1.82,0,0,0-1.71,1.37,1.67,1.67,0,0,0-.69-.15,2,2,0,0,0-.06,3.92,2.12,2.12,0,0,0,2,1.88,2.16,2.16,0,0,0,2.06-2.25,2.37,2.37,0,0,0-.42-1.36A2,2,0,0,0,93.06,70.1Z" transform="translate(-19.28 -11.73)"/><path class="cls-136" d="M96.75,71.15a2.08,2.08,0,0,0-1.94-1.5,2.16,2.16,0,0,0-2.06,2.25A2.4,2.4,0,0,0,93,73a2.05,2.05,0,0,0-.51,1.36,1.89,1.89,0,0,0,1.8,2A1.82,1.82,0,0,0,96,74.93a1.67,1.67,0,0,0,.69.15,2,2,0,0,0,.05-3.92Z" transform="translate(-19.28 -11.73)"/><path class="cls-137" d="M91.07,73.26a2.08,2.08,0,0,0-1.94-1.5A2.16,2.16,0,0,0,87.07,74a2.4,2.4,0,0,0,.25,1.07,2.05,2.05,0,0,0-.51,1.36,1.89,1.89,0,0,0,1.8,2A1.82,1.82,0,0,0,90.32,77a1.67,1.67,0,0,0,.69.15,2,2,0,0,0,.05-3.92Z" transform="translate(-19.28 -11.73)"/><path class="cls-138" d="M96.8,76.17a1.89,1.89,0,0,0-1.8-2,1.82,1.82,0,0,0-1.71,1.37,1.67,1.67,0,0,0-.69-.15,2,2,0,0,0-.06,3.92,2.12,2.12,0,0,0,2,1.88A2.16,2.16,0,0,0,96.62,79a2.37,2.37,0,0,0-.42-1.36A2,2,0,0,0,96.8,76.17Z" transform="translate(-19.28 -11.73)"/><path class="cls-139" d="M87.19,71.93a1.89,1.89,0,0,0-1.8-2,1.82,1.82,0,0,0-1.71,1.37,1.67,1.67,0,0,0-.69-.15,2,2,0,0,0-.06,3.92A2.12,2.12,0,0,0,85,77,2.16,2.16,0,0,0,87,74.73a2.37,2.37,0,0,0-.42-1.36A2,2,0,0,0,87.19,71.93Z" transform="translate(-19.28 -11.73)"/><path class="cls-140" d="M91.73,73.91a2.08,2.08,0,0,0-1.94-1.5,2.16,2.16,0,0,0-2.06,2.25A2.4,2.4,0,0,0,88,75.72a2.05,2.05,0,0,0-.51,1.36,1.89,1.89,0,0,0,1.8,2A1.82,1.82,0,0,0,91,77.68a1.67,1.67,0,0,0,.69.15,2,2,0,0,0,.05-3.92Z" transform="translate(-19.28 -11.73)"/><path class="cls-141" d="M82.49,75.74a2.08,2.08,0,0,0-1.94-1.5,2.16,2.16,0,0,0-2.06,2.25,2.4,2.4,0,0,0,.25,1.07,2.05,2.05,0,0,0-.51,1.36,1.89,1.89,0,0,0,1.8,2,1.82,1.82,0,0,0,1.71-1.37,1.67,1.67,0,0,0,.69.15,2,2,0,0,0,.05-3.92Z" transform="translate(-19.28 -11.73)"/><path class="cls-142" d="M87.53,74.49a1.89,1.89,0,0,0-1.8-2A1.82,1.82,0,0,0,84,73.89a1.67,1.67,0,0,0-.69-.15,2,2,0,0,0-.06,3.92,2.12,2.12,0,0,0,2,1.88,2.16,2.16,0,0,0,2.06-2.25,2.37,2.37,0,0,0-.42-1.36A2,2,0,0,0,87.53,74.49Z" transform="translate(-19.28 -11.73)"/><path class="cls-143" d="M89.85,78.65a1.89,1.89,0,0,0-1.8-2,1.82,1.82,0,0,0-1.71,1.37,1.67,1.67,0,0,0-.69-.15,2,2,0,0,0-.06,3.92,2.12,2.12,0,0,0,2,1.88,2.16,2.16,0,0,0,2.06-2.25,2.37,2.37,0,0,0-.42-1.36A2,2,0,0,0,89.85,78.65Z" transform="translate(-19.28 -11.73)"/><path class="cls-144" d="M80.15,78.24a1.89,1.89,0,0,0-1.8-2,1.82,1.82,0,0,0-1.71,1.37,1.67,1.67,0,0,0-.69-.15,2,2,0,0,0-.06,3.92,2.12,2.12,0,0,0,2,1.88A2.16,2.16,0,0,0,80,81.05a2.37,2.37,0,0,0-.42-1.36A2,2,0,0,0,80.15,78.24Z" transform="translate(-19.28 -11.73)"/><path class="cls-145" d="M83.84,79.3a2.08,2.08,0,0,0-1.94-1.5A2.16,2.16,0,0,0,79.84,80a2.4,2.4,0,0,0,.25,1.07,2.05,2.05,0,0,0-.51,1.36,1.89,1.89,0,0,0,1.8,2,1.82,1.82,0,0,0,1.71-1.37,1.67,1.67,0,0,0,.69.15,2,2,0,0,0,.05-3.92Z" transform="translate(-19.28 -11.73)"/><path class="cls-146" d="M78.16,81.4a2.08,2.08,0,0,0-1.94-1.5,2.16,2.16,0,0,0-2.06,2.25,2.4,2.4,0,0,0,.25,1.07,2.05,2.05,0,0,0-.51,1.36,1.89,1.89,0,0,0,1.8,2,1.82,1.82,0,0,0,1.71-1.37,1.67,1.67,0,0,0,.69.15,2,2,0,0,0,.05-3.92Z" transform="translate(-19.28 -11.73)"/><path class="cls-147" d="M83.89,84.32a1.89,1.89,0,0,0-1.8-2,1.82,1.82,0,0,0-1.71,1.37,1.67,1.67,0,0,0-.69-.15,2,2,0,0,0-.06,3.92,2.12,2.12,0,0,0,2,1.88,2.16,2.16,0,0,0,2.06-2.25,2.37,2.37,0,0,0-.42-1.36A2,2,0,0,0,83.89,84.32Z" transform="translate(-19.28 -11.73)"/><path class="cls-148" d="M100.91,74.73a1.89,1.89,0,0,0-1.8-2,1.82,1.82,0,0,0-1.71,1.37,1.67,1.67,0,0,0-.69-.15,2,2,0,0,0-.06,3.92,2.12,2.12,0,0,0,2,1.88,2.16,2.16,0,0,0,2.06-2.25,2.37,2.37,0,0,0-.42-1.36A2,2,0,0,0,100.91,74.73Z" transform="translate(-19.28 -11.73)"/><path class="cls-149" d="M104.6,75.79a2.08,2.08,0,0,0-1.94-1.5,2.16,2.16,0,0,0-2.06,2.25,2.4,2.4,0,0,0,.25,1.07,2.05,2.05,0,0,0-.51,1.36,1.89,1.89,0,0,0,1.8,2,1.82,1.82,0,0,0,1.71-1.37,1.67,1.67,0,0,0,.69.15,2,2,0,0,0,.05-3.92Z" transform="translate(-19.28 -11.73)"/><path class="cls-150" d="M98.92,77.89A2.08,2.08,0,0,0,97,76.39a2.16,2.16,0,0,0-2.06,2.25,2.4,2.4,0,0,0,.25,1.07,2.05,2.05,0,0,0-.51,1.36,1.89,1.89,0,0,0,1.8,2,1.82,1.82,0,0,0,1.71-1.37,1.67,1.67,0,0,0,.69.15,2,2,0,0,0,.05-3.92Z" transform="translate(-19.28 -11.73)"/><path class="cls-151" d="M104.65,80.81a1.89,1.89,0,0,0-1.8-2,1.82,1.82,0,0,0-1.71,1.37,1.67,1.67,0,0,0-.69-.15,2,2,0,0,0-.06,3.92,2.12,2.12,0,0,0,2,1.88,2.16,2.16,0,0,0,2.06-2.25,2.37,2.37,0,0,0-.42-1.36A2,2,0,0,0,104.65,80.81Z" transform="translate(-19.28 -11.73)"/><path class="cls-152" d="M95.77,78.2a1.89,1.89,0,0,0-1.8-2,1.82,1.82,0,0,0-1.71,1.37,1.67,1.67,0,0,0-.69-.15,2,2,0,0,0-.06,3.92,2.12,2.12,0,0,0,2,1.88A2.16,2.16,0,0,0,95.59,81a2.37,2.37,0,0,0-.42-1.36A2,2,0,0,0,95.77,78.2Z" transform="translate(-19.28 -11.73)"/><path class="cls-153" d="M99.49,80.32a2.08,2.08,0,0,0-1.94-1.5,2.16,2.16,0,0,0-2.06,2.25,2.4,2.4,0,0,0,.25,1.07,2.05,2.05,0,0,0-.51,1.36,1.89,1.89,0,0,0,1.8,2,1.82,1.82,0,0,0,1.71-1.37,1.67,1.67,0,0,0,.69.15,2,2,0,0,0,.05-3.92Z" transform="translate(-19.28 -11.73)"/><path class="cls-154" d="M91.41,81a2.08,2.08,0,0,0-1.94-1.5,2.16,2.16,0,0,0-2.06,2.25,2.4,2.4,0,0,0,.25,1.07,2.05,2.05,0,0,0-.51,1.36,1.89,1.89,0,0,0,1.8,2,1.82,1.82,0,0,0,1.71-1.37,1.67,1.67,0,0,0,.69.15A2,2,0,0,0,91.41,81Z" transform="translate(-19.28 -11.73)"/><path class="cls-155" d="M97.7,83.29a1.89,1.89,0,0,0-1.8-2,1.82,1.82,0,0,0-1.71,1.37,1.67,1.67,0,0,0-.69-.15,2,2,0,0,0-.06,3.92,2.12,2.12,0,0,0,2,1.88,2.16,2.16,0,0,0,2.06-2.25,2.37,2.37,0,0,0-.42-1.36A2,2,0,0,0,97.7,83.29Z" transform="translate(-19.28 -11.73)"/><path class="cls-156" d="M96.44,80.54a1.89,1.89,0,0,0-1.8-2,1.82,1.82,0,0,0-1.71,1.37,1.67,1.67,0,0,0-.69-.15,2,2,0,0,0-.06,3.92,2.12,2.12,0,0,0,2,1.88,2.16,2.16,0,0,0,2.06-2.25A2.37,2.37,0,0,0,95.85,82,2,2,0,0,0,96.44,80.54Z" transform="translate(-19.28 -11.73)"/><path class="cls-157" d="M113.11,107.75a1.51,1.51,0,0,0-1.44-1.57,1.45,1.45,0,0,0-1.36,1.09,1.33,1.33,0,0,0-.55-.12,1.58,1.58,0,0,0,0,3.14,1.69,1.69,0,0,0,1.62,1.5A1.72,1.72,0,0,0,113,110a1.89,1.89,0,0,0-.34-1.09A1.63,1.63,0,0,0,113.11,107.75Z" transform="translate(-19.28 -11.73)"/><path class="cls-158" d="M88,82.88a1.89,1.89,0,0,0-1.8-2,1.82,1.82,0,0,0-1.71,1.37,1.67,1.67,0,0,0-.69-.15,2,2,0,0,0-.06,3.92,2.12,2.12,0,0,0,2,1.88,2.16,2.16,0,0,0,2.06-2.25,2.37,2.37,0,0,0-.42-1.36A2,2,0,0,0,88,82.88Z" transform="translate(-19.28 -11.73)"/><path class="cls-159" d="M91.69,83.93a2.08,2.08,0,0,0-1.94-1.5,2.16,2.16,0,0,0-2.06,2.25,2.4,2.4,0,0,0,.25,1.07,2.05,2.05,0,0,0-.51,1.36,1.89,1.89,0,0,0,1.8,2,1.82,1.82,0,0,0,1.71-1.37,1.67,1.67,0,0,0,.69.15,2,2,0,0,0,.05-3.92Z" transform="translate(-19.28 -11.73)"/><path class="cls-160" d="M91.81,77.19a2.08,2.08,0,0,0-1.94-1.5,2.16,2.16,0,0,0-2.06,2.25A2.4,2.4,0,0,0,88.05,79a2.05,2.05,0,0,0-.51,1.36,1.89,1.89,0,0,0,1.8,2A1.82,1.82,0,0,0,91.06,81a1.67,1.67,0,0,0,.69.15,2,2,0,0,0,.05-3.92Z" transform="translate(-19.28 -11.73)"/><path class="cls-161" d="M107.65,79.2a2.08,2.08,0,0,0-1.94-1.5,2.16,2.16,0,0,0-2.06,2.25A2.4,2.4,0,0,0,103.9,81a2.05,2.05,0,0,0-.51,1.36,1.89,1.89,0,0,0,1.8,2A1.82,1.82,0,0,0,106.9,83a1.67,1.67,0,0,0,.69.15,2,2,0,0,0,.05-3.92Z" transform="translate(-19.28 -11.73)"/><path class="cls-162" d="M101,84.2a2.08,2.08,0,0,0-1.94-1.5A2.16,2.16,0,0,0,97,84.95,2.4,2.4,0,0,0,97.24,86a2.05,2.05,0,0,0-.51,1.36,1.89,1.89,0,0,0,1.8,2A1.82,1.82,0,0,0,100.24,88a1.67,1.67,0,0,0,.69.15A2,2,0,0,0,101,84.2Z" transform="translate(-19.28 -11.73)"/><path class="cls-163" d="M94.74,87.34a2.08,2.08,0,0,0-1.94-1.5,2.16,2.16,0,0,0-2.06,2.25A2.4,2.4,0,0,0,91,89.16a2.05,2.05,0,0,0-.51,1.36,1.89,1.89,0,0,0,1.8,2A1.82,1.82,0,0,0,94,91.12a1.67,1.67,0,0,0,.69.15,2,2,0,0,0,.05-3.92Z" transform="translate(-19.28 -11.73)"/><path class="cls-164" d="M86,86a2.08,2.08,0,0,0-1.94-1.5A2.16,2.16,0,0,0,82,86.77a2.4,2.4,0,0,0,.25,1.07,2.05,2.05,0,0,0-.51,1.36,1.89,1.89,0,0,0,1.8,2,1.82,1.82,0,0,0,1.71-1.37A1.67,1.67,0,0,0,86,90,2,2,0,0,0,86,86Z" transform="translate(-19.28 -11.73)"/><path class="cls-165" d="M91.74,88.95a1.89,1.89,0,0,0-1.8-2,1.82,1.82,0,0,0-1.71,1.37,1.67,1.67,0,0,0-.69-.15,2,2,0,0,0-.06,3.92,2.12,2.12,0,0,0,2,1.88,2.16,2.16,0,0,0,2.06-2.25,2.37,2.37,0,0,0-.42-1.36A2,2,0,0,0,91.74,88.95Z" transform="translate(-19.28 -11.73)"/><path class="cls-166" d="M93,94.36a1.89,1.89,0,0,0-1.8-2,1.82,1.82,0,0,0-1.71,1.37,1.67,1.67,0,0,0-.69-.15,2,2,0,0,0-.06,3.92,2.12,2.12,0,0,0,2,1.88,2.16,2.16,0,0,0,2.06-2.25,2.37,2.37,0,0,0-.42-1.36A2,2,0,0,0,93,94.36Z" transform="translate(-19.28 -11.73)"/><path class="cls-167" d="M93.14,100.43a1.89,1.89,0,0,0-1.8-2,1.82,1.82,0,0,0-1.71,1.37,1.67,1.67,0,0,0-.69-.15,2,2,0,0,0-.06,3.92,2.12,2.12,0,0,0,2,1.88A2.16,2.16,0,0,0,93,103.24a2.37,2.37,0,0,0-.42-1.36A2,2,0,0,0,93.14,100.43Z" transform="translate(-19.28 -11.73)"/><polygon class="cls-168" points="71.89 80.68 71.88 107.16 84.81 99.07 92.42 67.63 71.89 80.68"/><polygon class="cls-169" points="91.52 68.24 84.25 99.42 84.81 99.07 92.42 67.63 91.52 68.24"/><polygon class="cls-170" points="88.53 70.14 82.36 100.6 82.93 100.24 89.43 69.53 88.53 70.14"/><polygon class="cls-171" points="85.54 72.03 80.48 101.77 81.05 101.42 86.44 71.42 85.54 72.03"/><polygon class="cls-172" points="82.56 73.92 78.6 102.95 79.17 102.59 83.46 73.32 82.56 73.92"/><polygon class="cls-173" points="79.57 75.82 76.72 104.12 77.28 103.77 80.47 75.21 79.57 75.82"/><polygon class="cls-174" points="76.58 77.72 74.83 105.3 75.4 104.94 77.48 77.11 76.58 77.72"/><polygon class="cls-175" points="73.59 79.61 72.95 106.47 73.52 106.11 74.49 79 73.59 79.61"/><polygon class="cls-176" points="71.87 80.68 71.88 107.16 58.91 98.83 51.3 67.63 71.87 80.68"/><polygon class="cls-177" points="52.83 68.8 59.87 99.42 59.31 99.07 51.93 68.19 52.83 68.8"/><polygon class="cls-178" points="55.82 70.67 61.76 100.64 61.19 100.28 54.92 70.06 55.82 70.67"/><polygon class="cls-179" points="58.81 72.53 63.64 101.85 63.07 101.5 57.91 71.92 58.81 72.53"/><polygon class="cls-180" points="61.8 74.39 65.52 103.06 64.95 102.71 60.9 73.78 61.8 74.39"/><polygon class="cls-181" points="64.78 76.26 67.4 104.28 66.84 103.92 63.88 75.65 64.78 76.26"/><polygon class="cls-182" points="67.77 78.12 69.29 105.49 68.72 105.14 66.87 77.51 67.77 78.12"/><polygon class="cls-183" points="70.76 79.98 71.17 106.71 70.6 106.35 69.86 79.38 70.76 79.98"/><path class="cls-184" d="M104.88,97.17c0,3.58-2.66,8.15-5.94,10.22s-5.94.84-5.94-2.74,2.66-8.15,5.94-10.22S104.88,93.59,104.88,97.17Z" transform="translate(-19.28 -11.73)"/><path class="cls-185" d="M104.4,97.58c0,3.26-2.42,7.42-5.4,9.3s-5.4.76-5.4-2.49S96,97,99,95.08,104.4,94.32,104.4,97.58Z" transform="translate(-19.28 -11.73)"/><path class="cls-186" d="M96.75,100.9a1.05,1.05,0,0,1,0,.84,2.85,2.85,0,0,1-.63,1l-.2.22.38.71-.71.78-1.13-2.15.91-1a2.09,2.09,0,0,1,.84-.64A.41.41,0,0,1,96.75,100.9Zm-1,1.6.13-.14A1,1,0,0,0,96,102a.39.39,0,0,0,0-.31q-.11-.22-.41.11l-.18.2Z" transform="translate(-19.28 -11.73)"/><path class="cls-187" d="M99.55,98.43a1.56,1.56,0,0,1,.11,1.18,3.37,3.37,0,0,1-.8,1.33,2.13,2.13,0,0,1-1.1.76.71.71,0,0,1-.76-.46,1.55,1.55,0,0,1-.1-1.18,3.38,3.38,0,0,1,.8-1.33,2.14,2.14,0,0,1,1.1-.76A.71.71,0,0,1,99.55,98.43Zm-1.81,2q.33.62.86,0a1.19,1.19,0,0,0,.32-.59,1,1,0,0,0-.12-.62q-.17-.32-.38-.33a.67.67,0,0,0-.48.28A1,1,0,0,0,97.74,100.42Z" transform="translate(-19.28 -11.73)"/><path class="cls-188" d="M101.45,95.73a1.05,1.05,0,0,1,0,.84,2.85,2.85,0,0,1-.63,1l-.2.22.38.71-.71.78-1.13-2.15.91-1a2.09,2.09,0,0,1,.84-.64A.41.41,0,0,1,101.45,95.73Zm-1,1.6.13-.14a1,1,0,0,0,.22-.35.39.39,0,0,0,0-.31q-.11-.22-.41.11l-.18.2Z" transform="translate(-19.28 -11.73)"/><path class="cls-189" d="M96.48,105a.92.92,0,0,0-.24.48.77.77,0,0,0,.08.49q.26.49.71,0a2.53,2.53,0,0,0,.25-.32l.22-.36.2.39a3.94,3.94,0,0,1-.54.74,1.56,1.56,0,0,1-.84.57.56.56,0,0,1-.59-.37,1.14,1.14,0,0,1-.12-.6,1.8,1.8,0,0,1,.19-.69,2.9,2.9,0,0,1,.48-.7A3.05,3.05,0,0,1,97,104l0,.55-.27.18A1.8,1.8,0,0,0,96.48,105Z" transform="translate(-19.28 -11.73)"/><path class="cls-190" d="M99.42,102.55a1.23,1.23,0,0,1,.09.93,2.66,2.66,0,0,1-.63,1,1.68,1.68,0,0,1-.87.6.56.56,0,0,1-.6-.37,1.23,1.23,0,0,1-.08-.93,2.67,2.67,0,0,1,.63-1.05,1.69,1.69,0,0,1,.87-.6A.56.56,0,0,1,99.42,102.55ZM98,104.12q.26.49.68,0a.94.94,0,0,0,.25-.47.75.75,0,0,0-.09-.49q-.13-.25-.3-.26a.53.53,0,0,0-.37.22A.78.78,0,0,0,98,104.12Z" transform="translate(-19.28 -11.73)"/><path class="cls-191" d="M100.26,102l.33.62-.56.62-.89-1.7.68-.75q.84-.93,1.11-.43a1,1,0,0,1-.11.84l1,.07-.63.7-.76-.13Zm-.18-.34.1-.12q.29-.32.18-.53t-.38.14l-.11.12Z" transform="translate(-19.28 -11.73)"/><path class="cls-192" d="M103.74,99.14l-.73.81-1.39-.36h0a4.15,4.15,0,0,1,.25.4l.4.76-.5.55-.89-1.7.73-.8,1.37.35h0q-.15-.23-.24-.39l-.4-.77.5-.55Z" transform="translate(-19.28 -11.73)"/><path class="cls-193" d="M91.09,77.11a1.81,1.81,0,0,1-.81,2.29,1.56,1.56,0,0,1-2.06-1A1.81,1.81,0,0,1,89,76.11,1.56,1.56,0,0,1,91.09,77.11Z" transform="translate(-19.28 -11.73)"/><path class="cls-194" d="M103.74,75.76a1.81,1.81,0,0,1-.81,2.29,1.56,1.56,0,0,1-2.06-1,1.81,1.81,0,0,1,.81-2.29A1.56,1.56,0,0,1,103.74,75.76Z" transform="translate(-19.28 -11.73)"/><path class="cls-195" d="M84.68,75.28a1.81,1.81,0,0,1-.81,2.29,1.56,1.56,0,0,1-2.06-1,1.81,1.81,0,0,1,.81-2.29A1.56,1.56,0,0,1,84.68,75.28Z" transform="translate(-19.28 -11.73)"/><path class="cls-196" d="M90.83,73.28A1.81,1.81,0,0,1,90,75.57a1.56,1.56,0,0,1-2.06-1,1.81,1.81,0,0,1,.81-2.29A1.56,1.56,0,0,1,90.83,73.28Z" transform="translate(-19.28 -11.73)"/><path class="cls-197" d="M93.4,78.6a1.81,1.81,0,0,1-.81,2.29,1.56,1.56,0,0,1-2.06-1,1.81,1.81,0,0,1,.81-2.29A1.56,1.56,0,0,1,93.4,78.6Z" transform="translate(-19.28 -11.73)"/><path class="cls-198" d="M101,81.63a1.81,1.81,0,0,1-.81,2.29,1.56,1.56,0,0,1-2.06-1A1.81,1.81,0,0,1,99,80.62,1.56,1.56,0,0,1,101,81.63Z" transform="translate(-19.28 -11.73)"/><path class="cls-199" d="M97.3,86a1.81,1.81,0,0,1-.81,2.29,1.56,1.56,0,0,1-2.06-1A1.81,1.81,0,0,1,95.24,85,1.56,1.56,0,0,1,97.3,86Z" transform="translate(-19.28 -11.73)"/><path class="cls-200" d="M93.52,88.29a2.66,2.66,0,0,1-1.2,3.38,2.3,2.3,0,0,1-3-1.49,2.66,2.66,0,0,1,1.2-3.38A2.3,2.3,0,0,1,93.52,88.29Z" transform="translate(-19.28 -11.73)"/><path class="cls-201" d="M100.49,76.63A2.66,2.66,0,0,1,99.29,80a2.3,2.3,0,0,1-3-1.49,2.66,2.66,0,0,1,1.2-3.38A2.3,2.3,0,0,1,100.49,76.63Z" transform="translate(-19.28 -11.73)"/><path class="cls-202" d="M95.64,73.7A1.81,1.81,0,0,1,94.83,76a1.56,1.56,0,0,1-2.06-1,1.81,1.81,0,0,1,.81-2.29A1.56,1.56,0,0,1,95.64,73.7Z" transform="translate(-19.28 -11.73)"/><path class="cls-203" d="M84.37,81.91a2.27,2.27,0,0,1-1,2.89,2,2,0,0,1-2.59-1.27,2.27,2.27,0,0,1,1-2.89A2,2,0,0,1,84.37,81.91Z" transform="translate(-19.28 -11.73)"/><path class="cls-204" d="M93,84.39a1,1,0,0,1-.46,1.31.89.89,0,0,1-1.17-.57,1,1,0,0,1,.46-1.31A.89.89,0,0,1,93,84.39Z" transform="translate(-19.28 -11.73)"/><path class="cls-205" d="M96.31,80.7A1,1,0,0,1,95.85,82a.89.89,0,0,1-1.17-.57,1,1,0,0,1,.46-1.31A.89.89,0,0,1,96.31,80.7Z" transform="translate(-19.28 -11.73)"/><path class="cls-206" d="M103.37,79.66A1,1,0,0,1,102.9,81a.89.89,0,0,1-1.17-.57,1,1,0,0,1,.46-1.31A.89.89,0,0,1,103.37,79.66Z" transform="translate(-19.28 -11.73)"/><path class="cls-207" d="M93.23,75.17a1,1,0,0,1-.46,1.31.89.89,0,0,1-1.17-.57,1,1,0,0,1,.46-1.31A.89.89,0,0,1,93.23,75.17Z" transform="translate(-19.28 -11.73)"/><path class="cls-208" d="M88.2,75.84a2.33,2.33,0,0,1-1,3,2,2,0,0,1-2.65-1.3,2.33,2.33,0,0,1,1-3A2,2,0,0,1,88.2,75.84Z" transform="translate(-19.28 -11.73)"/><path class="cls-209" d="M88.38,86a1.81,1.81,0,0,1-.81,2.29,1.56,1.56,0,0,1-2.06-1A1.81,1.81,0,0,1,86.32,85,1.56,1.56,0,0,1,88.38,86Z" transform="translate(-19.28 -11.73)"/><path class="cls-210" d="M79.87,79.37a1.81,1.81,0,0,1-.81,2.29,1.56,1.56,0,0,1-2.06-1,1.81,1.81,0,0,1,.81-2.29A1.56,1.56,0,0,1,79.87,79.37Z" transform="translate(-19.28 -11.73)"/><polygon class="cls-211" points="51.3 67.63 71.87 80.68 92.42 67.63 71.77 79.92 51.3 67.63"/><polygon class="cls-212" points="71.89 80.68 71.88 107.16 84.81 99.07 92.42 67.63 71.89 80.68"/><path class="cls-213" d="M106.82,110.35a2.08,2.08,0,0,0-1.94-1.5,2.16,2.16,0,0,0-2.06,2.25,2.4,2.4,0,0,0,.25,1.07,2.05,2.05,0,0,0-.51,1.36,1.89,1.89,0,0,0,1.8,2,1.82,1.82,0,0,0,1.71-1.37,1.67,1.67,0,0,0,.69.15,2,2,0,0,0,.05-3.92Z" transform="translate(-19.28 -11.73)"/><path class="cls-214" d="M106.11,110.28a1.81,1.81,0,0,1-.81,2.29,1.56,1.56,0,0,1-2.06-1,1.81,1.81,0,0,1,.81-2.29A1.56,1.56,0,0,1,106.11,110.28Z" transform="translate(-19.28 -11.73)"/><path class="cls-215" d="M108.42,111.76a1.81,1.81,0,0,1-.81,2.29,1.56,1.56,0,0,1-2.06-1,1.81,1.81,0,0,1,.81-2.29A1.56,1.56,0,0,1,108.42,111.76Z" transform="translate(-19.28 -11.73)"/><path class="cls-13" d="M68.19,141.45h0l-5.89-3.71h0l-1.55-1-6.21-3.91h0l-5.28-3.33h0a2.28,2.28,0,0,1-2.21,0l-.34.22a.42.42,0,0,1,0,.77,1.26,1.26,0,0,1-1.22,0l-.24.15a.42.42,0,0,1,0,.77,1.26,1.26,0,0,1-1.22,0l-.24.15a.42.42,0,0,1,0,.77,1.26,1.26,0,0,1-1.22,0l-.24.15a.42.42,0,0,1,0,.77,1.26,1.26,0,0,1-1.22,0l-.4.25a.76.76,0,0,1,0,1.39h0l13,8.21h0l5.89,3.71h0a2.28,2.28,0,0,1,2.21,0l.34-.22a.42.42,0,0,1,0-.77,1.26,1.26,0,0,1,1.22,0l.24-.15a.42.42,0,0,1,0-.77,1.26,1.26,0,0,1,1.22,0l.24-.15a.42.42,0,0,1,0-.77,1.26,1.26,0,0,1,1.22,0l.24-.15a.42.42,0,0,1,0-.77,1.26,1.26,0,0,1,1.22,0l.4-.25A.76.76,0,0,1,68.19,141.45Z" transform="translate(-19.28 -11.73)"/><path class="cls-216" d="M62.15,145.18a1.26,1.26,0,0,1,1.22,0l.24-.15a.42.42,0,0,1,0-.77,1.26,1.26,0,0,1,1.22,0l.24-.15a.42.42,0,0,1,0-.77,1.26,1.26,0,0,1,1.22,0l.24-.15a.42.42,0,0,1,0-.77,1.26,1.26,0,0,1,1.22,0l.4-.25a.76.76,0,0,1,0-1.39h0l-13.65-8.6-8.63,5.44,13.65,8.6h0a2.28,2.28,0,0,1,2.21,0l.34-.22A.42.42,0,0,1,62.15,145.18Z" transform="translate(-19.28 -11.73)"/><path class="cls-217" d="M46.71,129.81a1.26,1.26,0,0,1-1.22,0l-.24.15a.42.42,0,0,1,0,.77,1.26,1.26,0,0,1-1.22,0l-.24.15a.42.42,0,0,1,0,.77,1.26,1.26,0,0,1-1.22,0l-.24.15a.42.42,0,0,1,0,.77,1.26,1.26,0,0,1-1.22,0l-.4.25a.76.76,0,0,1,0,1.39h0l13,8.21L62.32,137l-13-8.21h0a2.28,2.28,0,0,1-2.21,0l-.34.22A.42.42,0,0,1,46.71,129.81Z" transform="translate(-19.28 -11.73)"/><g class="cls-218"><polygon class="cls-219" points="46.18 129.32 42.41 126.95 42.72 126.75 46.5 129.13 46.18 129.32"/></g><g class="cls-218"><polygon class="cls-219" points="46.07 129.4 42.29 127.02 42.14 127.12 45.91 129.5 46.07 129.4"/></g><g class="cls-218"><polygon class="cls-219" points="45.04 130.04 41.27 127.67 41.11 127.77 44.88 130.14 45.04 130.04"/></g><g class="cls-218"><polygon class="cls-219" points="43.54 130.98 39.77 128.61 39.57 128.74 43.34 131.11 43.54 130.98"/></g><g class="cls-218"><polygon class="cls-219" points="43.17 131.22 39.4 128.84 39.28 128.92 43.05 131.29 43.17 131.22"/></g><g class="cls-218"><polygon class="cls-219" points="45.17 129.96 41.4 127.58 41.55 127.49 45.32 129.87 45.17 129.96"/></g><g class="cls-218"><polygon class="cls-219" points="45.47 129.77 41.7 127.4 42.01 127.2 45.78 129.57 45.47 129.77"/></g><g class="cls-218"><polygon class="cls-219" points="44.42 130.43 40.65 128.06 40.96 127.86 44.73 130.23 44.42 130.43"/></g><g class="cls-218"><polygon class="cls-219" points="44.29 130.51 40.52 128.14 40.38 128.23 44.15 130.6 44.29 130.51"/></g><g class="cls-218"><polygon class="cls-219" points="43.66 130.91 39.89 128.54 40.2 128.34 43.97 130.72 43.66 130.91"/></g><g class="cls-218"><polygon class="cls-219" points="42.63 131.56 38.86 129.18 39.17 128.99 42.94 131.36 42.63 131.56"/></g><g class="cls-218"><polygon class="cls-219" points="42.16 131.85 38.39 129.48 38.7 129.28 42.48 131.66 42.16 131.85"/></g><g class="cls-218"><polygon class="cls-219" points="41.81 132.08 38.03 129.7 38.23 129.58 42 131.96 41.81 132.08"/></g><g class="cls-218"><polygon class="cls-219" points="40.96 132.61 37.19 130.24 37.39 130.11 41.16 132.48 40.96 132.61"/></g><g class="cls-218"><polygon class="cls-219" points="40.49 132.91 36.72 130.53 37.03 130.34 40.8 132.71 40.49 132.91"/></g><g class="cls-218"><polygon class="cls-219" points="41.34 132.37 37.57 130 37.88 129.8 41.65 132.18 41.34 132.37"/></g><path class="cls-220" d="M48.25,133a1,1,0,0,1-.29-.07,1.64,1.64,0,0,1-.28-.14.74.74,0,0,1-.25-.24.36.36,0,0,1,0-.28.75.75,0,0,1,.2-.33,2.4,2.4,0,0,1,.47-.37,2.92,2.92,0,0,1,.6-.3,2.14,2.14,0,0,1,.53-.12,1.39,1.39,0,0,1,.45,0,1.2,1.2,0,0,1,.35.14,1.37,1.37,0,0,1,.23.17.82.82,0,0,1,.12.14l-.27.1a.45.45,0,0,0-.09-.13,1,1,0,0,0-.18-.14.78.78,0,0,0-.26-.1,1.05,1.05,0,0,0-.33,0,1.72,1.72,0,0,0-.41.11,2.73,2.73,0,0,0-.48.25,1.19,1.19,0,0,0-.54.54.34.34,0,0,0,.19.41.91.91,0,0,0,.22.1l.22,0Z" transform="translate(-19.28 -11.73)"/><path class="cls-220" d="M50.81,131.88,51,132l-2.23,1.4-.24-.15Z" transform="translate(-19.28 -11.73)"/><path class="cls-220" d="M51.1,133.09l.21-.31h0L51,133l-1.41.89-.23-.14,2.27-1.43.14.09-.63,1.43-.2.29h0l.3-.23,1.41-.89.23.14-2.27,1.43-.15-.09Z" transform="translate(-19.28 -11.73)"/><path class="cls-220" d="M53.36,133.48l1,.62-.22.14-.75-.47-.76.48.69.43-.22.14-.69-.43-.82.51.76.48-.22.14-1-.63Z" transform="translate(-19.28 -11.73)"/><path class="cls-220" d="M55.41,135.74l.37-.19h0l-.42.13-1.41.33-.08,0,.5-.91.22-.26h0l-.29.24-1.47.92-.23-.14,2.23-1.4.2.13-.56,1-.18.21h0l.34-.12,1.6-.37.21.13-2.23,1.4-.24-.15Z" transform="translate(-19.28 -11.73)"/><path class="cls-220" d="M56.14,137.26l-.62-.39-.8.28-.23-.15,2.93-1,.13.08-1.6,1.85-.25-.16Zm-.35-.48.5.32.5-.56.28-.25h0l-.4.18Z" transform="translate(-19.28 -11.73)"/><path class="cls-220" d="M47.13,133.81l-.53-.33-1.86,1.17-.4-.25,1.86-1.17-.53-.33.37-.23,1.45.91Z" transform="translate(-19.28 -11.73)"/><path class="cls-220" d="M47.89,133.83l.4.25-2.23,1.4-.4-.25Z" transform="translate(-19.28 -11.73)"/><path class="cls-220" d="M47.91,136.54a1,1,0,0,1-.32-.07,1.83,1.83,0,0,1-.31-.15.86.86,0,0,1-.26-.24.38.38,0,0,1-.06-.29.71.71,0,0,1,.19-.34,2.26,2.26,0,0,1,.48-.39,2.87,2.87,0,0,1,.63-.31,2,2,0,0,1,.54-.11,1.39,1.39,0,0,1,.45,0,1.4,1.4,0,0,1,.35.16,1.46,1.46,0,0,1,.25.19.9.9,0,0,1,.13.15l-.43.17a.45.45,0,0,0-.09-.12l-.17-.13a.75.75,0,0,0-.53-.09,2,2,0,0,0-.72.3,2.05,2.05,0,0,0-.29.22.67.67,0,0,0-.16.21.26.26,0,0,0,0,.2.36.36,0,0,0,.16.17.84.84,0,0,0,.22.1l.21,0Z" transform="translate(-19.28 -11.73)"/><path class="cls-220" d="M49.64,136.54l-.09-.05-1,.6-.4-.25,2.23-1.4.4.25-1,.62.12,0,1.41-.3.45.28-1.44.27-.27,0,0,.17-.47,1-.49-.31Z" transform="translate(-19.28 -11.73)"/><path class="cls-220" d="M52.27,136.59l1.11.7-.37.23-.71-.45-.55.35.64.4-.37.23-.64-.4-.57.36.72.45-.37.23L50,138Z" transform="translate(-19.28 -11.73)"/><path class="cls-220" d="M54.78,138.63l-.53-.33-1.86,1.17-.4-.25,1.86-1.17-.53-.33.37-.23,1.45.91Z" transform="translate(-19.28 -11.73)"/><g class="cls-218"><path class="cls-219" d="M53.66,140.62l0,0,0,0,0,0,0,0a.54.54,0,0,1,.17-.07h.18l.18,0,.18.1.14.11a.3.3,0,0,1,.08.12.16.16,0,0,1,0,.12.29.29,0,0,1-.12.12l0,0-.05,0,0,0,0,0Zm.25-.07,0,0,0,0,0,0h0l.66.42h0l0,0,0,0h0a.18.18,0,0,0,.08-.09.12.12,0,0,0,0-.09.3.3,0,0,0-.07-.09l-.12-.09-.13-.07-.14,0H54A.32.32,0,0,0,53.91,140.55Z" transform="translate(-19.28 -11.73)"/><path class="cls-219" d="M55.17,140.41l-.23.15.16.18-.09.05-.58-.67,0,0,1.07.36-.09.06Zm-.28.08.19-.12-.32-.11-.14-.06h0l.1.09Z" transform="translate(-19.28 -11.73)"/><path class="cls-219" d="M55.3,139.69l-.2.13.73.46-.09.06-.73-.46-.2.13-.08-.05.49-.31Z" transform="translate(-19.28 -11.73)"/><path class="cls-219" d="M55.34,139.56l.36-.23.08.05-.28.17.27.17.25-.16.08.05-.25.16.3.19.28-.18.08.05-.37.23Z" transform="translate(-19.28 -11.73)"/><path class="cls-219" d="M56.93,138.55l.09,0,.62.82-.09,0Z" transform="translate(-19.28 -11.73)"/><path class="cls-219" d="M58.05,138.74l.09,0,.1,0a.15.15,0,0,0,.07-.09s0-.06-.06-.09l-.1,0h-.52l-.13-.05q-.1-.06-.09-.13a.21.21,0,0,1,.11-.13l.11-.06.1,0,0,.07-.08,0-.1.05s-.06.05-.06.08a.08.08,0,0,0,0,.07l.1,0h.52l.13.05q.1.06.1.14s0,.1-.11.14l-.13.06-.1,0Z" transform="translate(-19.28 -11.73)"/><path class="cls-219" d="M57.88,138l.36-.23.08.05-.28.17.27.17.25-.16.08.05-.25.16.3.19.28-.18.08.05-.37.23Z" transform="translate(-19.28 -11.73)"/><path class="cls-219" d="M59.31,137.8l-.23.15.16.18-.09.05-.58-.67,0,0,1.07.36-.09.06Zm-.28.08.19-.12-.32-.11-.14-.06h0l.1.09Z" transform="translate(-19.28 -11.73)"/><path class="cls-219" d="M59.44,137.08l-.2.13.73.46-.09.06-.73-.46-.2.13-.08-.05.49-.31Z" transform="translate(-19.28 -11.73)"/></g><path class="cls-13" d="M70.59,139.09h0l-1.73-2.41-2.79-3.89h0L63,128.49h0a2,2,0,0,1-2.07-.48l-.44.13c.19.27,0,.59-.44.72a1.13,1.13,0,0,1-1.14-.26l-.3.09c.19.27,0,.59-.44.72a1.13,1.13,0,0,1-1.14-.26l-.3.09c.19.27,0,.59-.44.72a1.13,1.13,0,0,1-1.14-.26l-.3.09c.19.27,0,.59-.44.72a1.13,1.13,0,0,1-1.14-.26l-.52.15c.35.5,0,1.08-.79,1.3h0L55,136h0l7.95,11.09h0a2,2,0,0,1,2.07.48l.44-.13c-.19-.27,0-.59.44-.72A1.13,1.13,0,0,1,67,147l.3-.09c-.19-.27,0-.59.44-.72a1.13,1.13,0,0,1,1.14.26l.3-.09c-.19-.27,0-.59.44-.72a1.13,1.13,0,0,1,1.14.26l.3-.09c-.19-.27,0-.59.44-.72a1.13,1.13,0,0,1,1.14.26l.52-.15c-.35-.5,0-1.08.79-1.3h0Z" transform="translate(-19.28 -11.73)"/><path class="cls-221" d="M65.88,145.84a1.13,1.13,0,0,1,1.14.26l.3-.09c-.19-.27,0-.59.44-.72a1.13,1.13,0,0,1,1.14.26l.3-.09c-.19-.27,0-.59.44-.72a1.13,1.13,0,0,1,1.14.26l.3-.09c-.19-.27,0-.59.44-.72a1.13,1.13,0,0,1,1.14.26l.52-.15c-.35-.5,0-1.08.79-1.3h0l-7.95-11.09L55,135.11l7.95,11.09h0a2,2,0,0,1,2.07.48l.44-.13C65.25,146.28,65.45,146,65.88,145.84Z" transform="translate(-19.28 -11.73)"/><path class="cls-222" d="M60,128a1.13,1.13,0,0,1-1.14-.26l-.3.09c.19.27,0,.59-.44.72a1.13,1.13,0,0,1-1.14-.26l-.3.09c.19.27,0,.59-.44.72a1.13,1.13,0,0,1-1.14-.26l-.3.09c.19.27,0,.59-.44.72a1.13,1.13,0,0,1-1.14-.26l-.52.15c.35.5,0,1.08-.79,1.3h0l7.59,10.6,11.09-3.19L63,127.63h0a2,2,0,0,1-2.07-.48l-.44.13C60.66,127.55,60.47,127.87,60,128Z" transform="translate(-19.28 -11.73)"/><g class="cls-218"><polygon class="cls-219" points="52 130.97 49.8 127.9 50.2 127.79 52.4 130.85 52 130.97"/></g><g class="cls-218"><polygon class="cls-219" points="51.84 131.01 49.65 127.95 49.45 128 51.64 131.07 51.84 131.01"/></g><g class="cls-218"><polygon class="cls-219" points="50.52 131.39 48.33 128.33 48.13 128.38 50.32 131.45 50.52 131.39"/></g><g class="cls-218"><polygon class="cls-219" points="48.6 131.94 46.41 128.88 46.15 128.95 48.34 132.02 48.6 131.94"/></g><g class="cls-218"><polygon class="cls-219" points="48.12 132.08 45.93 129.02 45.77 129.06 47.97 132.13 48.12 132.08"/></g><g class="cls-218"><polygon class="cls-219" points="50.69 131.34 48.5 128.28 48.69 128.22 50.89 131.29 50.69 131.34"/></g><g class="cls-218"><polygon class="cls-219" points="51.08 131.23 48.88 128.17 49.28 128.05 51.48 131.12 51.08 131.23"/></g><g class="cls-218"><polygon class="cls-219" points="49.73 131.62 47.53 128.55 47.94 128.44 50.13 131.5 49.73 131.62"/></g><g class="cls-218"><polygon class="cls-219" points="49.56 131.67 47.37 128.6 47.18 128.66 49.38 131.72 49.56 131.67"/></g><g class="cls-218"><polygon class="cls-219" points="48.75 131.9 46.55 128.84 46.96 128.72 49.15 131.78 48.75 131.9"/></g><g class="cls-218"><polygon class="cls-219" points="47.43 132.28 45.23 129.22 45.64 129.1 47.83 132.16 47.43 132.28"/></g><g class="cls-218"><polygon class="cls-219" points="46.83 132.45 44.63 129.39 45.03 129.27 47.23 132.34 46.83 132.45"/></g><g class="cls-218"><polygon class="cls-219" points="46.37 132.59 44.18 129.52 44.42 129.45 46.62 132.51 46.37 132.59"/></g><g class="cls-218"><polygon class="cls-219" points="45.28 132.9 43.08 129.83 43.35 129.76 45.54 132.82 45.28 132.9"/></g><g class="cls-218"><polygon class="cls-219" points="44.67 133.07 42.48 130.01 42.88 129.89 45.08 132.96 44.67 133.07"/></g><g class="cls-218"><polygon class="cls-219" points="45.77 132.76 43.57 129.69 43.98 129.58 46.17 132.64 45.77 132.76"/></g><path class="cls-220" d="M59.71,131.3a.69.69,0,0,1-.24-.13,1,1,0,0,1-.18-.2.48.48,0,0,1-.1-.28.41.41,0,0,1,.12-.27,1.24,1.24,0,0,1,.37-.26,3.68,3.68,0,0,1,.65-.24,4,4,0,0,1,.73-.15,2.34,2.34,0,0,1,.56,0,1.15,1.15,0,0,1,.4.13.77.77,0,0,1,.25.21.84.84,0,0,1,.12.21.56.56,0,0,1,0,.16l-.31,0a.32.32,0,0,0,0-.14.63.63,0,0,0-.09-.17.5.5,0,0,0-.19-.15.9.9,0,0,0-.31-.08,2,2,0,0,0-.44,0,3.73,3.73,0,0,0-.59.13,1.89,1.89,0,0,0-.81.39.3.3,0,0,0-.06.43.57.57,0,0,0,.15.15l.18.09Z" transform="translate(-19.28 -11.73)"/><path class="cls-220" d="M62.71,130.84l.14.19-2.87.82-.14-.19Z" transform="translate(-19.28 -11.73)"/><path class="cls-220" d="M62.31,132l.37-.24h0l-.43.16-1.82.52-.13-.19,2.91-.84.08.12-1.38,1.2-.35.23h0l.41-.15,1.81-.52.13.19-2.91.84-.08-.12Z" transform="translate(-19.28 -11.73)"/><path class="cls-220" d="M64.2,132.92l.57.8-.28.08-.43-.61-1,.28.4.56-.28.08-.4-.56-1,.3.44.62-.28.08-.58-.81Z" transform="translate(-19.28 -11.73)"/><path class="cls-220" d="M64.85,135.48l.45-.1h0l-.46,0h-1.5l0-.06,1-.74.35-.2h0l-.41.16-1.88.54-.13-.19,2.87-.82.12.16-1.1.84-.29.16h0l.38,0h1.7l.12.17-2.87.82L63,136Z" transform="translate(-19.28 -11.73)"/><path class="cls-220" d="M64.69,137.07l-.36-.51-.91.09-.14-.19,3.3-.29.08.11-2.52,1.38-.15-.2Zm-.06-.53.29.41.78-.41.4-.17h0l-.48.08Z" transform="translate(-19.28 -11.73)"/><path class="cls-220" d="M58.19,131.84l-.31-.43-2.39.69-.23-.32,2.39-.69-.31-.43.48-.14.84,1.18Z" transform="translate(-19.28 -11.73)"/><path class="cls-220" d="M58.9,132l.23.32-2.87.82-.23-.32Z" transform="translate(-19.28 -11.73)"/><path class="cls-220" d="M57.41,134.58a.73.73,0,0,1-.26-.14,1.13,1.13,0,0,1-.2-.21.55.55,0,0,1-.11-.28.4.4,0,0,1,.1-.28,1.15,1.15,0,0,1,.36-.27,3.48,3.48,0,0,1,.67-.25,3.85,3.85,0,0,1,.76-.15,2.19,2.19,0,0,1,.57,0,1.1,1.1,0,0,1,.39.15.9.9,0,0,1,.37.45.61.61,0,0,1,0,.17l-.5.07a.32.32,0,0,0,0-.13.65.65,0,0,0-.09-.16.56.56,0,0,0-.44-.2,2.5,2.5,0,0,0-.84.13,3.11,3.11,0,0,0-.4.14,1.1,1.1,0,0,0-.27.16.34.34,0,0,0-.12.18.24.24,0,0,0,.05.2.53.53,0,0,0,.15.14l.18.09Z" transform="translate(-19.28 -11.73)"/><path class="cls-220" d="M59,135l0-.07-1.23.35-.23-.32,2.87-.82.23.32-1.27.36.1.05,1.49,0,.26.37-1.5-.07-.24-.08-.07.17-1,.87-.28-.4Z" transform="translate(-19.28 -11.73)"/><path class="cls-220" d="M61.45,135.58l.65.9-.48.14L61.2,136l-.7.2.37.52-.48.14-.37-.52-.74.21.42.59-.48.14-.65-.91Z" transform="translate(-19.28 -11.73)"/><path class="cls-220" d="M62.65,138.06l-.31-.43-2.39.69-.23-.32,2.39-.69-.31-.43.48-.14.84,1.18Z" transform="translate(-19.28 -11.73)"/><g class="cls-218"><path class="cls-219" d="M60.49,139.68l.05,0,.06,0,.06,0,.05,0a.7.7,0,0,1,.2,0,.51.51,0,0,1,.17,0,.49.49,0,0,1,.14.09.73.73,0,0,1,.12.13.56.56,0,0,1,.07.14.22.22,0,0,1,0,.13.21.21,0,0,1-.07.11.47.47,0,0,1-.18.08h0l-.06,0H61Zm.27,0h-.12l.38.54h.11a.28.28,0,0,0,.12-.06.14.14,0,0,0,0-.09.21.21,0,0,0,0-.1l-.06-.11-.08-.09-.1-.07-.13,0A.4.4,0,0,0,60.76,139.67Z" transform="translate(-19.28 -11.73)"/><path class="cls-219" d="M62,139.81l-.3.09,0,.21-.11,0-.16-.76.06,0,.8.58-.12,0Zm-.31,0,.24-.07-.24-.18-.1-.09h0l0,.11Z" transform="translate(-19.28 -11.73)"/><path class="cls-219" d="M62.55,139.17l-.26.07.43.59-.11,0-.43-.59-.26.07,0-.07.63-.18Z" transform="translate(-19.28 -11.73)"/><path class="cls-219" d="M62.66,139.06l.47-.13,0,.07-.35.1.16.22.33-.09,0,.07-.33.09.17.24.36-.1,0,.07-.47.14Z" transform="translate(-19.28 -11.73)"/><path class="cls-219" d="M64.7,138.46h.1l.12.91h-.1Z" transform="translate(-19.28 -11.73)"/><path class="cls-219" d="M65.64,138.89h.1l.13,0a.23.23,0,0,0,.12-.07.07.07,0,0,0,0-.1.16.16,0,0,0-.08-.06l-.11,0-.13,0-.13,0-.12,0a.23.23,0,0,1-.09-.08.11.11,0,0,1,0-.14.33.33,0,0,1,.17-.09l.14,0h.11v.07h-.09l-.12,0a.17.17,0,0,0-.1.06.06.06,0,0,0,0,.07.14.14,0,0,0,.07,0l.11,0,.13,0,.13,0,.12,0a.24.24,0,0,1,.09.08.13.13,0,0,1,0,.15.32.32,0,0,1-.19.11l-.16,0h-.11Z" transform="translate(-19.28 -11.73)"/><path class="cls-219" d="M65.92,138.12l.47-.13,0,.07-.35.1.16.22.33-.09,0,.07-.33.09.17.24.36-.1,0,.07-.47.14Z" transform="translate(-19.28 -11.73)"/><path class="cls-219" d="M67.34,138.29l-.3.09,0,.21-.11,0-.16-.76.06,0,.8.58-.12,0Zm-.31,0,.24-.07-.24-.18-.1-.09h0l0,.11Z" transform="translate(-19.28 -11.73)"/><path class="cls-219" d="M67.87,137.64l-.26.07.43.59-.11,0-.43-.59-.26.07,0-.07.63-.18Z" transform="translate(-19.28 -11.73)"/></g></g></g></svg>